{"glyphs":{"0":{"ha":833,"x_min":129,"x_max":704,"o":"m 416 820 q 568 768 503 820 q 669 622 633 716 q 704 402 704 527 q 669 183 704 277 q 568 37 633 89 q 416 -15 503 -15 q 264 37 330 -15 q 164 183 199 89 q 129 402 129 277 q 164 622 129 527 q 264 768 199 716 q 416 820 330 820 m 416 720 q 321 682 363 720 q 257 573 280 644 q 233 402 233 501 q 257 232 233 303 q 321 123 280 160 q 416 85 363 85 q 511 123 470 85 q 576 232 553 160 q 600 402 600 303 q 576 573 600 501 q 511 682 553 644 q 416 720 470 720 z "},"1":{"ha":833,"x_min":149,"x_max":703,"o":"m 661 98 q 693 86 684 98 q 703 49 703 75 q 693 11 703 22 q 661 0 684 0 l 203 0 q 171 11 180 0 q 161 49 161 22 q 171 86 161 75 q 203 98 180 98 l 386 98 l 386 674 l 217 569 q 196 562 205 562 q 159 590 174 562 q 149 621 149 606 q 170 656 149 644 l 426 814 q 453 822 439 822 q 478 812 468 822 q 488 785 488 802 l 488 98 l 661 98 z "},"2":{"ha":833,"x_min":134,"x_max":690,"o":"m 647 98 q 680 86 670 98 q 690 49 690 75 q 680 11 690 22 q 647 0 670 0 l 176 0 q 143 11 153 0 q 134 46 134 21 q 144 83 134 72 l 442 385 q 530 491 505 448 q 555 583 555 534 q 515 683 555 646 q 401 720 475 720 q 308 703 356 720 q 217 656 260 686 q 194 648 206 648 q 155 675 172 648 q 143 709 143 695 q 163 743 143 728 q 277 800 215 779 q 400 820 340 820 q 537 792 479 820 q 628 710 596 764 q 660 583 660 656 q 626 455 660 513 q 522 323 593 396 l 299 98 l 647 98 z "},"3":{"ha":833,"x_min":123,"x_max":677,"o":"m 393 820 q 530 792 471 820 q 620 714 588 765 q 652 596 652 664 q 625 495 652 538 q 548 428 597 453 q 643 353 609 403 q 677 234 677 303 q 644 104 677 160 q 549 16 611 47 q 399 -15 486 -15 q 264 8 332 -15 q 143 71 197 31 q 123 104 123 85 q 134 138 123 118 q 174 166 152 166 q 197 157 184 166 q 294 105 241 124 q 399 85 346 85 q 528 125 483 85 q 572 234 572 165 q 527 340 572 304 q 402 376 482 376 l 353 376 q 320 387 330 376 q 310 422 310 397 q 320 458 310 448 q 353 469 330 469 l 390 469 q 507 501 467 469 q 547 596 547 534 q 507 687 547 654 q 394 720 467 720 q 215 665 304 720 q 193 659 203 659 q 155 688 172 659 q 146 720 146 706 q 168 755 146 742 q 393 820 278 820 z "},"4":{"ha":833,"x_min":98,"x_max":721,"o":"m 678 302 q 711 291 701 302 q 721 254 721 280 q 711 216 721 227 q 678 205 701 205 l 568 205 l 568 37 q 557 3 568 14 q 518 -7 546 -7 l 517 -7 q 478 3 489 -7 q 467 37 467 14 l 467 205 l 142 205 q 109 217 119 205 q 98 255 98 229 q 106 288 98 277 l 435 779 q 466 810 449 800 q 509 820 484 820 q 568 767 568 820 l 568 302 l 678 302 m 232 302 l 467 302 l 472 673 l 232 302 z "},"5":{"ha":833,"x_min":127,"x_max":684,"o":"m 421 533 q 562 498 503 533 q 652 402 621 464 q 684 262 684 341 q 649 119 684 182 q 549 21 614 56 q 399 -15 484 -15 q 268 7 334 -15 q 149 66 202 28 q 127 101 127 81 q 138 134 127 116 q 178 162 156 162 q 201 153 189 162 q 296 104 245 122 q 399 85 348 85 q 495 107 454 85 q 557 169 536 130 q 579 262 579 209 q 559 351 579 312 q 500 411 538 389 q 412 433 463 433 q 330 421 366 433 q 258 385 293 409 q 224 378 248 378 q 184 388 196 378 q 174 422 172 398 l 187 761 q 199 795 189 785 q 238 805 210 805 l 600 805 q 633 794 623 805 q 643 756 643 783 q 633 719 643 730 q 600 707 623 707 l 284 707 l 275 495 q 421 533 343 533 z "},"6":{"ha":833,"x_min":138,"x_max":701,"o":"m 622 820 q 651 808 640 821 q 661 760 661 795 q 655 730 661 739 q 636 720 648 721 q 359 627 456 711 q 243 399 262 543 q 330 471 278 446 q 439 496 381 496 q 574 464 514 496 q 667 374 633 432 q 701 239 701 315 q 667 108 701 166 q 570 18 633 50 q 425 -15 507 -15 q 289 19 351 -15 q 189 117 227 53 q 138 347 138 206 q 187 569 138 465 q 345 743 237 673 q 622 820 454 812 m 425 395 q 336 377 375 395 q 274 325 296 358 q 252 250 252 292 q 274 165 252 202 q 334 106 295 127 q 425 85 373 85 q 515 104 476 85 q 575 158 554 123 q 597 239 597 193 q 576 321 597 286 q 516 376 555 357 q 425 395 477 395 z "},"7":{"ha":833,"x_min":135,"x_max":698,"o":"m 655 805 q 688 794 678 805 q 698 759 698 784 q 694 732 698 743 l 405 16 q 386 -7 399 1 q 354 -15 372 -15 q 314 -5 329 -15 q 299 22 299 5 q 302 38 299 28 l 576 707 l 178 707 q 145 719 155 707 q 135 756 135 730 q 145 794 135 783 q 178 805 155 805 l 655 805 z "},"8":{"ha":833,"x_min":142,"x_max":690,"o":"m 416 820 q 544 790 487 820 q 633 710 601 761 q 665 596 665 659 q 635 498 665 541 q 554 427 604 454 q 653 349 616 399 q 690 231 690 298 q 655 105 690 161 q 557 17 620 49 q 416 -15 494 -15 q 276 17 338 -15 q 178 105 213 49 q 142 231 142 161 q 179 349 142 298 q 278 427 216 399 q 198 498 228 454 q 168 596 168 541 q 200 710 168 659 q 289 790 232 761 q 416 820 346 820 m 416 720 q 341 704 374 720 q 290 661 309 689 q 271 594 271 632 q 290 531 271 559 q 342 486 309 503 q 416 470 376 470 q 491 486 457 470 q 543 531 524 503 q 562 594 562 559 q 543 661 562 632 q 491 704 524 689 q 416 720 458 720 m 416 376 q 329 357 367 376 q 269 306 290 339 q 247 231 247 273 q 269 156 247 189 q 329 104 290 123 q 416 85 367 85 q 504 104 466 85 q 564 156 543 123 q 586 231 586 189 q 564 306 586 273 q 504 357 543 339 q 416 376 466 376 z "},"9":{"ha":833,"x_min":132,"x_max":695,"o":"m 408 820 q 544 786 482 820 q 644 688 606 752 q 695 458 695 599 q 646 236 695 340 q 488 62 596 132 q 211 -15 379 -7 q 182 -3 193 -16 q 172 45 172 10 q 178 75 172 66 q 197 85 184 84 q 474 178 377 94 q 590 406 571 262 q 503 334 555 359 q 393 309 452 309 q 259 341 319 309 q 165 431 199 373 q 132 566 132 490 q 166 697 132 639 q 263 787 200 755 q 408 820 326 820 m 408 720 q 318 701 357 720 q 257 647 279 682 q 236 566 236 612 q 257 484 236 519 q 317 429 278 448 q 408 410 355 410 q 497 428 458 410 q 558 480 536 447 q 581 555 581 513 q 559 640 581 603 q 499 699 538 677 q 408 720 460 720 z "}," ":{"ha":833,"x_min":0,"x_max":0,"o":""},"A":{"ha":833,"x_min":68,"x_max":762,"o":"m 758 57 q 762 36 762 45 q 753 14 762 23 q 724 -1 744 5 q 696 -7 706 -7 q 674 1 683 -7 q 660 24 665 8 l 586 224 l 244 224 l 170 24 q 156 1 165 8 q 134 -7 147 -7 q 106 -1 124 -7 q 77 14 86 5 q 68 36 68 23 q 72 57 68 45 l 339 776 q 366 810 348 800 q 415 820 383 820 q 465 810 447 820 q 491 776 482 800 l 758 57 m 279 321 l 550 321 l 416 707 l 414 707 l 279 321 z "},"Á":{"ha":833,"x_min":68,"x_max":762,"o":"m 371 894 q 349 887 359 887 q 318 904 333 887 q 302 939 302 922 q 313 960 302 952 l 549 1134 q 574 1143 561 1143 q 619 1115 597 1143 q 640 1069 640 1088 q 625 1042 640 1051 l 371 894 m 758 57 q 762 36 762 45 q 753 14 762 23 q 724 -1 744 5 q 696 -7 706 -7 q 674 1 683 -7 q 660 24 665 8 l 586 224 l 244 224 l 170 24 q 156 1 165 8 q 134 -7 147 -7 q 106 -1 124 -7 q 77 14 86 5 q 68 36 68 23 q 72 57 68 45 l 339 776 q 366 810 348 800 q 415 820 383 820 q 465 810 447 820 q 491 776 482 800 l 758 57 m 279 321 l 550 321 l 416 707 l 414 707 l 279 321 z "},"Ă":{"ha":833,"x_min":68,"x_max":762,"o":"m 416 909 q 267 951 323 909 q 195 1070 210 994 q 194 1079 194 1074 q 203 1100 194 1092 q 231 1112 212 1107 q 250 1114 241 1114 q 279 1097 273 1114 q 328 1026 294 1049 q 416 1003 362 1003 q 505 1026 471 1003 q 554 1097 539 1049 q 583 1114 560 1114 q 602 1112 592 1114 q 630 1100 621 1107 q 639 1079 639 1092 q 638 1070 639 1074 q 566 951 623 994 q 416 909 509 909 m 758 57 q 762 36 762 45 q 753 14 762 23 q 724 -1 744 5 q 696 -7 706 -7 q 674 1 683 -7 q 660 24 665 8 l 586 224 l 244 224 l 170 24 q 156 1 165 8 q 134 -7 147 -7 q 106 -1 124 -7 q 77 14 86 5 q 68 36 68 23 q 72 57 68 45 l 339 776 q 366 810 348 800 q 415 820 383 820 q 465 810 447 820 q 491 776 482 800 l 758 57 m 279 321 l 550 321 l 416 707 l 414 707 l 279 321 z "},"Â":{"ha":833,"x_min":68,"x_max":762,"o":"m 267 896 q 245 888 256 888 q 216 904 230 888 q 200 936 200 922 q 211 958 200 948 l 377 1116 q 416 1130 392 1130 q 456 1116 441 1130 l 622 958 q 633 936 633 948 q 617 904 633 922 q 587 888 603 888 q 566 896 576 888 l 416 1013 l 267 896 m 758 57 q 762 36 762 45 q 753 14 762 23 q 724 -1 744 5 q 696 -7 706 -7 q 674 1 683 -7 q 660 24 665 8 l 586 224 l 244 224 l 170 24 q 156 1 165 8 q 134 -7 147 -7 q 106 -1 124 -7 q 77 14 86 5 q 68 36 68 23 q 72 57 68 45 l 339 776 q 366 810 348 800 q 415 820 383 820 q 465 810 447 820 q 491 776 482 800 l 758 57 m 279 321 l 550 321 l 416 707 l 414 707 l 279 321 z "},"Ä":{"ha":833,"x_min":68,"x_max":762,"o":"m 273 931 q 222 941 235 931 q 208 975 208 951 l 208 1063 q 222 1098 208 1088 q 273 1107 235 1107 q 323 1098 310 1107 q 337 1063 337 1088 l 337 975 q 323 941 337 951 q 273 931 310 931 m 557 931 q 507 941 520 931 q 493 975 493 951 l 493 1063 q 507 1098 493 1088 q 557 1107 520 1107 q 608 1098 595 1107 q 622 1063 622 1088 l 622 975 q 608 941 622 951 q 557 931 595 931 m 758 57 q 762 36 762 45 q 753 14 762 23 q 724 -1 744 5 q 696 -7 706 -7 q 674 1 683 -7 q 660 24 665 8 l 586 224 l 244 224 l 170 24 q 156 1 165 8 q 134 -7 147 -7 q 106 -1 124 -7 q 77 14 86 5 q 68 36 68 23 q 72 57 68 45 l 339 776 q 366 810 348 800 q 415 820 383 820 q 465 810 447 820 q 491 776 482 800 l 758 57 m 279 321 l 550 321 l 416 707 l 414 707 l 279 321 z "},"À":{"ha":833,"x_min":68,"x_max":762,"o":"m 208 1042 q 193 1069 193 1051 q 214 1115 193 1088 q 259 1143 236 1143 q 284 1134 272 1143 l 520 960 q 531 939 531 952 q 515 904 531 922 q 484 887 500 887 q 462 894 474 887 l 208 1042 m 758 57 q 762 36 762 45 q 753 14 762 23 q 724 -1 744 5 q 696 -7 706 -7 q 674 1 683 -7 q 660 24 665 8 l 586 224 l 244 224 l 170 24 q 156 1 165 8 q 134 -7 147 -7 q 106 -1 124 -7 q 77 14 86 5 q 68 36 68 23 q 72 57 68 45 l 339 776 q 366 810 348 800 q 415 820 383 820 q 465 810 447 820 q 491 776 482 800 l 758 57 m 279 321 l 550 321 l 416 707 l 414 707 l 279 321 z "},"Ā":{"ha":833,"x_min":68,"x_max":762,"o":"m 239 933 q 207 944 216 933 q 197 982 197 956 q 207 1020 197 1008 q 239 1031 216 1031 l 593 1031 q 626 1020 616 1031 q 636 982 636 1008 q 626 944 636 956 q 593 933 616 933 l 239 933 m 758 57 q 762 36 762 45 q 753 14 762 23 q 724 -1 744 5 q 696 -7 706 -7 q 674 1 683 -7 q 660 24 665 8 l 586 224 l 244 224 l 170 24 q 156 1 165 8 q 134 -7 147 -7 q 106 -1 124 -7 q 77 14 86 5 q 68 36 68 23 q 72 57 68 45 l 339 776 q 366 810 348 800 q 415 820 383 820 q 465 810 447 820 q 491 776 482 800 l 758 57 m 279 321 l 550 321 l 416 707 l 414 707 l 279 321 z "},"Ą":{"ha":833,"x_min":68,"x_max":789,"o":"m 415 820 q 465 810 447 820 q 491 776 482 800 l 758 57 q 762 36 762 45 q 753 14 762 22 q 655 -93 684 -48 q 625 -176 625 -137 q 640 -213 625 -200 q 677 -226 654 -226 q 754 -214 713 -226 q 762 -213 760 -213 q 788 -250 782 -213 q 789 -267 789 -262 q 784 -290 789 -281 q 766 -302 778 -298 q 655 -320 715 -320 q 556 -285 592 -320 q 519 -191 519 -250 q 555 -80 519 -134 q 659 28 591 -27 l 586 224 l 244 224 l 170 24 q 156 1 165 8 q 134 -7 147 -7 q 106 -1 124 -7 q 77 14 86 5 q 68 36 68 23 q 72 57 68 45 l 339 776 q 366 810 348 800 q 415 820 383 820 m 414 707 l 279 321 l 550 321 l 416 707 l 414 707 z "},"Å":{"ha":833,"x_min":68,"x_max":762,"o":"m 416 885 q 331 907 370 885 q 271 967 293 928 q 250 1052 250 1005 q 271 1137 250 1099 q 331 1197 293 1175 q 416 1219 370 1219 q 502 1197 463 1219 q 562 1137 540 1175 q 583 1052 583 1099 q 562 967 583 1005 q 502 907 540 928 q 416 885 463 885 m 416 1129 q 360 1108 381 1129 q 339 1052 339 1087 q 360 996 339 1017 q 416 975 381 975 q 473 996 452 975 q 494 1052 494 1017 q 473 1108 494 1087 q 416 1129 452 1129 m 758 57 q 762 36 762 45 q 753 14 762 23 q 724 -1 744 5 q 696 -7 706 -7 q 674 1 683 -7 q 660 24 665 8 l 586 224 l 244 224 l 170 24 q 156 1 165 8 q 134 -7 147 -7 q 106 -1 124 -7 q 77 14 86 5 q 68 36 68 23 q 72 57 68 45 l 339 776 q 366 810 348 800 q 415 820 383 820 q 465 810 447 820 q 491 776 482 800 l 758 57 m 279 321 l 550 321 l 416 707 l 414 707 l 279 321 z "},"Ã":{"ha":833,"x_min":68,"x_max":762,"o":"m 249 928 q 229 920 241 920 q 197 937 212 920 q 183 967 183 951 q 193 991 183 980 q 262 1054 225 1034 q 335 1075 299 1075 q 378 1068 359 1075 q 425 1050 397 1062 q 465 1033 448 1038 q 498 1027 481 1027 q 541 1039 520 1027 q 584 1074 562 1050 q 604 1082 592 1082 q 635 1065 621 1082 q 650 1034 650 1050 q 640 1010 650 1021 q 571 947 608 968 q 498 926 534 926 q 455 933 474 926 q 408 951 435 939 q 368 968 385 963 q 334 974 352 974 q 292 962 313 974 q 249 928 271 951 m 758 57 q 762 36 762 45 q 753 14 762 23 q 724 -1 744 5 q 696 -7 706 -7 q 674 1 683 -7 q 660 24 665 8 l 586 224 l 244 224 l 170 24 q 156 1 165 8 q 134 -7 147 -7 q 106 -1 124 -7 q 77 14 86 5 q 68 36 68 23 q 72 57 68 45 l 339 776 q 366 810 348 800 q 415 820 383 820 q 465 810 447 820 q 491 776 482 800 l 758 57 m 279 321 l 550 321 l 416 707 l 414 707 l 279 321 z "},"Æ":{"ha":833,"x_min":14,"x_max":793,"o":"m 751 98 q 784 86 774 98 q 793 49 793 75 q 784 11 793 22 q 751 0 774 0 l 433 0 q 400 11 410 0 q 390 46 390 21 l 390 251 l 204 251 l 116 24 q 101 1 110 8 q 79 -7 92 -7 q 52 -1 69 -7 q 23 14 32 5 q 14 35 14 22 q 18 57 14 45 l 292 759 q 315 794 301 784 q 352 805 329 805 l 737 805 q 770 794 760 805 q 780 756 780 783 q 770 719 780 730 q 737 707 760 707 l 492 707 l 492 464 l 707 464 q 740 453 730 464 q 749 415 749 441 q 740 377 749 389 q 707 366 730 366 l 492 366 l 492 98 l 751 98 m 390 349 l 390 707 l 373 707 l 241 349 l 390 349 z "},"B":{"ha":833,"x_min":139,"x_max":728,"o":"m 437 805 q 572 777 516 805 q 655 699 627 749 q 684 582 684 648 q 660 488 684 528 q 593 422 636 448 q 693 349 658 398 q 728 228 728 300 q 698 105 728 157 q 609 27 667 54 q 468 0 551 0 l 182 0 q 149 11 159 0 q 139 46 139 21 l 139 759 q 149 794 139 784 q 182 805 159 805 l 437 805 m 241 707 l 241 458 l 422 458 q 539 490 500 458 q 579 582 579 522 q 422 707 579 707 l 241 707 m 241 360 l 241 98 l 454 98 q 579 131 535 98 q 624 228 624 163 q 580 327 624 294 q 451 360 536 360 l 241 360 z "},"C":{"ha":833,"x_min":102,"x_max":728,"o":"m 450 820 q 580 803 518 820 q 703 751 642 787 q 728 713 728 736 q 720 681 728 701 q 684 651 705 651 q 661 659 674 651 q 450 720 558 720 q 322 681 377 720 q 236 571 267 642 q 206 403 206 499 q 236 235 206 307 q 322 124 267 163 q 450 85 377 85 q 661 146 558 85 q 684 154 674 154 q 720 124 705 154 q 728 92 728 104 q 703 54 728 68 q 580 2 642 18 q 450 -15 518 -15 q 268 37 347 -15 q 145 184 189 89 q 102 403 102 279 q 145 622 102 527 q 268 768 189 716 q 450 820 347 820 z "},"Ć":{"ha":833,"x_min":102,"x_max":728,"o":"m 564 1134 q 589 1143 576 1143 q 634 1115 612 1143 q 654 1069 654 1088 q 640 1042 654 1051 l 386 894 q 364 887 374 887 q 333 904 348 887 q 317 939 317 922 q 328 960 317 952 l 564 1134 m 450 820 q 580 803 518 820 q 703 751 642 787 q 728 713 728 736 q 720 681 728 701 q 684 651 705 651 q 661 659 674 651 q 450 720 558 720 q 322 681 377 720 q 236 571 267 642 q 206 403 206 499 q 236 235 206 307 q 322 124 267 163 q 450 85 377 85 q 661 146 558 85 q 684 154 674 154 q 720 124 705 154 q 728 92 728 104 q 703 54 728 68 q 580 2 642 18 q 450 -15 518 -15 q 268 37 347 -15 q 145 184 189 89 q 102 403 102 279 q 145 622 102 527 q 268 768 189 716 q 450 820 347 820 z "},"Č":{"ha":833,"x_min":102,"x_max":728,"o":"m 450 889 q 411 903 426 889 l 245 1061 q 234 1083 234 1071 q 250 1115 234 1097 q 279 1131 264 1131 q 300 1123 290 1131 l 450 1006 l 600 1123 q 621 1131 610 1131 q 651 1115 637 1131 q 667 1083 667 1097 q 656 1061 667 1071 l 490 903 q 450 889 475 889 m 450 820 q 580 803 518 820 q 703 751 642 787 q 728 713 728 736 q 720 681 728 701 q 684 651 705 651 q 661 659 674 651 q 450 720 558 720 q 322 681 377 720 q 236 571 267 642 q 206 403 206 499 q 236 235 206 307 q 322 124 267 163 q 450 85 377 85 q 661 146 558 85 q 684 154 674 154 q 720 124 705 154 q 728 92 728 104 q 703 54 728 68 q 580 2 642 18 q 450 -15 518 -15 q 268 37 347 -15 q 145 184 189 89 q 102 403 102 279 q 145 622 102 527 q 268 768 189 716 q 450 820 347 820 z "},"Ç":{"ha":833,"x_min":102,"x_max":728,"o":"m 661 146 q 684 154 674 154 q 720 124 705 154 q 728 92 728 104 q 703 54 728 68 q 494 -13 602 -5 l 494 -77 q 597 -108 562 -76 q 631 -191 631 -140 q 589 -285 631 -250 q 465 -320 547 -320 q 376 -312 419 -320 q 298 -288 332 -304 q 282 -264 282 -281 q 288 -240 282 -254 q 319 -210 299 -210 q 328 -211 324 -210 q 392 -229 357 -222 q 458 -237 427 -237 q 513 -225 493 -237 q 532 -193 532 -214 q 514 -160 532 -171 q 454 -149 496 -149 l 427 -150 q 411 -143 417 -150 q 404 -120 404 -136 l 404 -12 q 244 54 313 -1 q 139 198 176 109 q 102 403 102 288 q 145 622 102 527 q 268 768 189 716 q 450 820 347 820 q 580 803 518 820 q 703 751 642 787 q 728 713 728 736 q 720 681 728 701 q 684 651 705 651 q 661 659 674 651 q 450 720 558 720 q 322 681 377 720 q 236 571 267 642 q 206 403 206 499 q 236 235 206 307 q 322 124 267 163 q 450 85 377 85 q 661 146 558 85 z "},"Ĉ":{"ha":833,"x_min":102,"x_max":728,"o":"m 450 1130 q 490 1116 475 1130 l 656 958 q 667 936 667 948 q 651 904 667 922 q 621 888 637 888 q 600 896 610 888 l 450 1013 l 300 896 q 279 888 290 888 q 250 904 264 888 q 234 936 234 922 q 245 958 234 948 l 411 1116 q 450 1130 426 1130 m 450 820 q 580 803 518 820 q 703 751 642 787 q 728 713 728 736 q 720 681 728 701 q 684 651 705 651 q 661 659 674 651 q 450 720 558 720 q 322 681 377 720 q 236 571 267 642 q 206 403 206 499 q 236 235 206 307 q 322 124 267 163 q 450 85 377 85 q 661 146 558 85 q 684 154 674 154 q 720 124 705 154 q 728 92 728 104 q 703 54 728 68 q 580 2 642 18 q 450 -15 518 -15 q 268 37 347 -15 q 145 184 189 89 q 102 403 102 279 q 145 622 102 527 q 268 768 189 716 q 450 820 347 820 z "},"Ċ":{"ha":833,"x_min":102,"x_max":728,"o":"m 450 1107 q 501 1098 488 1107 q 515 1063 515 1088 l 515 975 q 501 941 515 951 q 450 931 488 931 q 399 941 413 931 q 386 975 386 951 l 386 1063 q 399 1098 386 1088 q 450 1107 413 1107 m 450 820 q 580 803 518 820 q 703 751 642 787 q 728 713 728 736 q 720 681 728 701 q 684 651 705 651 q 661 659 674 651 q 450 720 558 720 q 322 681 377 720 q 236 571 267 642 q 206 403 206 499 q 236 235 206 307 q 322 124 267 163 q 450 85 377 85 q 661 146 558 85 q 684 154 674 154 q 720 124 705 154 q 728 92 728 104 q 703 54 728 68 q 580 2 642 18 q 450 -15 518 -15 q 268 37 347 -15 q 145 184 189 89 q 102 403 102 279 q 145 622 102 527 q 268 768 189 716 q 450 820 347 820 z "},"D":{"ha":833,"x_min":119,"x_max":746,"o":"m 389 805 q 576 756 496 805 q 702 617 657 708 q 746 402 746 526 q 702 188 746 279 q 576 48 657 97 q 389 0 496 0 l 161 0 q 129 11 138 0 q 119 46 119 21 l 119 759 q 129 794 119 784 q 161 805 138 805 l 389 805 m 220 707 l 220 98 l 376 98 q 517 132 458 98 q 609 235 576 166 q 642 402 642 303 q 609 570 642 501 q 517 673 576 638 q 376 707 458 707 l 220 707 z "},"Ð":{"ha":833,"x_min":34,"x_max":760,"o":"m 403 805 q 590 756 509 805 q 715 617 671 708 q 760 402 760 526 q 715 188 760 279 q 590 48 671 97 q 403 0 509 0 l 195 0 q 162 11 172 0 q 153 46 153 21 l 153 366 l 77 366 q 44 377 54 366 q 34 415 34 389 q 44 453 34 441 q 77 464 54 464 l 153 464 l 153 759 q 162 794 153 784 q 195 805 172 805 l 403 805 m 390 98 q 531 132 471 98 q 623 235 590 166 q 655 402 655 303 q 623 570 655 501 q 531 673 590 638 q 390 707 471 707 l 254 707 l 254 464 l 404 464 q 436 453 427 464 q 446 415 446 441 q 436 377 446 389 q 404 366 427 366 l 254 366 l 254 98 l 390 98 z "},"Ď":{"ha":833,"x_min":119,"x_max":746,"o":"m 396 889 q 357 903 372 889 l 191 1061 q 180 1083 180 1071 q 195 1115 180 1097 q 225 1131 210 1131 q 246 1123 236 1131 l 396 1006 l 546 1123 q 567 1131 556 1131 q 597 1115 583 1131 q 612 1083 612 1097 q 602 1061 612 1071 l 435 903 q 396 889 420 889 m 389 805 q 576 756 496 805 q 702 617 657 708 q 746 402 746 526 q 702 188 746 279 q 576 48 657 97 q 389 0 496 0 l 161 0 q 129 11 138 0 q 119 46 119 21 l 119 759 q 129 794 119 784 q 161 805 138 805 l 389 805 m 220 707 l 220 98 l 376 98 q 517 132 458 98 q 609 235 576 166 q 642 402 642 303 q 609 570 642 501 q 517 673 576 638 q 376 707 458 707 l 220 707 z "},"Đ":{"ha":833,"x_min":119,"x_max":746,"o":"m 573 1031 q 606 1020 596 1031 q 616 982 616 1008 q 606 944 616 956 q 573 933 596 933 l 219 933 q 186 944 196 933 q 176 982 176 956 q 186 1020 176 1008 q 219 1031 196 1031 l 573 1031 m 389 805 q 576 756 496 805 q 702 617 657 708 q 746 402 746 526 q 702 188 746 279 q 576 48 657 97 q 389 0 496 0 l 161 0 q 129 11 138 0 q 119 46 119 21 l 119 759 q 129 794 119 784 q 161 805 138 805 l 389 805 m 220 707 l 220 98 l 376 98 q 517 132 458 98 q 609 235 576 166 q 642 402 642 303 q 609 570 642 501 q 517 673 576 638 q 376 707 458 707 l 220 707 z "},"E":{"ha":833,"x_min":153,"x_max":705,"o":"m 663 98 q 695 86 686 98 q 705 49 705 75 q 695 11 705 22 q 663 0 686 0 l 195 0 q 162 11 172 0 q 153 46 153 21 l 153 759 q 162 794 153 784 q 195 805 172 805 l 649 805 q 682 794 672 805 q 692 756 692 783 q 682 719 692 730 q 649 707 672 707 l 254 707 l 254 464 l 564 464 q 597 453 587 464 q 607 415 607 441 q 597 377 607 389 q 564 366 587 366 l 254 366 l 254 98 l 663 98 z "},"É":{"ha":833,"x_min":153,"x_max":705,"o":"m 330 894 q 309 887 318 887 q 277 904 292 887 q 261 939 261 922 q 272 960 261 952 l 508 1134 q 533 1143 520 1143 q 578 1115 556 1143 q 599 1069 599 1088 q 584 1042 599 1051 l 330 894 m 663 98 q 695 86 686 98 q 705 49 705 75 q 695 11 705 22 q 663 0 686 0 l 195 0 q 162 11 172 0 q 153 46 153 21 l 153 759 q 162 794 153 784 q 195 805 172 805 l 649 805 q 682 794 672 805 q 692 756 692 783 q 682 719 692 730 q 649 707 672 707 l 254 707 l 254 464 l 564 464 q 597 453 587 464 q 607 415 607 441 q 597 377 607 389 q 564 366 587 366 l 254 366 l 254 98 l 663 98 z "},"Ĕ":{"ha":833,"x_min":153,"x_max":705,"o":"m 423 909 q 274 951 330 909 q 201 1070 217 994 q 201 1079 201 1074 q 210 1100 201 1092 q 237 1112 218 1107 q 256 1114 248 1114 q 286 1097 279 1114 q 335 1026 301 1049 q 423 1003 369 1003 q 512 1026 478 1003 q 561 1097 546 1049 q 590 1114 567 1114 q 609 1112 599 1114 q 637 1100 628 1107 q 646 1079 646 1092 q 645 1070 646 1074 q 573 951 629 994 q 423 909 516 909 m 663 98 q 695 86 686 98 q 705 49 705 75 q 695 11 705 22 q 663 0 686 0 l 195 0 q 162 11 172 0 q 153 46 153 21 l 153 759 q 162 794 153 784 q 195 805 172 805 l 649 805 q 682 794 672 805 q 692 756 692 783 q 682 719 692 730 q 649 707 672 707 l 254 707 l 254 464 l 564 464 q 597 453 587 464 q 607 415 607 441 q 597 377 607 389 q 564 366 587 366 l 254 366 l 254 98 l 663 98 z "},"Ě":{"ha":833,"x_min":153,"x_max":705,"o":"m 218 1061 q 207 1083 207 1071 q 222 1115 207 1097 q 252 1131 237 1131 q 273 1123 263 1131 l 423 1006 l 573 1123 q 594 1131 583 1131 q 624 1115 610 1131 q 640 1083 640 1097 q 629 1061 640 1071 l 463 903 q 423 889 448 889 q 384 903 399 889 l 218 1061 m 663 98 q 695 86 686 98 q 705 49 705 75 q 695 11 705 22 q 663 0 686 0 l 195 0 q 162 11 172 0 q 153 46 153 21 l 153 759 q 162 794 153 784 q 195 805 172 805 l 649 805 q 682 794 672 805 q 692 756 692 783 q 682 719 692 730 q 649 707 672 707 l 254 707 l 254 464 l 564 464 q 597 453 587 464 q 607 415 607 441 q 597 377 607 389 q 564 366 587 366 l 254 366 l 254 98 l 663 98 z "},"Ê":{"ha":833,"x_min":153,"x_max":705,"o":"m 287 896 q 266 888 277 888 q 236 904 250 888 q 220 936 220 922 q 231 958 220 948 l 397 1116 q 437 1130 412 1130 q 476 1116 461 1130 l 642 958 q 653 936 653 948 q 637 904 653 922 q 608 888 623 888 q 587 896 597 888 l 437 1013 l 287 896 m 663 98 q 695 86 686 98 q 705 49 705 75 q 695 11 705 22 q 663 0 686 0 l 195 0 q 162 11 172 0 q 153 46 153 21 l 153 759 q 162 794 153 784 q 195 805 172 805 l 649 805 q 682 794 672 805 q 692 756 692 783 q 682 719 692 730 q 649 707 672 707 l 254 707 l 254 464 l 564 464 q 597 453 587 464 q 607 415 607 441 q 597 377 607 389 q 564 366 587 366 l 254 366 l 254 98 l 663 98 z "},"Ë":{"ha":833,"x_min":153,"x_max":705,"o":"m 288 931 q 237 941 250 931 q 223 975 223 951 l 223 1063 q 237 1098 223 1088 q 288 1107 250 1107 q 338 1098 325 1107 q 352 1063 352 1088 l 352 975 q 338 941 352 951 q 288 931 325 931 m 572 931 q 522 941 535 931 q 508 975 508 951 l 508 1063 q 522 1098 508 1088 q 572 1107 535 1107 q 623 1098 610 1107 q 637 1063 637 1088 l 637 975 q 623 941 637 951 q 572 931 610 931 m 663 98 q 695 86 686 98 q 705 49 705 75 q 695 11 705 22 q 663 0 686 0 l 195 0 q 162 11 172 0 q 153 46 153 21 l 153 759 q 162 794 153 784 q 195 805 172 805 l 649 805 q 682 794 672 805 q 692 756 692 783 q 682 719 692 730 q 649 707 672 707 l 254 707 l 254 464 l 564 464 q 597 453 587 464 q 607 415 607 441 q 597 377 607 389 q 564 366 587 366 l 254 366 l 254 98 l 663 98 z "},"Ė":{"ha":833,"x_min":153,"x_max":705,"o":"m 430 931 q 379 941 393 931 q 366 975 366 951 l 366 1063 q 379 1098 366 1088 q 430 1107 393 1107 q 481 1098 467 1107 q 494 1063 494 1088 l 494 975 q 481 941 494 951 q 430 931 467 931 m 663 98 q 695 86 686 98 q 705 49 705 75 q 695 11 705 22 q 663 0 686 0 l 195 0 q 162 11 172 0 q 153 46 153 21 l 153 759 q 162 794 153 784 q 195 805 172 805 l 649 805 q 682 794 672 805 q 692 756 692 783 q 682 719 692 730 q 649 707 672 707 l 254 707 l 254 464 l 564 464 q 597 453 587 464 q 607 415 607 441 q 597 377 607 389 q 564 366 587 366 l 254 366 l 254 98 l 663 98 z "},"È":{"ha":833,"x_min":153,"x_max":705,"o":"m 249 1042 q 234 1069 234 1051 q 254 1115 234 1088 q 300 1143 277 1143 q 325 1134 313 1143 l 561 960 q 572 939 572 952 q 555 904 572 922 q 524 887 541 887 q 503 894 515 887 l 249 1042 m 663 98 q 695 86 686 98 q 705 49 705 75 q 695 11 705 22 q 663 0 686 0 l 195 0 q 162 11 172 0 q 153 46 153 21 l 153 759 q 162 794 153 784 q 195 805 172 805 l 649 805 q 682 794 672 805 q 692 756 692 783 q 682 719 692 730 q 649 707 672 707 l 254 707 l 254 464 l 564 464 q 597 453 587 464 q 607 415 607 441 q 597 377 607 389 q 564 366 587 366 l 254 366 l 254 98 l 663 98 z "},"Ē":{"ha":833,"x_min":153,"x_max":705,"o":"m 246 933 q 213 944 223 933 q 203 982 203 956 q 213 1020 203 1008 q 246 1031 223 1031 l 600 1031 q 633 1020 623 1031 q 643 982 643 1008 q 633 944 643 956 q 600 933 623 933 l 246 933 m 663 98 q 695 86 686 98 q 705 49 705 75 q 695 11 705 22 q 663 0 686 0 l 195 0 q 162 11 172 0 q 153 46 153 21 l 153 759 q 162 794 153 784 q 195 805 172 805 l 649 805 q 682 794 672 805 q 692 756 692 783 q 682 719 692 730 q 649 707 672 707 l 254 707 l 254 464 l 564 464 q 597 453 587 464 q 607 415 607 441 q 597 377 607 389 q 564 366 587 366 l 254 366 l 254 98 l 663 98 z "},"Ę":{"ha":833,"x_min":153,"x_max":711,"o":"m 710 -250 q 711 -267 711 -262 q 706 -290 711 -281 q 688 -302 700 -298 q 577 -320 637 -320 q 478 -285 514 -320 q 441 -191 441 -250 q 469 -94 441 -141 q 547 0 496 -47 l 195 0 q 162 11 172 0 q 153 46 153 21 l 153 759 q 162 794 153 784 q 195 805 172 805 l 649 805 q 682 794 672 805 q 692 756 692 783 q 682 719 692 730 q 649 707 672 707 l 254 707 l 254 464 l 564 464 q 597 453 587 464 q 607 415 607 441 q 597 377 607 389 q 564 366 587 366 l 254 366 l 254 98 l 663 98 q 695 86 686 98 q 705 49 705 75 q 695 11 705 22 q 663 0 686 0 l 660 0 q 573 -98 600 -56 q 547 -176 547 -139 q 562 -213 547 -200 q 600 -226 576 -226 q 676 -214 635 -226 q 684 -213 682 -213 q 710 -250 704 -213 z "},"F":{"ha":833,"x_min":166,"x_max":705,"o":"m 663 805 q 695 794 686 805 q 705 756 705 783 q 695 719 705 730 q 663 707 686 707 l 268 707 l 268 437 l 585 437 q 617 426 608 437 q 627 388 627 414 q 617 350 627 361 q 585 339 608 339 l 268 339 l 268 37 q 257 3 268 14 q 218 -7 245 -7 l 216 -7 q 177 3 189 -7 q 166 37 166 14 l 166 759 q 177 794 166 784 q 209 805 187 805 l 663 805 z "},"G":{"ha":833,"x_min":75,"x_max":734,"o":"m 692 403 q 725 392 715 403 q 734 357 734 382 l 734 97 q 710 50 734 64 q 582 2 654 18 q 430 -15 509 -15 q 243 37 324 -15 q 119 184 163 89 q 75 403 75 279 q 121 621 75 526 q 250 768 168 715 q 437 820 332 820 q 567 805 507 820 q 688 758 628 791 q 714 720 714 744 q 707 688 714 707 q 671 658 693 658 q 648 665 660 658 q 437 720 551 720 q 304 681 363 720 q 213 570 246 642 q 179 403 179 498 q 210 235 179 307 q 298 124 241 163 q 430 85 355 85 q 633 124 549 85 l 633 305 l 452 305 q 419 316 429 305 q 409 354 409 328 q 419 392 409 380 q 452 403 429 403 l 692 403 z "},"Ğ":{"ha":833,"x_min":75,"x_max":734,"o":"m 437 909 q 287 951 344 909 q 215 1070 231 994 q 214 1079 214 1074 q 223 1100 214 1092 q 251 1112 232 1107 q 270 1114 261 1114 q 299 1097 293 1114 q 349 1026 315 1049 q 437 1003 382 1003 q 526 1026 492 1003 q 574 1097 559 1049 q 604 1114 581 1114 q 623 1112 612 1114 q 650 1100 642 1107 q 659 1079 659 1092 q 659 1070 659 1074 q 586 951 643 994 q 437 909 530 909 m 692 403 q 725 392 715 403 q 734 357 734 382 l 734 97 q 710 50 734 64 q 582 2 654 18 q 430 -15 509 -15 q 243 37 324 -15 q 119 184 163 89 q 75 403 75 279 q 121 621 75 526 q 250 768 168 715 q 437 820 332 820 q 567 805 507 820 q 688 758 628 791 q 714 720 714 744 q 707 688 714 707 q 671 658 693 658 q 648 665 660 658 q 437 720 551 720 q 304 681 363 720 q 213 570 246 642 q 179 403 179 498 q 210 235 179 307 q 298 124 241 163 q 430 85 355 85 q 633 124 549 85 l 633 305 l 452 305 q 419 316 429 305 q 409 354 409 328 q 419 392 409 380 q 452 403 429 403 l 692 403 z "},"Ĝ":{"ha":833,"x_min":75,"x_max":734,"o":"m 294 896 q 273 888 283 888 q 243 904 257 888 q 227 936 227 922 q 238 958 227 948 l 404 1116 q 444 1130 419 1130 q 483 1116 468 1130 l 649 958 q 660 936 660 948 q 644 904 660 922 q 614 888 630 888 q 593 896 604 888 l 444 1013 l 294 896 m 692 403 q 725 392 715 403 q 734 357 734 382 l 734 97 q 710 50 734 64 q 582 2 654 18 q 430 -15 509 -15 q 243 37 324 -15 q 119 184 163 89 q 75 403 75 279 q 121 621 75 526 q 250 768 168 715 q 437 820 332 820 q 567 805 507 820 q 688 758 628 791 q 714 720 714 744 q 707 688 714 707 q 671 658 693 658 q 648 665 660 658 q 437 720 551 720 q 304 681 363 720 q 213 570 246 642 q 179 403 179 498 q 210 235 179 307 q 298 124 241 163 q 430 85 355 85 q 633 124 549 85 l 633 305 l 452 305 q 419 316 429 305 q 409 354 409 328 q 419 392 409 380 q 452 403 429 403 l 692 403 z "},"Ģ":{"ha":833,"x_min":75,"x_max":734,"o":"m 692 403 q 725 392 715 403 q 734 357 734 382 l 734 97 q 710 50 734 64 q 582 2 654 18 q 430 -15 509 -15 q 243 37 324 -15 q 119 184 163 89 q 75 403 75 279 q 121 621 75 526 q 250 768 168 715 q 437 820 332 820 q 567 805 507 820 q 688 758 628 791 q 714 720 714 744 q 707 688 714 707 q 671 658 693 658 q 648 665 660 658 q 437 720 551 720 q 304 681 363 720 q 213 570 246 642 q 179 403 179 498 q 210 235 179 307 q 298 124 241 163 q 430 85 355 85 q 633 124 549 85 l 633 305 l 452 305 q 419 316 429 305 q 409 354 409 328 q 419 392 409 380 q 452 403 429 403 l 692 403 m 480 -99 q 499 -117 499 -99 q 495 -134 499 -125 l 416 -331 q 376 -357 406 -357 q 364 -356 368 -357 q 329 -326 329 -351 q 330 -315 329 -323 l 373 -121 q 401 -99 378 -99 l 480 -99 z "},"Ġ":{"ha":833,"x_min":75,"x_max":734,"o":"m 437 931 q 386 941 399 931 q 372 975 372 951 l 372 1063 q 386 1098 372 1088 q 437 1107 399 1107 q 488 1098 474 1107 q 501 1063 501 1088 l 501 975 q 488 941 501 951 q 437 931 474 931 m 692 403 q 725 392 715 403 q 734 357 734 382 l 734 97 q 710 50 734 64 q 582 2 654 18 q 430 -15 509 -15 q 243 37 324 -15 q 119 184 163 89 q 75 403 75 279 q 121 621 75 526 q 250 768 168 715 q 437 820 332 820 q 567 805 507 820 q 688 758 628 791 q 714 720 714 744 q 707 688 714 707 q 671 658 693 658 q 648 665 660 658 q 437 720 551 720 q 304 681 363 720 q 213 570 246 642 q 179 403 179 498 q 210 235 179 307 q 298 124 241 163 q 430 85 355 85 q 633 124 549 85 l 633 305 l 452 305 q 419 316 429 305 q 409 354 409 328 q 419 392 409 380 q 452 403 429 403 l 692 403 z "},"H":{"ha":833,"x_min":119,"x_max":714,"o":"m 664 812 q 703 802 692 812 q 714 768 714 791 l 714 37 q 703 3 714 14 q 664 -7 692 -7 l 663 -7 q 624 3 635 -7 q 612 37 612 14 l 612 366 l 220 366 l 220 37 q 209 3 220 14 q 170 -7 198 -7 l 169 -7 q 130 3 141 -7 q 119 37 119 14 l 119 768 q 130 802 119 791 q 169 812 141 812 l 170 812 q 209 802 198 812 q 220 768 220 791 l 220 464 l 612 464 l 612 768 q 624 802 612 791 q 663 812 635 812 l 664 812 z "},"Ħ":{"ha":833,"x_min":20,"x_max":812,"o":"m 770 661 q 803 649 793 661 q 812 612 812 638 q 803 574 812 585 q 770 563 793 563 l 714 563 l 714 37 q 703 3 714 14 q 664 -7 692 -7 l 663 -7 q 624 3 635 -7 q 612 37 612 14 l 612 366 l 220 366 l 220 37 q 209 3 220 14 q 170 -7 198 -7 l 169 -7 q 130 3 141 -7 q 119 37 119 14 l 119 563 l 63 563 q 30 574 40 563 q 20 612 20 585 q 30 649 20 638 q 63 661 40 661 l 119 661 l 119 768 q 130 802 119 791 q 169 812 141 812 l 170 812 q 209 802 198 812 q 220 768 220 791 l 220 661 l 612 661 l 612 768 q 624 802 612 791 q 663 812 635 812 l 664 812 q 703 802 692 812 q 714 768 714 791 l 714 661 l 770 661 m 612 563 l 220 563 l 220 464 l 612 464 l 612 563 z "},"Ĥ":{"ha":833,"x_min":119,"x_max":714,"o":"m 267 896 q 245 888 256 888 q 216 904 230 888 q 200 936 200 922 q 211 958 200 948 l 377 1116 q 416 1130 392 1130 q 456 1116 441 1130 l 622 958 q 633 936 633 948 q 617 904 633 922 q 587 888 603 888 q 566 896 576 888 l 416 1013 l 267 896 m 664 812 q 703 802 692 812 q 714 768 714 791 l 714 37 q 703 3 714 14 q 664 -7 692 -7 l 663 -7 q 624 3 635 -7 q 612 37 612 14 l 612 366 l 220 366 l 220 37 q 209 3 220 14 q 170 -7 198 -7 l 169 -7 q 130 3 141 -7 q 119 37 119 14 l 119 768 q 130 802 119 791 q 169 812 141 812 l 170 812 q 209 802 198 812 q 220 768 220 791 l 220 464 l 612 464 l 612 768 q 624 802 612 791 q 663 812 635 812 l 664 812 z "},"I":{"ha":833,"x_min":136,"x_max":697,"o":"m 654 98 q 687 86 677 98 q 697 49 697 75 q 687 11 697 22 q 654 0 677 0 l 178 0 q 145 11 155 0 q 136 49 136 22 q 145 86 136 75 q 178 98 155 98 l 366 98 l 366 707 l 192 707 q 159 719 169 707 q 149 756 149 730 q 159 794 149 783 q 192 805 169 805 l 641 805 q 674 794 664 805 q 684 756 684 783 q 674 719 684 730 q 641 707 664 707 l 467 707 l 467 98 l 654 98 z "},"Ĳ":{"ha":833,"x_min":121,"x_max":715,"o":"m 173 812 q 212 802 201 812 q 223 768 223 791 l 223 37 q 212 3 223 14 q 173 -7 201 -7 l 172 -7 q 133 3 144 -7 q 121 37 121 14 l 121 768 q 133 802 121 791 q 172 812 144 812 l 173 812 m 665 812 q 704 802 692 812 q 715 768 715 791 l 715 172 q 667 33 715 81 q 530 -15 619 -15 q 449 -6 492 -15 q 373 19 406 3 q 347 55 347 33 q 354 85 347 66 q 393 118 368 118 q 412 113 401 118 q 469 93 438 100 q 530 85 500 85 q 593 111 573 85 q 613 192 613 136 l 613 768 q 624 802 613 791 q 663 812 635 812 l 665 812 z "},"Í":{"ha":833,"x_min":136,"x_max":697,"o":"m 352 894 q 330 887 340 887 q 299 904 314 887 q 283 939 283 922 q 294 960 283 952 l 530 1134 q 555 1143 542 1143 q 600 1115 578 1143 q 621 1069 621 1088 q 606 1042 621 1051 l 352 894 m 654 98 q 687 86 677 98 q 697 49 697 75 q 687 11 697 22 q 654 0 677 0 l 178 0 q 145 11 155 0 q 136 49 136 22 q 145 86 136 75 q 178 98 155 98 l 366 98 l 366 707 l 192 707 q 159 719 169 707 q 149 756 149 730 q 159 794 149 783 q 192 805 169 805 l 641 805 q 674 794 664 805 q 684 756 684 783 q 674 719 684 730 q 641 707 664 707 l 467 707 l 467 98 l 654 98 z "},"Ĭ":{"ha":833,"x_min":136,"x_max":697,"o":"m 416 909 q 267 951 323 909 q 195 1070 210 994 q 194 1079 194 1074 q 203 1100 194 1092 q 231 1112 212 1107 q 250 1114 241 1114 q 279 1097 273 1114 q 328 1026 294 1049 q 416 1003 362 1003 q 505 1026 471 1003 q 554 1097 539 1049 q 583 1114 560 1114 q 602 1112 592 1114 q 630 1100 621 1107 q 639 1079 639 1092 q 638 1070 639 1074 q 566 951 623 994 q 416 909 509 909 m 654 98 q 687 86 677 98 q 697 49 697 75 q 687 11 697 22 q 654 0 677 0 l 178 0 q 145 11 155 0 q 136 49 136 22 q 145 86 136 75 q 178 98 155 98 l 366 98 l 366 707 l 192 707 q 159 719 169 707 q 149 756 149 730 q 159 794 149 783 q 192 805 169 805 l 641 805 q 674 794 664 805 q 684 756 684 783 q 674 719 684 730 q 641 707 664 707 l 467 707 l 467 98 l 654 98 z "},"Î":{"ha":833,"x_min":136,"x_max":697,"o":"m 267 896 q 245 888 256 888 q 216 904 230 888 q 200 936 200 922 q 211 958 200 948 l 377 1116 q 416 1130 392 1130 q 456 1116 441 1130 l 622 958 q 633 936 633 948 q 617 904 633 922 q 587 888 603 888 q 566 896 576 888 l 416 1013 l 267 896 m 654 98 q 687 86 677 98 q 697 49 697 75 q 687 11 697 22 q 654 0 677 0 l 178 0 q 145 11 155 0 q 136 49 136 22 q 145 86 136 75 q 178 98 155 98 l 366 98 l 366 707 l 192 707 q 159 719 169 707 q 149 756 149 730 q 159 794 149 783 q 192 805 169 805 l 641 805 q 674 794 664 805 q 684 756 684 783 q 674 719 684 730 q 641 707 664 707 l 467 707 l 467 98 l 654 98 z "},"Ï":{"ha":833,"x_min":136,"x_max":697,"o":"m 274 931 q 223 941 237 931 q 210 975 210 951 l 210 1063 q 223 1098 210 1088 q 274 1107 237 1107 q 325 1098 311 1107 q 338 1063 338 1088 l 338 975 q 325 941 338 951 q 274 931 311 931 m 559 931 q 508 941 522 931 q 494 975 494 951 l 494 1063 q 508 1098 494 1088 q 559 1107 522 1107 q 610 1098 596 1107 q 623 1063 623 1088 l 623 975 q 610 941 623 951 q 559 931 596 931 m 654 98 q 687 86 677 98 q 697 49 697 75 q 687 11 697 22 q 654 0 677 0 l 178 0 q 145 11 155 0 q 136 49 136 22 q 145 86 136 75 q 178 98 155 98 l 366 98 l 366 707 l 192 707 q 159 719 169 707 q 149 756 149 730 q 159 794 149 783 q 192 805 169 805 l 641 805 q 674 794 664 805 q 684 756 684 783 q 674 719 684 730 q 641 707 664 707 l 467 707 l 467 98 l 654 98 z "},"İ":{"ha":833,"x_min":136,"x_max":697,"o":"m 416 931 q 366 941 379 931 q 352 975 352 951 l 352 1063 q 366 1098 352 1088 q 416 1107 379 1107 q 467 1098 454 1107 q 481 1063 481 1088 l 481 975 q 467 941 481 951 q 416 931 454 931 m 654 98 q 687 86 677 98 q 697 49 697 75 q 687 11 697 22 q 654 0 677 0 l 178 0 q 145 11 155 0 q 136 49 136 22 q 145 86 136 75 q 178 98 155 98 l 366 98 l 366 707 l 192 707 q 159 719 169 707 q 149 756 149 730 q 159 794 149 783 q 192 805 169 805 l 641 805 q 674 794 664 805 q 684 756 684 783 q 674 719 684 730 q 641 707 664 707 l 467 707 l 467 98 l 654 98 z "},"Ì":{"ha":833,"x_min":136,"x_max":697,"o":"m 227 1042 q 212 1069 212 1051 q 233 1115 212 1088 q 278 1143 255 1143 q 303 1134 291 1143 l 539 960 q 550 939 550 952 q 534 904 550 922 q 503 887 519 887 q 481 894 493 887 l 227 1042 m 654 98 q 687 86 677 98 q 697 49 697 75 q 687 11 697 22 q 654 0 677 0 l 178 0 q 145 11 155 0 q 136 49 136 22 q 145 86 136 75 q 178 98 155 98 l 366 98 l 366 707 l 192 707 q 159 719 169 707 q 149 756 149 730 q 159 794 149 783 q 192 805 169 805 l 641 805 q 674 794 664 805 q 684 756 684 783 q 674 719 684 730 q 641 707 664 707 l 467 707 l 467 98 l 654 98 z "},"Ī":{"ha":833,"x_min":136,"x_max":697,"o":"m 239 933 q 207 944 216 933 q 197 982 197 956 q 207 1020 197 1008 q 239 1031 216 1031 l 593 1031 q 626 1020 616 1031 q 636 982 636 1008 q 626 944 636 956 q 593 933 616 933 l 239 933 m 654 98 q 687 86 677 98 q 697 49 697 75 q 687 11 697 22 q 654 0 677 0 l 178 0 q 145 11 155 0 q 136 49 136 22 q 145 86 136 75 q 178 98 155 98 l 366 98 l 366 707 l 192 707 q 159 719 169 707 q 149 756 149 730 q 159 794 149 783 q 192 805 169 805 l 641 805 q 674 794 664 805 q 684 756 684 783 q 674 719 684 730 q 641 707 664 707 l 467 707 l 467 98 l 654 98 z "},"Į":{"ha":833,"x_min":136,"x_max":697,"o":"m 654 98 q 687 86 677 98 q 697 49 697 75 q 687 11 697 22 q 654 0 677 0 l 470 0 q 384 -98 410 -56 q 357 -176 357 -139 q 372 -213 357 -200 q 410 -226 386 -226 q 486 -214 445 -226 q 494 -213 492 -213 q 520 -250 514 -213 q 522 -267 522 -262 q 516 -290 522 -281 q 498 -302 510 -298 q 387 -320 448 -320 q 288 -285 324 -320 q 252 -191 252 -250 q 279 -94 252 -141 q 357 0 306 -47 l 178 0 q 145 11 155 0 q 136 49 136 22 q 145 86 136 75 q 178 98 155 98 l 366 98 l 366 707 l 192 707 q 159 719 169 707 q 149 756 149 730 q 159 794 149 783 q 192 805 169 805 l 641 805 q 674 794 664 805 q 684 756 684 783 q 674 719 684 730 q 641 707 664 707 l 467 707 l 467 98 l 654 98 z "},"Ĩ":{"ha":833,"x_min":136,"x_max":697,"o":"m 249 928 q 229 920 241 920 q 197 937 212 920 q 183 967 183 951 q 193 991 183 980 q 262 1054 225 1034 q 335 1075 299 1075 q 378 1068 359 1075 q 425 1050 397 1062 q 465 1033 448 1038 q 498 1027 481 1027 q 541 1039 520 1027 q 584 1074 562 1050 q 604 1082 592 1082 q 635 1065 621 1082 q 650 1034 650 1050 q 640 1010 650 1021 q 571 947 608 968 q 498 926 534 926 q 455 933 474 926 q 408 951 435 939 q 368 968 385 963 q 334 974 352 974 q 292 962 313 974 q 249 928 271 951 m 654 98 q 687 86 677 98 q 697 49 697 75 q 687 11 697 22 q 654 0 677 0 l 178 0 q 145 11 155 0 q 136 49 136 22 q 145 86 136 75 q 178 98 155 98 l 366 98 l 366 707 l 192 707 q 159 719 169 707 q 149 756 149 730 q 159 794 149 783 q 192 805 169 805 l 641 805 q 674 794 664 805 q 684 756 684 783 q 674 719 684 730 q 641 707 664 707 l 467 707 l 467 98 l 654 98 z "},"J":{"ha":833,"x_min":125,"x_max":647,"o":"m 604 805 q 636 794 626 805 q 647 759 647 784 l 647 226 q 581 47 647 110 q 394 -15 515 -15 q 261 5 326 -15 q 145 62 196 25 q 125 98 125 78 q 137 134 125 113 q 175 160 155 160 q 199 151 186 160 q 292 102 241 119 q 395 85 342 85 q 545 246 545 85 l 545 707 l 300 707 q 268 719 277 707 q 258 756 258 730 q 268 794 258 783 q 300 805 277 805 l 604 805 z "},"Ĵ":{"ha":833,"x_min":125,"x_max":741,"o":"m 730 958 q 741 936 741 948 q 726 904 741 922 q 696 888 711 888 q 675 896 685 888 l 525 1013 l 375 896 q 354 888 365 888 q 324 904 338 888 q 309 936 309 922 q 319 958 309 948 l 486 1116 q 525 1130 500 1130 q 564 1116 549 1130 l 730 958 m 604 805 q 636 794 626 805 q 647 759 647 784 l 647 226 q 581 47 647 110 q 394 -15 515 -15 q 261 5 326 -15 q 145 62 196 25 q 125 98 125 78 q 137 134 125 113 q 175 160 155 160 q 199 151 186 160 q 292 102 241 119 q 395 85 342 85 q 545 246 545 85 l 545 707 l 300 707 q 268 719 277 707 q 258 756 258 730 q 268 794 258 783 q 300 805 277 805 l 604 805 z "},"K":{"ha":833,"x_min":146,"x_max":743,"o":"m 731 62 q 743 35 743 47 q 713 0 743 16 q 676 -13 691 -13 q 646 4 659 -13 l 366 373 l 248 248 l 248 37 q 236 3 248 14 q 197 -7 225 -7 l 196 -7 q 157 3 168 -7 q 146 37 146 14 l 146 768 q 157 802 146 791 q 196 812 168 812 l 197 812 q 236 802 225 812 q 248 768 248 791 l 248 396 l 635 808 q 662 819 646 819 q 703 805 681 819 q 729 770 729 788 q 714 742 729 757 l 437 448 l 731 62 z "},"Ķ":{"ha":833,"x_min":146,"x_max":743,"o":"m 731 62 q 743 35 743 47 q 713 0 743 16 q 676 -13 691 -13 q 646 4 659 -13 l 366 373 l 248 248 l 248 37 q 236 3 248 14 q 197 -7 225 -7 l 196 -7 q 157 3 168 -7 q 146 37 146 14 l 146 768 q 157 802 146 791 q 196 812 168 812 l 197 812 q 236 802 225 812 q 248 768 248 791 l 248 396 l 635 808 q 662 819 646 819 q 703 805 681 819 q 729 770 729 788 q 714 742 729 757 l 437 448 l 731 62 m 467 -99 q 486 -117 486 -99 q 481 -134 486 -125 l 402 -331 q 362 -357 392 -357 q 351 -356 355 -357 q 315 -326 315 -351 q 317 -315 315 -323 l 359 -121 q 388 -99 365 -99 l 467 -99 z "},"L":{"ha":833,"x_min":166,"x_max":705,"o":"m 663 98 q 695 86 686 98 q 705 49 705 75 q 695 11 705 22 q 663 0 686 0 l 209 0 q 176 11 185 0 q 166 46 166 21 l 166 768 q 177 802 166 791 q 216 812 189 812 l 218 812 q 257 802 245 812 q 268 768 268 791 l 268 98 l 663 98 z "},"Ĺ":{"ha":833,"x_min":153,"x_max":705,"o":"m 222 894 q 200 887 210 887 q 169 904 184 887 q 153 939 153 922 q 163 960 153 952 l 399 1134 q 425 1143 412 1143 q 470 1115 448 1143 q 490 1069 490 1088 q 475 1042 490 1051 l 222 894 m 663 98 q 695 86 686 98 q 705 49 705 75 q 695 11 705 22 q 663 0 686 0 l 209 0 q 176 11 185 0 q 166 46 166 21 l 166 768 q 177 802 166 791 q 216 812 189 812 l 218 812 q 257 802 245 812 q 268 768 268 791 l 268 98 l 663 98 z "},"Ľ":{"ha":833,"x_min":166,"x_max":705,"o":"m 663 98 q 695 86 686 98 q 705 49 705 75 q 695 11 705 22 q 663 0 686 0 l 209 0 q 176 11 185 0 q 166 46 166 21 l 166 768 q 177 802 166 791 q 216 812 189 812 l 218 812 q 257 802 245 812 q 268 768 268 791 l 268 98 l 663 98 m 521 500 q 492 507 502 500 q 481 528 481 515 q 483 538 481 531 l 538 783 q 567 805 544 805 l 647 805 q 661 800 656 805 q 665 787 665 795 q 662 770 665 781 l 571 524 q 521 500 562 500 z "},"Ļ":{"ha":833,"x_min":166,"x_max":705,"o":"m 663 98 q 695 86 686 98 q 705 49 705 75 q 695 11 705 22 q 663 0 686 0 l 209 0 q 176 11 185 0 q 166 46 166 21 l 166 768 q 177 802 166 791 q 216 812 189 812 l 218 812 q 257 802 245 812 q 268 768 268 791 l 268 98 l 663 98 m 467 -99 q 486 -117 486 -99 q 481 -134 486 -125 l 402 -331 q 362 -357 392 -357 q 351 -356 355 -357 q 315 -326 315 -351 q 317 -315 315 -323 l 359 -121 q 388 -99 365 -99 l 467 -99 z "},"Ŀ":{"ha":833,"x_min":166,"x_max":705,"o":"m 663 98 q 695 86 686 98 q 705 49 705 75 q 695 11 705 22 q 663 0 686 0 l 209 0 q 176 11 185 0 q 166 46 166 21 l 166 768 q 177 802 166 791 q 216 812 189 812 l 218 812 q 257 802 245 812 q 268 768 268 791 l 268 98 l 663 98 m 505 402 q 454 412 467 402 q 440 446 440 422 l 440 534 q 454 569 440 559 q 505 578 467 578 q 555 569 542 578 q 569 534 569 559 l 569 446 q 555 412 569 422 q 505 402 542 402 z "},"Ł":{"ha":833,"x_min":41,"x_max":705,"o":"m 663 98 q 695 86 686 98 q 705 49 705 75 q 695 11 705 22 q 663 0 686 0 l 250 0 q 216 11 226 0 q 207 46 207 21 l 207 304 l 115 241 q 87 231 98 231 q 53 256 70 231 q 41 286 41 274 q 62 317 41 303 l 207 416 l 207 768 q 218 802 207 791 q 257 812 229 812 l 258 812 q 297 802 286 812 q 309 768 309 791 l 309 485 l 448 580 q 475 591 465 591 q 510 566 493 591 q 522 535 522 547 q 500 504 522 518 l 309 374 l 309 98 l 663 98 z "},"M":{"ha":833,"x_min":98,"x_max":735,"o":"m 663 812 q 701 802 688 812 q 714 768 713 792 l 734 37 q 724 3 735 14 q 685 -7 713 -7 l 684 -7 q 645 3 656 -7 q 633 37 634 14 l 619 589 l 479 286 q 454 253 468 262 q 416 243 439 243 q 379 253 393 243 q 354 286 365 262 l 214 589 l 199 37 q 188 3 199 14 q 149 -7 177 -7 l 148 -7 q 109 3 120 -7 q 98 37 98 14 l 119 768 q 132 802 119 792 q 170 812 145 812 l 172 812 q 211 801 195 812 q 237 768 226 791 l 416 381 l 596 768 q 623 801 607 791 q 662 812 638 812 l 663 812 z "},"N":{"ha":833,"x_min":119,"x_max":714,"o":"m 665 812 q 703 802 692 812 q 714 768 714 791 l 714 25 q 702 -4 714 7 q 663 -15 689 -15 q 632 -5 645 -15 q 606 22 618 4 l 220 625 l 218 625 l 218 37 q 207 3 218 14 q 169 -7 196 -7 l 168 -7 q 130 3 140 -7 q 119 37 119 14 l 119 768 q 130 802 119 791 q 170 812 142 812 l 188 812 q 230 793 217 812 l 612 195 l 615 195 l 615 768 q 626 802 615 791 q 664 812 637 812 l 665 812 z "},"Ń":{"ha":833,"x_min":119,"x_max":714,"o":"m 528 1134 q 553 1143 541 1143 q 599 1115 576 1143 q 619 1069 619 1088 q 604 1042 619 1051 l 351 894 q 329 887 338 887 q 298 904 313 887 q 281 939 281 922 q 292 960 281 952 l 528 1134 m 665 812 q 703 802 692 812 q 714 768 714 791 l 714 25 q 702 -4 714 7 q 663 -15 689 -15 q 632 -5 645 -15 q 606 22 618 4 l 220 625 l 218 625 l 218 37 q 207 3 218 14 q 169 -7 196 -7 l 168 -7 q 130 3 140 -7 q 119 37 119 14 l 119 768 q 130 802 119 791 q 170 812 142 812 l 188 812 q 230 793 217 812 l 612 195 l 615 195 l 615 768 q 626 802 615 791 q 664 812 637 812 l 665 812 z "},"Ň":{"ha":833,"x_min":119,"x_max":714,"o":"m 423 889 q 384 903 399 889 l 218 1061 q 207 1083 207 1071 q 222 1115 207 1097 q 252 1131 237 1131 q 273 1123 263 1131 l 423 1006 l 573 1123 q 594 1131 583 1131 q 624 1115 610 1131 q 640 1083 640 1097 q 629 1061 640 1071 l 463 903 q 423 889 448 889 m 665 812 q 703 802 692 812 q 714 768 714 791 l 714 25 q 702 -4 714 7 q 663 -15 689 -15 q 632 -5 645 -15 q 606 22 618 4 l 220 625 l 218 625 l 218 37 q 207 3 218 14 q 169 -7 196 -7 l 168 -7 q 130 3 140 -7 q 119 37 119 14 l 119 768 q 130 802 119 791 q 170 812 142 812 l 188 812 q 230 793 217 812 l 612 195 l 615 195 l 615 768 q 626 802 615 791 q 664 812 637 812 l 665 812 z "},"Ņ":{"ha":833,"x_min":119,"x_max":714,"o":"m 665 812 q 703 802 692 812 q 714 768 714 791 l 714 25 q 702 -4 714 7 q 663 -15 689 -15 q 632 -5 645 -15 q 606 22 618 4 l 220 625 l 218 625 l 218 37 q 207 3 218 14 q 169 -7 196 -7 l 168 -7 q 130 3 140 -7 q 119 37 119 14 l 119 768 q 130 802 119 791 q 170 812 142 812 l 188 812 q 230 793 217 812 l 612 195 l 615 195 l 615 768 q 626 802 615 791 q 664 812 637 812 l 665 812 m 473 -99 q 492 -117 492 -99 q 488 -134 492 -125 l 409 -331 q 369 -357 399 -357 q 357 -356 361 -357 q 322 -326 322 -351 q 323 -315 322 -323 l 366 -121 q 395 -99 372 -99 l 473 -99 z "},"Ŋ":{"ha":833,"x_min":119,"x_max":714,"o":"m 665 812 q 703 802 692 812 q 714 768 714 791 l 714 -92 q 666 -230 714 -182 q 529 -278 618 -278 q 449 -269 490 -278 q 372 -244 408 -260 q 346 -209 346 -233 q 353 -180 346 -198 q 391 -148 368 -148 q 410 -152 401 -148 q 530 -179 475 -179 q 592 -154 572 -179 q 612 -73 612 -129 l 612 13 l 220 625 l 218 625 l 218 37 q 207 3 218 14 q 169 -7 196 -7 l 168 -7 q 130 3 140 -7 q 119 37 119 14 l 119 768 q 130 802 119 791 q 170 812 142 812 l 188 812 q 230 793 217 812 l 612 195 l 615 195 l 615 768 q 626 802 615 791 q 664 812 637 812 l 665 812 z "},"Ñ":{"ha":833,"x_min":119,"x_max":714,"o":"m 335 1075 q 378 1068 359 1075 q 425 1050 397 1062 q 465 1033 448 1038 q 498 1027 481 1027 q 541 1039 520 1027 q 584 1074 562 1050 q 604 1082 592 1082 q 635 1065 621 1082 q 650 1034 650 1050 q 640 1010 650 1021 q 571 947 608 968 q 498 926 534 926 q 455 933 474 926 q 408 951 435 939 q 368 968 385 963 q 334 974 352 974 q 292 962 313 974 q 249 928 271 951 q 229 920 241 920 q 197 937 212 920 q 183 967 183 951 q 193 991 183 980 q 262 1054 225 1034 q 335 1075 299 1075 m 665 812 q 703 802 692 812 q 714 768 714 791 l 714 25 q 702 -4 714 7 q 663 -15 689 -15 q 632 -5 645 -15 q 606 22 618 4 l 220 625 l 218 625 l 218 37 q 207 3 218 14 q 169 -7 196 -7 l 168 -7 q 130 3 140 -7 q 119 37 119 14 l 119 768 q 130 802 119 791 q 170 812 142 812 l 188 812 q 230 793 217 812 l 612 195 l 615 195 l 615 768 q 626 802 615 791 q 664 812 637 812 l 665 812 z "},"O":{"ha":833,"x_min":61,"x_max":772,"o":"m 416 820 q 603 768 522 820 q 728 621 684 716 q 772 402 772 526 q 728 183 772 278 q 603 37 684 89 q 416 -15 522 -15 q 230 37 311 -15 q 105 183 149 89 q 61 402 61 278 q 105 621 61 526 q 230 768 149 716 q 416 820 311 820 m 416 720 q 284 681 341 720 q 196 571 227 643 q 165 402 165 499 q 196 234 165 305 q 284 124 227 162 q 416 85 340 85 q 549 124 492 85 q 636 234 606 162 q 667 402 667 305 q 636 571 667 499 q 549 681 606 643 q 416 720 492 720 z "},"Ó":{"ha":833,"x_min":61,"x_max":772,"o":"m 515 1134 q 540 1143 527 1143 q 585 1115 563 1143 q 606 1069 606 1088 q 591 1042 606 1051 l 337 894 q 315 887 325 887 q 284 904 299 887 q 268 939 268 922 q 279 960 268 952 l 515 1134 m 416 820 q 603 768 522 820 q 728 621 684 716 q 772 402 772 526 q 728 183 772 278 q 603 37 684 89 q 416 -15 522 -15 q 230 37 311 -15 q 105 183 149 89 q 61 402 61 278 q 105 621 61 526 q 230 768 149 716 q 416 820 311 820 m 416 720 q 284 681 341 720 q 196 571 227 643 q 165 402 165 499 q 196 234 165 305 q 284 124 227 162 q 416 85 340 85 q 549 124 492 85 q 636 234 606 162 q 667 402 667 305 q 636 571 667 499 q 549 681 606 643 q 416 720 492 720 z "},"Ŏ":{"ha":833,"x_min":61,"x_max":772,"o":"m 602 1112 q 630 1100 621 1107 q 639 1079 639 1092 q 638 1070 639 1074 q 566 951 623 994 q 416 909 509 909 q 267 951 323 909 q 195 1070 210 994 q 194 1079 194 1074 q 203 1100 194 1092 q 231 1112 212 1107 q 250 1114 241 1114 q 279 1097 273 1114 q 328 1026 294 1049 q 416 1003 362 1003 q 505 1026 471 1003 q 554 1097 539 1049 q 583 1114 560 1114 q 602 1112 592 1114 m 416 820 q 603 768 522 820 q 728 621 684 716 q 772 402 772 526 q 728 183 772 278 q 603 37 684 89 q 416 -15 522 -15 q 230 37 311 -15 q 105 183 149 89 q 61 402 61 278 q 105 621 61 526 q 230 768 149 716 q 416 820 311 820 m 416 720 q 284 681 341 720 q 196 571 227 643 q 165 402 165 499 q 196 234 165 305 q 284 124 227 162 q 416 85 340 85 q 549 124 492 85 q 636 234 606 162 q 667 402 667 305 q 636 571 667 499 q 549 681 606 643 q 416 720 492 720 z "},"Ô":{"ha":833,"x_min":61,"x_max":772,"o":"m 416 1130 q 456 1116 441 1130 l 622 958 q 633 936 633 948 q 617 904 633 922 q 587 888 603 888 q 566 896 576 888 l 416 1013 l 267 896 q 245 888 256 888 q 216 904 230 888 q 200 936 200 922 q 211 958 200 948 l 377 1116 q 416 1130 392 1130 m 416 820 q 603 768 522 820 q 728 621 684 716 q 772 402 772 526 q 728 183 772 278 q 603 37 684 89 q 416 -15 522 -15 q 230 37 311 -15 q 105 183 149 89 q 61 402 61 278 q 105 621 61 526 q 230 768 149 716 q 416 820 311 820 m 416 720 q 284 681 341 720 q 196 571 227 643 q 165 402 165 499 q 196 234 165 305 q 284 124 227 162 q 416 85 340 85 q 549 124 492 85 q 636 234 606 162 q 667 402 667 305 q 636 571 667 499 q 549 681 606 643 q 416 720 492 720 z "},"Ö":{"ha":833,"x_min":61,"x_max":772,"o":"m 274 1107 q 325 1098 311 1107 q 338 1063 338 1088 l 338 975 q 325 941 338 951 q 274 931 311 931 q 223 941 237 931 q 210 975 210 951 l 210 1063 q 223 1098 210 1088 q 274 1107 237 1107 m 559 1107 q 610 1098 596 1107 q 623 1063 623 1088 l 623 975 q 610 941 623 951 q 559 931 596 931 q 508 941 522 931 q 494 975 494 951 l 494 1063 q 508 1098 494 1088 q 559 1107 522 1107 m 416 820 q 603 768 522 820 q 728 621 684 716 q 772 402 772 526 q 728 183 772 278 q 603 37 684 89 q 416 -15 522 -15 q 230 37 311 -15 q 105 183 149 89 q 61 402 61 278 q 105 621 61 526 q 230 768 149 716 q 416 820 311 820 m 416 720 q 284 681 341 720 q 196 571 227 643 q 165 402 165 499 q 196 234 165 305 q 284 124 227 162 q 416 85 340 85 q 549 124 492 85 q 636 234 606 162 q 667 402 667 305 q 636 571 667 499 q 549 681 606 643 q 416 720 492 720 z "},"Ò":{"ha":833,"x_min":61,"x_max":772,"o":"m 554 960 q 565 939 565 952 q 549 904 565 922 q 517 887 534 887 q 496 894 508 887 l 242 1042 q 227 1069 227 1051 q 248 1115 227 1088 q 293 1143 270 1143 q 318 1134 306 1143 l 554 960 m 416 820 q 603 768 522 820 q 728 621 684 716 q 772 402 772 526 q 728 183 772 278 q 603 37 684 89 q 416 -15 522 -15 q 230 37 311 -15 q 105 183 149 89 q 61 402 61 278 q 105 621 61 526 q 230 768 149 716 q 416 820 311 820 m 416 720 q 284 681 341 720 q 196 571 227 643 q 165 402 165 499 q 196 234 165 305 q 284 124 227 162 q 416 85 340 85 q 549 124 492 85 q 636 234 606 162 q 667 402 667 305 q 636 571 667 499 q 549 681 606 643 q 416 720 492 720 z "},"Ő":{"ha":833,"x_min":61,"x_max":772,"o":"m 460 1118 q 490 1080 490 1099 q 477 1055 490 1067 l 294 897 q 269 888 283 888 q 235 899 254 888 q 215 927 215 912 q 222 943 215 936 l 382 1114 q 420 1131 398 1131 q 460 1118 439 1131 m 718 1118 q 748 1080 748 1099 q 735 1055 748 1067 l 552 897 q 527 888 541 888 q 493 899 512 888 q 473 927 473 912 q 479 943 473 936 l 640 1114 q 677 1131 656 1131 q 718 1118 696 1131 m 416 820 q 603 768 522 820 q 728 621 684 716 q 772 402 772 526 q 728 183 772 278 q 603 37 684 89 q 416 -15 522 -15 q 230 37 311 -15 q 105 183 149 89 q 61 402 61 278 q 105 621 61 526 q 230 768 149 716 q 416 820 311 820 m 416 720 q 284 681 341 720 q 196 571 227 643 q 165 402 165 499 q 196 234 165 305 q 284 124 227 162 q 416 85 340 85 q 549 124 492 85 q 636 234 606 162 q 667 402 667 305 q 636 571 667 499 q 549 681 606 643 q 416 720 492 720 z "},"Ō":{"ha":833,"x_min":61,"x_max":772,"o":"m 593 1031 q 626 1020 616 1031 q 636 982 636 1008 q 626 944 636 956 q 593 933 616 933 l 239 933 q 207 944 216 933 q 197 982 197 956 q 207 1020 197 1008 q 239 1031 216 1031 l 593 1031 m 416 820 q 603 768 522 820 q 728 621 684 716 q 772 402 772 526 q 728 183 772 278 q 603 37 684 89 q 416 -15 522 -15 q 230 37 311 -15 q 105 183 149 89 q 61 402 61 278 q 105 621 61 526 q 230 768 149 716 q 416 820 311 820 m 416 720 q 284 681 341 720 q 196 571 227 643 q 165 402 165 499 q 196 234 165 305 q 284 124 227 162 q 416 85 340 85 q 549 124 492 85 q 636 234 606 162 q 667 402 667 305 q 636 571 667 499 q 549 681 606 643 q 416 720 492 720 z "},"Ø":{"ha":833,"x_min":61,"x_max":772,"o":"m 680 699 q 748 568 724 644 q 772 402 772 493 q 728 183 772 278 q 603 37 684 89 q 416 -15 522 -15 q 223 41 307 -15 l 171 -34 q 139 -56 155 -56 q 107 -43 127 -56 q 82 -7 82 -26 q 93 20 82 4 l 153 106 q 85 237 109 161 q 61 402 61 312 q 105 621 61 526 q 230 768 149 716 q 416 820 311 820 q 609 764 527 820 l 662 840 q 694 862 677 862 q 726 849 707 862 q 750 814 750 832 q 740 786 750 802 l 680 699 m 165 402 q 215 197 165 279 l 551 680 q 416 720 494 720 q 284 681 341 720 q 196 571 227 643 q 165 402 165 499 m 416 85 q 549 124 492 85 q 636 234 606 162 q 667 402 667 305 q 617 609 667 526 l 281 125 q 416 85 340 85 z "},"Õ":{"ha":833,"x_min":61,"x_max":772,"o":"m 335 1075 q 378 1068 359 1075 q 425 1050 397 1062 q 465 1033 448 1038 q 498 1027 481 1027 q 541 1039 520 1027 q 584 1074 562 1050 q 604 1082 592 1082 q 635 1065 621 1082 q 650 1034 650 1050 q 640 1010 650 1021 q 571 947 608 968 q 498 926 534 926 q 455 933 474 926 q 408 951 435 939 q 368 968 385 963 q 334 974 352 974 q 292 962 313 974 q 249 928 271 951 q 229 920 241 920 q 197 937 212 920 q 183 967 183 951 q 193 991 183 980 q 262 1054 225 1034 q 335 1075 299 1075 m 416 820 q 603 768 522 820 q 728 621 684 716 q 772 402 772 526 q 728 183 772 278 q 603 37 684 89 q 416 -15 522 -15 q 230 37 311 -15 q 105 183 149 89 q 61 402 61 278 q 105 621 61 526 q 230 768 149 716 q 416 820 311 820 m 416 720 q 284 681 341 720 q 196 571 227 643 q 165 402 165 499 q 196 234 165 305 q 284 124 227 162 q 416 85 340 85 q 549 124 492 85 q 636 234 606 162 q 667 402 667 305 q 636 571 667 499 q 549 681 606 643 q 416 720 492 720 z "},"Œ":{"ha":833,"x_min":57,"x_max":774,"o":"m 731 98 q 764 86 754 98 q 774 49 774 75 q 764 11 774 22 q 731 0 754 0 l 414 0 q 226 45 307 -3 q 101 184 145 92 q 57 402 57 276 q 101 620 57 528 q 226 760 145 712 q 414 805 307 808 l 718 805 q 750 794 741 805 q 760 756 760 783 q 750 719 760 730 q 718 707 741 707 l 499 707 l 499 464 l 667 464 q 700 453 690 464 q 709 415 709 441 q 700 377 709 389 q 667 366 690 366 l 499 366 l 499 98 l 731 98 m 161 402 q 191 237 161 305 q 273 132 220 168 q 397 92 326 95 l 397 712 q 273 673 326 709 q 191 568 220 637 q 161 402 161 499 z "},"P":{"ha":833,"x_min":159,"x_max":727,"o":"m 434 805 q 593 771 527 805 q 693 676 659 737 q 727 534 727 615 q 693 394 727 454 q 593 300 659 333 q 434 267 527 267 l 261 267 l 261 37 q 250 3 261 14 q 211 -7 239 -7 l 210 -7 q 171 3 182 -7 q 159 37 159 14 l 159 759 q 169 794 159 784 q 202 805 179 805 l 434 805 m 420 364 q 571 409 519 364 q 623 534 623 453 q 571 662 623 617 q 420 707 519 707 l 261 707 l 261 364 l 420 364 z "},"Þ":{"ha":833,"x_min":159,"x_max":720,"o":"m 461 642 q 602 611 543 642 q 690 527 661 580 q 720 406 720 473 q 690 286 720 338 q 602 202 661 233 q 461 172 544 172 l 261 172 l 261 37 q 250 3 261 14 q 211 -7 239 -7 l 210 -7 q 171 3 182 -7 q 159 37 159 14 l 159 768 q 171 802 159 791 q 210 812 182 812 l 211 812 q 250 802 239 812 q 261 768 261 791 l 261 642 l 461 642 m 447 270 q 570 305 527 270 q 613 406 613 340 q 571 507 613 469 q 447 544 529 544 l 261 544 l 261 270 l 447 270 z "},"Q":{"ha":833,"x_min":61,"x_max":772,"o":"m 680 -37 q 690 -64 690 -52 q 661 -101 690 -83 q 627 -114 641 -114 q 594 -92 608 -114 l 533 3 q 416 -15 479 -15 q 230 37 311 -15 q 105 183 149 89 q 61 402 61 278 q 105 621 61 526 q 230 768 149 716 q 416 820 311 820 q 603 768 522 820 q 728 621 684 716 q 772 402 772 526 q 733 195 772 286 q 623 52 694 105 l 680 -37 m 165 402 q 196 234 165 305 q 284 124 227 162 q 416 85 340 85 q 476 92 449 85 l 405 203 q 395 231 395 220 q 424 269 395 250 q 458 281 444 281 q 490 258 475 281 l 568 138 q 642 246 616 178 q 667 402 667 313 q 636 571 667 499 q 549 681 606 643 q 416 720 492 720 q 284 681 341 720 q 196 571 227 643 q 165 402 165 499 z "},"R":{"ha":833,"x_min":159,"x_max":711,"o":"m 702 60 q 711 34 711 45 q 704 16 711 24 q 680 0 696 7 q 644 -10 656 -10 q 614 9 626 -10 l 412 321 l 261 321 l 261 37 q 250 3 261 14 q 211 -7 239 -7 l 210 -7 q 171 3 182 -7 q 159 37 159 14 l 159 759 q 169 794 159 784 q 202 805 179 805 l 420 805 q 573 775 511 805 q 668 690 636 745 q 700 562 700 635 q 655 414 700 473 q 523 332 610 355 l 702 60 m 261 418 l 406 418 q 595 562 595 418 q 548 670 595 633 q 406 707 501 707 l 261 707 l 261 418 z "},"Ŕ":{"ha":833,"x_min":159,"x_max":711,"o":"m 345 894 q 323 887 333 887 q 292 904 307 887 q 276 939 276 922 q 287 960 276 952 l 523 1134 q 548 1143 535 1143 q 593 1115 571 1143 q 614 1069 614 1088 q 599 1042 614 1051 l 345 894 m 702 60 q 711 34 711 45 q 704 16 711 24 q 680 0 696 7 q 644 -10 656 -10 q 614 9 626 -10 l 412 321 l 261 321 l 261 37 q 250 3 261 14 q 211 -7 239 -7 l 210 -7 q 171 3 182 -7 q 159 37 159 14 l 159 759 q 169 794 159 784 q 202 805 179 805 l 420 805 q 573 775 511 805 q 668 690 636 745 q 700 562 700 635 q 655 414 700 473 q 523 332 610 355 l 702 60 m 261 418 l 406 418 q 595 562 595 418 q 548 670 595 633 q 406 707 501 707 l 261 707 l 261 418 z "},"Ř":{"ha":833,"x_min":159,"x_max":711,"o":"m 204 1061 q 193 1083 193 1071 q 209 1115 193 1097 q 239 1131 223 1131 q 260 1123 250 1131 l 410 1006 l 559 1123 q 581 1131 570 1131 q 610 1115 596 1131 q 626 1083 626 1097 q 615 1061 626 1071 l 449 903 q 410 889 434 889 q 370 903 385 889 l 204 1061 m 702 60 q 711 34 711 45 q 704 16 711 24 q 680 0 696 7 q 644 -10 656 -10 q 614 9 626 -10 l 412 321 l 261 321 l 261 37 q 250 3 261 14 q 211 -7 239 -7 l 210 -7 q 171 3 182 -7 q 159 37 159 14 l 159 759 q 169 794 159 784 q 202 805 179 805 l 420 805 q 573 775 511 805 q 668 690 636 745 q 700 562 700 635 q 655 414 700 473 q 523 332 610 355 l 702 60 m 261 418 l 406 418 q 595 562 595 418 q 548 670 595 633 q 406 707 501 707 l 261 707 l 261 418 z "},"Ŗ":{"ha":833,"x_min":159,"x_max":711,"o":"m 702 60 q 711 34 711 45 q 704 16 711 24 q 680 0 696 7 q 644 -10 656 -10 q 614 9 626 -10 l 412 321 l 261 321 l 261 37 q 250 3 261 14 q 211 -7 239 -7 l 210 -7 q 171 3 182 -7 q 159 37 159 14 l 159 759 q 169 794 159 784 q 202 805 179 805 l 420 805 q 573 775 511 805 q 668 690 636 745 q 700 562 700 635 q 655 414 700 473 q 523 332 610 355 l 702 60 m 261 418 l 406 418 q 595 562 595 418 q 548 670 595 633 q 406 707 501 707 l 261 707 l 261 418 m 473 -99 q 492 -117 492 -99 q 488 -134 492 -125 l 409 -331 q 369 -357 399 -357 q 357 -356 361 -357 q 322 -326 322 -351 q 323 -315 322 -323 l 366 -121 q 395 -99 372 -99 l 473 -99 z "},"S":{"ha":833,"x_min":113,"x_max":720,"o":"m 392 820 q 670 752 551 820 q 694 714 694 738 q 686 681 694 699 q 648 650 672 650 q 626 657 638 650 q 392 720 522 720 q 266 684 311 720 q 221 585 221 648 q 234 539 221 558 q 273 507 248 520 q 328 488 297 495 q 416 470 359 480 q 509 452 472 460 q 581 430 547 444 q 683 355 646 404 q 720 222 720 306 q 687 97 720 151 q 586 15 653 44 q 422 -15 519 -15 q 271 6 345 -15 q 136 64 197 26 q 113 101 113 78 q 123 135 113 117 q 160 165 138 165 q 183 157 172 165 q 296 105 234 125 q 422 85 358 85 q 567 122 517 85 q 616 222 616 159 q 594 290 616 264 q 534 334 573 317 q 477 352 507 345 q 393 369 446 359 q 298 388 336 379 q 228 412 260 397 q 146 477 175 436 q 117 585 117 519 q 151 711 117 658 q 248 792 186 764 q 392 820 311 820 z "},"Ś":{"ha":833,"x_min":113,"x_max":720,"o":"m 515 1134 q 540 1143 527 1143 q 585 1115 563 1143 q 606 1069 606 1088 q 591 1042 606 1051 l 337 894 q 315 887 325 887 q 284 904 299 887 q 268 939 268 922 q 279 960 268 952 l 515 1134 m 392 820 q 670 752 551 820 q 694 714 694 738 q 686 681 694 699 q 648 650 672 650 q 626 657 638 650 q 392 720 522 720 q 266 684 311 720 q 221 585 221 648 q 234 539 221 558 q 273 507 248 520 q 328 488 297 495 q 416 470 359 480 q 509 452 472 460 q 581 430 547 444 q 683 355 646 404 q 720 222 720 306 q 687 97 720 151 q 586 15 653 44 q 422 -15 519 -15 q 271 6 345 -15 q 136 64 197 26 q 113 101 113 78 q 123 135 113 117 q 160 165 138 165 q 183 157 172 165 q 296 105 234 125 q 422 85 358 85 q 567 122 517 85 q 616 222 616 159 q 594 290 616 264 q 534 334 573 317 q 477 352 507 345 q 393 369 446 359 q 298 388 336 379 q 228 412 260 397 q 146 477 175 436 q 117 585 117 519 q 151 711 117 658 q 248 792 186 764 q 392 820 311 820 z "},"Š":{"ha":833,"x_min":113,"x_max":720,"o":"m 413 889 q 374 903 389 889 l 208 1061 q 197 1083 197 1071 q 212 1115 197 1097 q 242 1131 227 1131 q 263 1123 253 1131 l 413 1006 l 563 1123 q 584 1131 573 1131 q 614 1115 600 1131 q 629 1083 629 1097 q 618 1061 629 1071 l 452 903 q 413 889 437 889 m 392 820 q 670 752 551 820 q 694 714 694 738 q 686 681 694 699 q 648 650 672 650 q 626 657 638 650 q 392 720 522 720 q 266 684 311 720 q 221 585 221 648 q 234 539 221 558 q 273 507 248 520 q 328 488 297 495 q 416 470 359 480 q 509 452 472 460 q 581 430 547 444 q 683 355 646 404 q 720 222 720 306 q 687 97 720 151 q 586 15 653 44 q 422 -15 519 -15 q 271 6 345 -15 q 136 64 197 26 q 113 101 113 78 q 123 135 113 117 q 160 165 138 165 q 183 157 172 165 q 296 105 234 125 q 422 85 358 85 q 567 122 517 85 q 616 222 616 159 q 594 290 616 264 q 534 334 573 317 q 477 352 507 345 q 393 369 446 359 q 298 388 336 379 q 228 412 260 397 q 146 477 175 436 q 117 585 117 519 q 151 711 117 658 q 248 792 186 764 q 392 820 311 820 z "},"Ş":{"ha":833,"x_min":113,"x_max":720,"o":"m 720 222 q 691 104 720 155 q 602 22 661 53 q 456 -14 543 -9 l 456 -77 q 559 -108 525 -76 q 594 -191 594 -140 q 552 -285 594 -250 q 428 -320 510 -320 q 338 -312 382 -320 q 260 -288 295 -304 q 245 -264 245 -281 q 250 -240 245 -254 q 281 -210 262 -210 q 290 -211 287 -210 q 354 -229 319 -222 q 421 -237 389 -237 q 475 -225 456 -237 q 495 -193 495 -214 q 477 -160 495 -171 q 416 -149 458 -149 l 390 -150 q 373 -143 380 -150 q 367 -120 367 -136 l 367 -12 q 245 14 304 -6 q 136 64 186 33 q 113 101 113 78 q 123 135 113 117 q 160 165 138 165 q 183 157 172 165 q 296 105 234 125 q 422 85 358 85 q 567 122 517 85 q 616 222 616 159 q 594 290 616 264 q 534 334 573 317 q 477 352 507 345 q 393 369 446 359 q 298 388 336 379 q 228 412 260 397 q 146 477 175 436 q 117 585 117 519 q 151 711 117 658 q 248 792 186 764 q 392 820 311 820 q 670 752 551 820 q 694 714 694 738 q 686 681 694 699 q 648 650 672 650 q 626 657 638 650 q 392 720 522 720 q 266 684 311 720 q 221 585 221 648 q 234 539 221 558 q 273 507 248 520 q 328 488 297 495 q 416 470 359 480 q 509 452 472 460 q 581 430 547 444 q 683 355 646 404 q 720 222 720 306 z "},"Ŝ":{"ha":833,"x_min":113,"x_max":720,"o":"m 420 1130 q 460 1116 445 1130 l 626 958 q 637 936 637 948 q 621 904 637 922 q 591 888 607 888 q 570 896 581 888 l 420 1013 l 271 896 q 250 888 260 888 q 220 904 234 888 q 204 936 204 922 q 215 958 204 948 l 381 1116 q 420 1130 396 1130 m 392 820 q 670 752 551 820 q 694 714 694 738 q 686 681 694 699 q 648 650 672 650 q 626 657 638 650 q 392 720 522 720 q 266 684 311 720 q 221 585 221 648 q 234 539 221 558 q 273 507 248 520 q 328 488 297 495 q 416 470 359 480 q 509 452 472 460 q 581 430 547 444 q 683 355 646 404 q 720 222 720 306 q 687 97 720 151 q 586 15 653 44 q 422 -15 519 -15 q 271 6 345 -15 q 136 64 197 26 q 113 101 113 78 q 123 135 113 117 q 160 165 138 165 q 183 157 172 165 q 296 105 234 125 q 422 85 358 85 q 567 122 517 85 q 616 222 616 159 q 594 290 616 264 q 534 334 573 317 q 477 352 507 345 q 393 369 446 359 q 298 388 336 379 q 228 412 260 397 q 146 477 175 436 q 117 585 117 519 q 151 711 117 658 q 248 792 186 764 q 392 820 311 820 z "},"Ș":{"ha":833,"x_min":113,"x_max":720,"o":"m 392 820 q 670 752 551 820 q 694 714 694 738 q 686 681 694 699 q 648 650 672 650 q 626 657 638 650 q 392 720 522 720 q 266 684 311 720 q 221 585 221 648 q 234 539 221 558 q 273 507 248 520 q 328 488 297 495 q 416 470 359 480 q 509 452 472 460 q 581 430 547 444 q 683 355 646 404 q 720 222 720 306 q 687 97 720 151 q 586 15 653 44 q 422 -15 519 -15 q 271 6 345 -15 q 136 64 197 26 q 113 101 113 78 q 123 135 113 117 q 160 165 138 165 q 183 157 172 165 q 296 105 234 125 q 422 85 358 85 q 567 122 517 85 q 616 222 616 159 q 594 290 616 264 q 534 334 573 317 q 477 352 507 345 q 393 369 446 359 q 298 388 336 379 q 228 412 260 397 q 146 477 175 436 q 117 585 117 519 q 151 711 117 658 q 248 792 186 764 q 392 820 311 820 m 463 -99 q 481 -117 481 -99 q 477 -134 481 -125 l 398 -331 q 358 -357 388 -357 q 347 -356 351 -357 q 311 -326 311 -351 q 313 -315 311 -323 l 355 -121 q 384 -99 361 -99 l 463 -99 z "},"T":{"ha":833,"x_min":83,"x_max":750,"o":"m 707 805 q 740 794 730 805 q 750 756 750 783 q 740 719 750 730 q 707 707 730 707 l 467 707 l 467 37 q 456 3 467 14 q 417 -7 445 -7 l 416 -7 q 377 3 388 -7 q 366 37 366 14 l 366 707 l 125 707 q 93 719 102 707 q 83 756 83 730 q 93 794 83 783 q 125 805 102 805 l 707 805 z "},"Ŧ":{"ha":833,"x_min":83,"x_max":750,"o":"m 707 805 q 740 794 730 805 q 750 756 750 783 q 740 719 750 730 q 707 707 730 707 l 467 707 l 467 400 l 607 400 q 640 389 630 400 q 650 351 650 378 q 640 314 650 325 q 607 302 630 302 l 467 302 l 467 37 q 456 3 467 14 q 417 -7 445 -7 l 416 -7 q 377 3 388 -7 q 366 37 366 14 l 366 302 l 226 302 q 193 314 203 302 q 183 351 183 325 q 193 389 183 378 q 226 400 203 400 l 366 400 l 366 707 l 125 707 q 93 719 102 707 q 83 756 83 730 q 93 794 83 783 q 125 805 102 805 l 707 805 z "},"Ť":{"ha":833,"x_min":83,"x_max":750,"o":"m 211 1061 q 200 1083 200 1071 q 216 1115 200 1097 q 245 1131 230 1131 q 267 1123 256 1131 l 416 1006 l 566 1123 q 587 1131 576 1131 q 617 1115 603 1131 q 633 1083 633 1097 q 622 1061 633 1071 l 456 903 q 416 889 441 889 q 377 903 392 889 l 211 1061 m 707 805 q 740 794 730 805 q 750 756 750 783 q 740 719 750 730 q 707 707 730 707 l 467 707 l 467 37 q 456 3 467 14 q 417 -7 445 -7 l 416 -7 q 377 3 388 -7 q 366 37 366 14 l 366 707 l 125 707 q 93 719 102 707 q 83 756 83 730 q 93 794 83 783 q 125 805 102 805 l 707 805 z "},"Ţ":{"ha":833,"x_min":83,"x_max":750,"o":"m 707 805 q 740 794 730 805 q 750 756 750 783 q 740 719 750 730 q 707 707 730 707 l 467 707 l 467 37 q 461 9 467 20 l 461 -77 q 564 -108 530 -76 q 599 -191 599 -140 q 557 -285 599 -250 q 433 -320 515 -320 q 343 -312 387 -320 q 265 -288 300 -304 q 250 -264 250 -281 q 255 -240 250 -254 q 286 -210 267 -210 q 295 -211 292 -210 q 359 -229 324 -222 q 426 -237 394 -237 q 480 -225 460 -237 q 500 -193 500 -214 q 481 -160 500 -171 q 421 -149 463 -149 l 395 -150 q 378 -143 385 -150 q 372 -120 372 -136 l 372 9 q 366 37 366 20 l 366 707 l 125 707 q 93 719 102 707 q 83 756 83 730 q 93 794 83 783 q 125 805 102 805 l 707 805 z "},"Ț":{"ha":833,"x_min":83,"x_max":750,"o":"m 707 805 q 740 794 730 805 q 750 756 750 783 q 740 719 750 730 q 707 707 730 707 l 467 707 l 467 37 q 456 3 467 14 q 417 -7 445 -7 l 416 -7 q 377 3 388 -7 q 366 37 366 14 l 366 707 l 125 707 q 93 719 102 707 q 83 756 83 730 q 93 794 83 783 q 125 805 102 805 l 707 805 m 467 -99 q 486 -117 486 -99 q 481 -134 486 -125 l 402 -331 q 362 -357 392 -357 q 351 -356 355 -357 q 315 -326 315 -351 q 317 -315 315 -323 l 359 -121 q 388 -99 365 -99 l 467 -99 z "},"U":{"ha":833,"x_min":119,"x_max":714,"o":"m 664 812 q 703 802 692 812 q 714 768 714 791 l 714 280 q 677 119 714 185 q 572 19 640 53 q 416 -15 505 -15 q 260 19 328 -15 q 156 119 193 53 q 119 280 119 185 l 119 768 q 130 802 119 791 q 169 812 141 812 l 170 812 q 209 802 198 812 q 220 768 220 791 l 220 294 q 271 138 220 190 q 416 85 322 85 q 562 138 511 85 q 612 294 612 190 l 612 768 q 624 802 612 791 q 663 812 635 812 l 664 812 z "},"Ú":{"ha":833,"x_min":119,"x_max":714,"o":"m 549 1134 q 574 1143 561 1143 q 619 1115 597 1143 q 640 1069 640 1088 q 625 1042 640 1051 l 371 894 q 349 887 359 887 q 318 904 333 887 q 302 939 302 922 q 313 960 302 952 l 549 1134 m 664 812 q 703 802 692 812 q 714 768 714 791 l 714 280 q 677 119 714 185 q 572 19 640 53 q 416 -15 505 -15 q 260 19 328 -15 q 156 119 193 53 q 119 280 119 185 l 119 768 q 130 802 119 791 q 169 812 141 812 l 170 812 q 209 802 198 812 q 220 768 220 791 l 220 294 q 271 138 220 190 q 416 85 322 85 q 562 138 511 85 q 612 294 612 190 l 612 768 q 624 802 612 791 q 663 812 635 812 l 664 812 z "},"Ŭ":{"ha":833,"x_min":119,"x_max":714,"o":"m 602 1112 q 630 1100 621 1107 q 639 1079 639 1092 q 638 1070 639 1074 q 566 951 623 994 q 416 909 509 909 q 267 951 323 909 q 195 1070 210 994 q 194 1079 194 1074 q 203 1100 194 1092 q 231 1112 212 1107 q 250 1114 241 1114 q 279 1097 273 1114 q 328 1026 294 1049 q 416 1003 362 1003 q 505 1026 471 1003 q 554 1097 539 1049 q 583 1114 560 1114 q 602 1112 592 1114 m 664 812 q 703 802 692 812 q 714 768 714 791 l 714 280 q 677 119 714 185 q 572 19 640 53 q 416 -15 505 -15 q 260 19 328 -15 q 156 119 193 53 q 119 280 119 185 l 119 768 q 130 802 119 791 q 169 812 141 812 l 170 812 q 209 802 198 812 q 220 768 220 791 l 220 294 q 271 138 220 190 q 416 85 322 85 q 562 138 511 85 q 612 294 612 190 l 612 768 q 624 802 612 791 q 663 812 635 812 l 664 812 z "},"Û":{"ha":833,"x_min":119,"x_max":714,"o":"m 416 1130 q 456 1116 441 1130 l 622 958 q 633 936 633 948 q 617 904 633 922 q 587 888 603 888 q 566 896 576 888 l 416 1013 l 267 896 q 245 888 256 888 q 216 904 230 888 q 200 936 200 922 q 211 958 200 948 l 377 1116 q 416 1130 392 1130 m 664 812 q 703 802 692 812 q 714 768 714 791 l 714 280 q 677 119 714 185 q 572 19 640 53 q 416 -15 505 -15 q 260 19 328 -15 q 156 119 193 53 q 119 280 119 185 l 119 768 q 130 802 119 791 q 169 812 141 812 l 170 812 q 209 802 198 812 q 220 768 220 791 l 220 294 q 271 138 220 190 q 416 85 322 85 q 562 138 511 85 q 612 294 612 190 l 612 768 q 624 802 612 791 q 663 812 635 812 l 664 812 z "},"Ü":{"ha":833,"x_min":119,"x_max":714,"o":"m 274 1107 q 325 1098 311 1107 q 338 1063 338 1088 l 338 975 q 325 941 338 951 q 274 931 311 931 q 223 941 237 931 q 210 975 210 951 l 210 1063 q 223 1098 210 1088 q 274 1107 237 1107 m 559 1107 q 610 1098 596 1107 q 623 1063 623 1088 l 623 975 q 610 941 623 951 q 559 931 596 931 q 508 941 522 931 q 494 975 494 951 l 494 1063 q 508 1098 494 1088 q 559 1107 522 1107 m 664 812 q 703 802 692 812 q 714 768 714 791 l 714 280 q 677 119 714 185 q 572 19 640 53 q 416 -15 505 -15 q 260 19 328 -15 q 156 119 193 53 q 119 280 119 185 l 119 768 q 130 802 119 791 q 169 812 141 812 l 170 812 q 209 802 198 812 q 220 768 220 791 l 220 294 q 271 138 220 190 q 416 85 322 85 q 562 138 511 85 q 612 294 612 190 l 612 768 q 624 802 612 791 q 663 812 635 812 l 664 812 z "},"Ù":{"ha":833,"x_min":119,"x_max":714,"o":"m 520 960 q 531 939 531 952 q 515 904 531 922 q 484 887 500 887 q 462 894 474 887 l 208 1042 q 193 1069 193 1051 q 214 1115 193 1088 q 259 1143 236 1143 q 284 1134 272 1143 l 520 960 m 664 812 q 703 802 692 812 q 714 768 714 791 l 714 280 q 677 119 714 185 q 572 19 640 53 q 416 -15 505 -15 q 260 19 328 -15 q 156 119 193 53 q 119 280 119 185 l 119 768 q 130 802 119 791 q 169 812 141 812 l 170 812 q 209 802 198 812 q 220 768 220 791 l 220 294 q 271 138 220 190 q 416 85 322 85 q 562 138 511 85 q 612 294 612 190 l 612 768 q 624 802 612 791 q 663 812 635 812 l 664 812 z "},"Ű":{"ha":833,"x_min":119,"x_max":748,"o":"m 460 1118 q 490 1080 490 1099 q 477 1055 490 1067 l 294 897 q 269 888 283 888 q 235 899 254 888 q 215 927 215 912 q 222 943 215 936 l 382 1114 q 420 1131 398 1131 q 460 1118 439 1131 m 718 1118 q 748 1080 748 1099 q 735 1055 748 1067 l 552 897 q 527 888 541 888 q 493 899 512 888 q 473 927 473 912 q 479 943 473 936 l 640 1114 q 677 1131 656 1131 q 718 1118 696 1131 m 664 812 q 703 802 692 812 q 714 768 714 791 l 714 280 q 677 119 714 185 q 572 19 640 53 q 416 -15 505 -15 q 260 19 328 -15 q 156 119 193 53 q 119 280 119 185 l 119 768 q 130 802 119 791 q 169 812 141 812 l 170 812 q 209 802 198 812 q 220 768 220 791 l 220 294 q 271 138 220 190 q 416 85 322 85 q 562 138 511 85 q 612 294 612 190 l 612 768 q 624 802 612 791 q 663 812 635 812 l 664 812 z "},"Ū":{"ha":833,"x_min":119,"x_max":714,"o":"m 593 1031 q 626 1020 616 1031 q 636 982 636 1008 q 626 944 636 956 q 593 933 616 933 l 239 933 q 207 944 216 933 q 197 982 197 956 q 207 1020 197 1008 q 239 1031 216 1031 l 593 1031 m 664 812 q 703 802 692 812 q 714 768 714 791 l 714 280 q 677 119 714 185 q 572 19 640 53 q 416 -15 505 -15 q 260 19 328 -15 q 156 119 193 53 q 119 280 119 185 l 119 768 q 130 802 119 791 q 169 812 141 812 l 170 812 q 209 802 198 812 q 220 768 220 791 l 220 294 q 271 138 220 190 q 416 85 322 85 q 562 138 511 85 q 612 294 612 190 l 612 768 q 624 802 612 791 q 663 812 635 812 l 664 812 z "},"Ų":{"ha":833,"x_min":119,"x_max":714,"o":"m 664 812 q 703 802 692 812 q 714 768 714 791 l 714 280 q 677 119 714 186 q 572 18 640 53 q 470 -90 500 -45 q 439 -176 439 -136 q 453 -213 439 -200 q 491 -226 467 -226 q 568 -214 526 -226 q 575 -213 573 -213 q 602 -250 595 -213 q 603 -267 603 -262 q 597 -290 603 -281 q 580 -302 591 -298 q 469 -320 529 -320 q 369 -285 406 -320 q 333 -191 333 -250 q 356 -101 333 -144 q 423 -15 379 -58 l 416 -15 q 260 19 328 -15 q 156 119 193 53 q 119 280 119 185 l 119 768 q 130 802 119 791 q 169 812 141 812 l 170 812 q 209 802 198 812 q 220 768 220 791 l 220 294 q 271 138 220 190 q 416 85 322 85 q 562 138 511 85 q 612 294 612 190 l 612 768 q 624 802 612 791 q 663 812 635 812 l 664 812 z "},"Ů":{"ha":833,"x_min":119,"x_max":714,"o":"m 416 1219 q 502 1197 463 1219 q 562 1137 540 1175 q 583 1052 583 1099 q 562 967 583 1005 q 502 907 540 928 q 416 885 463 885 q 331 907 370 885 q 271 967 293 928 q 250 1052 250 1005 q 271 1137 250 1099 q 331 1197 293 1175 q 416 1219 370 1219 m 416 1129 q 360 1108 381 1129 q 339 1052 339 1087 q 360 996 339 1017 q 416 975 381 975 q 473 996 452 975 q 494 1052 494 1017 q 473 1108 494 1087 q 416 1129 452 1129 m 664 812 q 703 802 692 812 q 714 768 714 791 l 714 280 q 677 119 714 185 q 572 19 640 53 q 416 -15 505 -15 q 260 19 328 -15 q 156 119 193 53 q 119 280 119 185 l 119 768 q 130 802 119 791 q 169 812 141 812 l 170 812 q 209 802 198 812 q 220 768 220 791 l 220 294 q 271 138 220 190 q 416 85 322 85 q 562 138 511 85 q 612 294 612 190 l 612 768 q 624 802 612 791 q 663 812 635 812 l 664 812 z "},"Ũ":{"ha":833,"x_min":119,"x_max":714,"o":"m 335 1075 q 378 1068 359 1075 q 425 1050 397 1062 q 465 1033 448 1038 q 498 1027 481 1027 q 541 1039 520 1027 q 584 1074 562 1050 q 604 1082 592 1082 q 635 1065 621 1082 q 650 1034 650 1050 q 640 1010 650 1021 q 571 947 608 968 q 498 926 534 926 q 455 933 474 926 q 408 951 435 939 q 368 968 385 963 q 334 974 352 974 q 292 962 313 974 q 249 928 271 951 q 229 920 241 920 q 197 937 212 920 q 183 967 183 951 q 193 991 183 980 q 262 1054 225 1034 q 335 1075 299 1075 m 664 812 q 703 802 692 812 q 714 768 714 791 l 714 280 q 677 119 714 185 q 572 19 640 53 q 416 -15 505 -15 q 260 19 328 -15 q 156 119 193 53 q 119 280 119 185 l 119 768 q 130 802 119 791 q 169 812 141 812 l 170 812 q 209 802 198 812 q 220 768 220 791 l 220 294 q 271 138 220 190 q 416 85 322 85 q 562 138 511 85 q 612 294 612 190 l 612 768 q 624 802 612 791 q 663 812 635 812 l 664 812 z "},"V":{"ha":833,"x_min":67,"x_max":763,"o":"m 724 806 q 753 791 744 800 q 763 769 763 782 q 758 748 763 762 l 488 29 q 461 -5 479 5 q 415 -15 444 -15 q 369 -5 386 -15 q 342 29 351 5 l 72 748 q 67 769 67 762 q 77 791 67 782 q 106 806 86 800 q 134 812 124 812 q 156 804 147 812 q 170 781 165 797 l 415 123 l 660 781 q 674 804 665 797 q 696 812 683 812 q 724 806 706 812 z "},"W":{"ha":833,"x_min":45,"x_max":782,"o":"m 736 811 q 771 799 760 808 q 782 773 782 790 q 781 761 782 765 l 680 29 q 663 -5 677 5 q 622 -15 649 -15 q 554 29 570 -15 l 414 427 l 273 29 q 205 -15 258 -15 q 164 -5 178 -15 q 147 29 151 5 l 46 761 q 45 773 45 765 q 56 799 45 790 q 92 811 67 808 q 105 812 96 812 q 135 803 125 812 q 147 772 144 793 l 223 175 l 363 573 q 380 593 368 587 q 414 600 392 600 q 447 593 435 600 q 464 573 459 587 l 604 175 l 680 772 q 692 803 683 793 q 722 812 702 812 q 736 811 731 812 z "},"Ẃ":{"ha":833,"x_min":45,"x_max":782,"o":"m 550 1134 q 575 1143 562 1143 q 621 1115 598 1143 q 641 1069 641 1088 q 626 1042 641 1051 l 372 894 q 351 887 360 887 q 319 904 334 887 q 303 939 303 922 q 314 960 303 952 l 550 1134 m 736 811 q 771 799 760 808 q 782 773 782 790 q 781 761 782 765 l 680 29 q 663 -5 677 5 q 622 -15 649 -15 q 554 29 570 -15 l 414 427 l 273 29 q 205 -15 258 -15 q 164 -5 178 -15 q 147 29 151 5 l 46 761 q 45 773 45 765 q 56 799 45 790 q 92 811 67 808 q 105 812 96 812 q 135 803 125 812 q 147 772 144 793 l 223 175 l 363 573 q 380 593 368 587 q 414 600 392 600 q 447 593 435 600 q 464 573 459 587 l 604 175 l 680 772 q 692 803 683 793 q 722 812 702 812 q 736 811 731 812 z "},"Ŵ":{"ha":833,"x_min":45,"x_max":782,"o":"m 416 1130 q 456 1116 441 1130 l 622 958 q 633 936 633 948 q 617 904 633 922 q 587 888 603 888 q 566 896 576 888 l 416 1013 l 267 896 q 245 888 256 888 q 216 904 230 888 q 200 936 200 922 q 211 958 200 948 l 377 1116 q 416 1130 392 1130 m 736 811 q 771 799 760 808 q 782 773 782 790 q 781 761 782 765 l 680 29 q 663 -5 677 5 q 622 -15 649 -15 q 554 29 570 -15 l 414 427 l 273 29 q 205 -15 258 -15 q 164 -5 178 -15 q 147 29 151 5 l 46 761 q 45 773 45 765 q 56 799 45 790 q 92 811 67 808 q 105 812 96 812 q 135 803 125 812 q 147 772 144 793 l 223 175 l 363 573 q 380 593 368 587 q 414 600 392 600 q 447 593 435 600 q 464 573 459 587 l 604 175 l 680 772 q 692 803 683 793 q 722 812 702 812 q 736 811 731 812 z "},"Ẅ":{"ha":833,"x_min":45,"x_max":782,"o":"m 274 1107 q 325 1098 311 1107 q 338 1063 338 1088 l 338 975 q 325 941 338 951 q 274 931 311 931 q 223 941 237 931 q 210 975 210 951 l 210 1063 q 223 1098 210 1088 q 274 1107 237 1107 m 559 1107 q 610 1098 596 1107 q 623 1063 623 1088 l 623 975 q 610 941 623 951 q 559 931 596 931 q 508 941 522 931 q 494 975 494 951 l 494 1063 q 508 1098 494 1088 q 559 1107 522 1107 m 736 811 q 771 799 760 808 q 782 773 782 790 q 781 761 782 765 l 680 29 q 663 -5 677 5 q 622 -15 649 -15 q 554 29 570 -15 l 414 427 l 273 29 q 205 -15 258 -15 q 164 -5 178 -15 q 147 29 151 5 l 46 761 q 45 773 45 765 q 56 799 45 790 q 92 811 67 808 q 105 812 96 812 q 135 803 125 812 q 147 772 144 793 l 223 175 l 363 573 q 380 593 368 587 q 414 600 392 600 q 447 593 435 600 q 464 573 459 587 l 604 175 l 680 772 q 692 803 683 793 q 722 812 702 812 q 736 811 731 812 z "},"Ẁ":{"ha":833,"x_min":45,"x_max":782,"o":"m 519 960 q 530 939 530 952 q 513 904 530 922 q 482 887 498 887 q 460 894 473 887 l 207 1042 q 192 1069 192 1051 q 212 1115 192 1088 q 258 1143 235 1143 q 283 1134 271 1143 l 519 960 m 736 811 q 771 799 760 808 q 782 773 782 790 q 781 761 782 765 l 680 29 q 663 -5 677 5 q 622 -15 649 -15 q 554 29 570 -15 l 414 427 l 273 29 q 205 -15 258 -15 q 164 -5 178 -15 q 147 29 151 5 l 46 761 q 45 773 45 765 q 56 799 45 790 q 92 811 67 808 q 105 812 96 812 q 135 803 125 812 q 147 772 144 793 l 223 175 l 363 573 q 380 593 368 587 q 414 600 392 600 q 447 593 435 600 q 464 573 459 587 l 604 175 l 680 772 q 692 803 683 793 q 722 812 702 812 q 736 811 731 812 z "},"X":{"ha":833,"x_min":101,"x_max":740,"o":"m 730 60 q 740 35 740 46 q 709 0 740 14 q 671 -11 684 -11 q 637 10 650 -11 l 419 330 l 204 10 q 189 -6 197 -1 q 170 -11 180 -11 q 132 0 157 -11 q 101 34 101 14 q 111 60 101 46 l 357 410 l 127 745 q 117 771 117 759 q 147 805 117 791 q 186 816 172 816 q 220 795 205 816 l 421 492 l 621 795 q 655 816 635 816 q 694 805 669 816 q 724 771 724 791 q 714 745 724 759 l 484 410 l 730 60 z "},"Y":{"ha":833,"x_min":85,"x_max":748,"o":"m 715 805 q 740 789 732 798 q 748 770 748 781 q 738 743 748 759 l 467 330 l 467 37 q 456 3 467 14 q 417 -7 445 -7 l 416 -7 q 377 3 388 -7 q 366 37 366 14 l 366 330 l 95 743 q 85 770 85 759 q 93 789 85 781 q 117 805 100 798 q 153 814 140 814 q 185 795 173 814 l 416 438 l 648 795 q 680 814 661 814 q 715 805 693 814 z "},"Ý":{"ha":833,"x_min":85,"x_max":748,"o":"m 371 894 q 349 887 359 887 q 318 904 333 887 q 302 939 302 922 q 313 960 302 952 l 549 1134 q 574 1143 561 1143 q 619 1115 597 1143 q 640 1069 640 1088 q 625 1042 640 1051 l 371 894 m 715 805 q 740 789 732 798 q 748 770 748 781 q 738 743 748 759 l 467 330 l 467 37 q 456 3 467 14 q 417 -7 445 -7 l 416 -7 q 377 3 388 -7 q 366 37 366 14 l 366 330 l 95 743 q 85 770 85 759 q 93 789 85 781 q 117 805 100 798 q 153 814 140 814 q 185 795 173 814 l 416 438 l 648 795 q 680 814 661 814 q 715 805 693 814 z "},"Ŷ":{"ha":833,"x_min":85,"x_max":748,"o":"m 267 896 q 246 888 257 888 q 216 904 231 888 q 201 936 201 922 q 212 958 201 948 l 378 1116 q 417 1130 393 1130 q 456 1116 441 1130 l 623 958 q 633 936 633 948 q 618 904 633 922 q 588 888 604 888 q 567 896 577 888 l 417 1013 l 267 896 m 715 805 q 740 789 732 798 q 748 770 748 781 q 738 743 748 759 l 467 330 l 467 37 q 456 3 467 14 q 417 -7 445 -7 l 416 -7 q 377 3 388 -7 q 366 37 366 14 l 366 330 l 95 743 q 85 770 85 759 q 93 789 85 781 q 117 805 100 798 q 153 814 140 814 q 185 795 173 814 l 416 438 l 648 795 q 680 814 661 814 q 715 805 693 814 z "},"Ÿ":{"ha":833,"x_min":85,"x_max":748,"o":"m 274 931 q 223 941 237 931 q 210 975 210 951 l 210 1063 q 223 1098 210 1088 q 274 1107 237 1107 q 325 1098 311 1107 q 338 1063 338 1088 l 338 975 q 325 941 338 951 q 274 931 311 931 m 559 931 q 508 941 522 931 q 494 975 494 951 l 494 1063 q 508 1098 494 1088 q 559 1107 522 1107 q 610 1098 596 1107 q 623 1063 623 1088 l 623 975 q 610 941 623 951 q 559 931 596 931 m 715 805 q 740 789 732 798 q 748 770 748 781 q 738 743 748 759 l 467 330 l 467 37 q 456 3 467 14 q 417 -7 445 -7 l 416 -7 q 377 3 388 -7 q 366 37 366 14 l 366 330 l 95 743 q 85 770 85 759 q 93 789 85 781 q 117 805 100 798 q 153 814 140 814 q 185 795 173 814 l 416 438 l 648 795 q 680 814 661 814 q 715 805 693 814 z "},"Ỳ":{"ha":833,"x_min":85,"x_max":748,"o":"m 208 1042 q 193 1069 193 1051 q 214 1115 193 1088 q 259 1143 236 1143 q 284 1134 272 1143 l 520 960 q 531 939 531 952 q 515 904 531 922 q 484 887 500 887 q 462 894 474 887 l 208 1042 m 715 805 q 740 789 732 798 q 748 770 748 781 q 738 743 748 759 l 467 330 l 467 37 q 456 3 467 14 q 417 -7 445 -7 l 416 -7 q 377 3 388 -7 q 366 37 366 14 l 366 330 l 95 743 q 85 770 85 759 q 93 789 85 781 q 117 805 100 798 q 153 814 140 814 q 185 795 173 814 l 416 438 l 648 795 q 680 814 661 814 q 715 805 693 814 z "},"Z":{"ha":833,"x_min":113,"x_max":718,"o":"m 675 98 q 708 86 699 98 q 718 49 718 75 q 708 11 718 22 q 675 0 699 0 l 156 0 q 123 11 133 0 q 113 46 113 21 q 123 75 113 61 l 557 707 l 174 707 q 141 719 151 707 q 131 756 131 730 q 141 794 131 783 q 174 805 151 805 l 663 805 q 696 794 686 805 q 706 759 706 784 q 699 732 706 742 l 263 98 l 675 98 z "},"Ź":{"ha":833,"x_min":113,"x_max":718,"o":"m 351 894 q 329 887 338 887 q 298 904 313 887 q 281 939 281 922 q 292 960 281 952 l 528 1134 q 553 1143 541 1143 q 599 1115 576 1143 q 619 1069 619 1088 q 604 1042 619 1051 l 351 894 m 675 98 q 708 86 699 98 q 718 49 718 75 q 708 11 718 22 q 675 0 699 0 l 156 0 q 123 11 133 0 q 113 46 113 21 q 123 75 113 61 l 557 707 l 174 707 q 141 719 151 707 q 131 756 131 730 q 141 794 131 783 q 174 805 151 805 l 663 805 q 696 794 686 805 q 706 759 706 784 q 699 732 706 742 l 263 98 l 675 98 z "},"Ž":{"ha":833,"x_min":113,"x_max":718,"o":"m 216 1061 q 205 1083 205 1071 q 221 1115 205 1097 q 251 1131 235 1131 q 272 1123 262 1131 l 422 1006 l 572 1123 q 593 1131 582 1131 q 623 1115 608 1131 q 638 1083 638 1097 q 627 1061 638 1071 l 461 903 q 422 889 446 889 q 382 903 397 889 l 216 1061 m 675 98 q 708 86 699 98 q 718 49 718 75 q 708 11 718 22 q 675 0 699 0 l 156 0 q 123 11 133 0 q 113 46 113 21 q 123 75 113 61 l 557 707 l 174 707 q 141 719 151 707 q 131 756 131 730 q 141 794 131 783 q 174 805 151 805 l 663 805 q 696 794 686 805 q 706 759 706 784 q 699 732 706 742 l 263 98 l 675 98 z "},"Ż":{"ha":833,"x_min":113,"x_max":718,"o":"m 423 931 q 372 941 386 931 q 359 975 359 951 l 359 1063 q 372 1098 359 1088 q 423 1107 386 1107 q 474 1098 460 1107 q 488 1063 488 1088 l 488 975 q 474 941 488 951 q 423 931 460 931 m 675 98 q 708 86 699 98 q 718 49 718 75 q 708 11 718 22 q 675 0 699 0 l 156 0 q 123 11 133 0 q 113 46 113 21 q 123 75 113 61 l 557 707 l 174 707 q 141 719 151 707 q 131 756 131 730 q 141 794 131 783 q 174 805 151 805 l 663 805 q 696 794 686 805 q 706 759 706 784 q 699 732 706 742 l 263 98 l 675 98 z "},"a":{"ha":833,"x_min":108,"x_max":688,"o":"m 433 642 q 624 585 560 642 q 688 416 688 528 l 688 37 q 677 3 688 14 q 641 -7 667 -7 l 640 -7 q 603 3 613 -7 q 593 37 593 14 l 593 83 q 474 11 538 37 q 338 -15 410 -15 q 218 8 271 -15 q 137 77 166 32 q 108 183 108 121 q 183 342 108 291 q 380 393 259 393 q 586 358 488 393 l 586 416 q 549 512 586 481 q 430 543 512 543 q 324 529 379 543 q 220 490 269 515 q 199 484 209 484 q 161 516 177 484 q 154 543 154 532 q 179 580 154 567 q 301 626 236 610 q 433 642 367 642 m 342 81 q 586 193 477 81 l 586 267 q 487 289 540 281 q 380 297 434 297 q 257 270 302 297 q 212 185 212 243 q 247 108 212 136 q 342 81 281 81 z "},"á":{"ha":833,"x_min":108,"x_max":688,"o":"m 352 711 q 330 704 340 704 q 299 721 314 704 q 283 756 283 739 q 294 777 283 769 l 530 951 q 555 960 542 960 q 600 932 578 960 q 621 886 621 905 q 606 859 621 868 l 352 711 m 433 642 q 624 585 560 642 q 688 416 688 528 l 688 37 q 677 3 688 14 q 641 -7 667 -7 l 640 -7 q 603 3 613 -7 q 593 37 593 14 l 593 83 q 474 11 538 37 q 338 -15 410 -15 q 218 8 271 -15 q 137 77 166 32 q 108 183 108 121 q 183 342 108 291 q 380 393 259 393 q 586 358 488 393 l 586 416 q 549 512 586 481 q 430 543 512 543 q 324 529 379 543 q 220 490 269 515 q 199 484 209 484 q 161 516 177 484 q 154 543 154 532 q 179 580 154 567 q 301 626 236 610 q 433 642 367 642 m 342 81 q 586 193 477 81 l 586 267 q 487 289 540 281 q 380 297 434 297 q 257 270 302 297 q 212 185 212 243 q 247 108 212 136 q 342 81 281 81 z "},"ă":{"ha":833,"x_min":108,"x_max":688,"o":"m 425 726 q 276 768 332 726 q 203 887 219 810 q 203 896 203 890 q 212 917 203 909 q 239 928 220 924 q 258 930 250 930 q 288 914 281 930 q 337 843 303 866 q 425 820 371 820 q 514 843 480 820 q 563 914 548 866 q 592 930 569 930 q 611 928 601 930 q 639 917 630 924 q 648 896 648 909 q 647 887 648 890 q 575 768 631 810 q 425 726 518 726 m 433 642 q 624 585 560 642 q 688 416 688 528 l 688 37 q 677 3 688 14 q 641 -7 667 -7 l 640 -7 q 603 3 613 -7 q 593 37 593 14 l 593 83 q 474 11 538 37 q 338 -15 410 -15 q 218 8 271 -15 q 137 77 166 32 q 108 183 108 121 q 183 342 108 291 q 380 393 259 393 q 586 358 488 393 l 586 416 q 549 512 586 481 q 430 543 512 543 q 324 529 379 543 q 220 490 269 515 q 199 484 209 484 q 161 516 177 484 q 154 543 154 532 q 179 580 154 567 q 301 626 236 610 q 433 642 367 642 m 342 81 q 586 193 477 81 l 586 267 q 487 289 540 281 q 380 297 434 297 q 257 270 302 297 q 212 185 212 243 q 247 108 212 136 q 342 81 281 81 z "},"â":{"ha":833,"x_min":108,"x_max":688,"o":"m 273 713 q 252 705 263 705 q 222 721 237 705 q 207 753 207 739 q 218 775 207 765 l 384 933 q 423 947 399 947 q 463 933 448 947 l 629 775 q 640 753 640 765 q 624 721 640 739 q 594 705 610 705 q 573 713 583 705 l 423 830 l 273 713 m 433 642 q 624 585 560 642 q 688 416 688 528 l 688 37 q 677 3 688 14 q 641 -7 667 -7 l 640 -7 q 603 3 613 -7 q 593 37 593 14 l 593 83 q 474 11 538 37 q 338 -15 410 -15 q 218 8 271 -15 q 137 77 166 32 q 108 183 108 121 q 183 342 108 291 q 380 393 259 393 q 586 358 488 393 l 586 416 q 549 512 586 481 q 430 543 512 543 q 324 529 379 543 q 220 490 269 515 q 199 484 209 484 q 161 516 177 484 q 154 543 154 532 q 179 580 154 567 q 301 626 236 610 q 433 642 367 642 m 342 81 q 586 193 477 81 l 586 267 q 487 289 540 281 q 380 297 434 297 q 257 270 302 297 q 212 185 212 243 q 247 108 212 136 q 342 81 281 81 z "},"ä":{"ha":833,"x_min":108,"x_max":688,"o":"m 281 748 q 230 758 243 748 q 216 792 216 768 l 216 880 q 230 915 216 905 q 281 924 243 924 q 332 915 318 924 q 345 880 345 905 l 345 792 q 332 758 345 768 q 281 748 318 748 m 566 748 q 515 758 528 748 q 501 792 501 768 l 501 880 q 515 915 501 905 q 566 924 528 924 q 616 915 603 924 q 630 880 630 905 l 630 792 q 616 758 630 768 q 566 748 603 748 m 433 642 q 624 585 560 642 q 688 416 688 528 l 688 37 q 677 3 688 14 q 641 -7 667 -7 l 640 -7 q 603 3 613 -7 q 593 37 593 14 l 593 83 q 474 11 538 37 q 338 -15 410 -15 q 218 8 271 -15 q 137 77 166 32 q 108 183 108 121 q 183 342 108 291 q 380 393 259 393 q 586 358 488 393 l 586 416 q 549 512 586 481 q 430 543 512 543 q 324 529 379 543 q 220 490 269 515 q 199 484 209 484 q 161 516 177 484 q 154 543 154 532 q 179 580 154 567 q 301 626 236 610 q 433 642 367 642 m 342 81 q 586 193 477 81 l 586 267 q 487 289 540 281 q 380 297 434 297 q 257 270 302 297 q 212 185 212 243 q 247 108 212 136 q 342 81 281 81 z "},"à":{"ha":833,"x_min":108,"x_max":688,"o":"m 261 859 q 246 886 246 868 q 267 932 246 905 q 312 960 289 960 q 337 951 325 960 l 573 777 q 584 756 584 769 q 568 721 584 739 q 536 704 553 704 q 515 711 527 704 l 261 859 m 433 642 q 624 585 560 642 q 688 416 688 528 l 688 37 q 677 3 688 14 q 641 -7 667 -7 l 640 -7 q 603 3 613 -7 q 593 37 593 14 l 593 83 q 474 11 538 37 q 338 -15 410 -15 q 218 8 271 -15 q 137 77 166 32 q 108 183 108 121 q 183 342 108 291 q 380 393 259 393 q 586 358 488 393 l 586 416 q 549 512 586 481 q 430 543 512 543 q 324 529 379 543 q 220 490 269 515 q 199 484 209 484 q 161 516 177 484 q 154 543 154 532 q 179 580 154 567 q 301 626 236 610 q 433 642 367 642 m 342 81 q 586 193 477 81 l 586 267 q 487 289 540 281 q 380 297 434 297 q 257 270 302 297 q 212 185 212 243 q 247 108 212 136 q 342 81 281 81 z "},"ā":{"ha":833,"x_min":108,"x_max":688,"o":"m 253 750 q 220 761 230 750 q 210 799 210 772 q 220 837 210 825 q 253 848 230 848 l 607 848 q 640 837 630 848 q 650 799 650 825 q 640 761 650 772 q 607 750 630 750 l 253 750 m 433 642 q 624 585 560 642 q 688 416 688 528 l 688 37 q 677 3 688 14 q 641 -7 667 -7 l 640 -7 q 603 3 613 -7 q 593 37 593 14 l 593 83 q 474 11 538 37 q 338 -15 410 -15 q 218 8 271 -15 q 137 77 166 32 q 108 183 108 121 q 183 342 108 291 q 380 393 259 393 q 586 358 488 393 l 586 416 q 549 512 586 481 q 430 543 512 543 q 324 529 379 543 q 220 490 269 515 q 199 484 209 484 q 161 516 177 484 q 154 543 154 532 q 179 580 154 567 q 301 626 236 610 q 433 642 367 642 m 342 81 q 586 193 477 81 l 586 267 q 487 289 540 281 q 380 297 434 297 q 257 270 302 297 q 212 185 212 243 q 247 108 212 136 q 342 81 281 81 z "},"ą":{"ha":833,"x_min":108,"x_max":725,"o":"m 433 642 q 624 585 560 642 q 688 416 688 528 l 688 37 q 676 2 688 13 q 588 -96 615 -54 q 561 -176 561 -139 q 575 -213 561 -200 q 613 -226 589 -226 q 690 -214 648 -226 q 697 -213 695 -213 q 724 -250 718 -213 q 725 -267 725 -262 q 719 -290 725 -281 q 702 -302 713 -298 q 591 -320 651 -320 q 491 -285 528 -320 q 455 -191 455 -250 q 593 26 455 -84 l 593 83 q 474 11 538 37 q 338 -15 410 -15 q 218 8 271 -15 q 137 77 166 32 q 108 183 108 121 q 183 342 108 291 q 380 393 259 393 q 586 358 488 393 l 586 416 q 549 512 586 481 q 430 543 512 543 q 324 529 379 543 q 220 490 269 515 q 199 484 209 484 q 161 516 177 484 q 154 543 154 532 q 179 580 154 567 q 301 626 236 610 q 433 642 367 642 m 380 297 q 257 270 302 297 q 212 185 212 243 q 247 108 212 136 q 342 81 281 81 q 586 193 477 81 l 586 267 q 487 289 540 281 q 380 297 434 297 z "},"å":{"ha":833,"x_min":108,"x_max":688,"o":"m 423 722 q 338 744 376 722 q 278 804 300 766 q 256 889 256 842 q 278 974 256 936 q 338 1034 300 1013 q 423 1056 376 1056 q 508 1034 470 1056 q 568 974 547 1013 q 590 889 590 936 q 568 804 590 842 q 508 744 547 766 q 423 722 470 722 m 423 966 q 367 945 388 966 q 346 889 346 924 q 367 833 346 854 q 423 812 388 812 q 479 833 458 812 q 500 889 500 854 q 479 945 500 924 q 423 966 458 966 m 433 642 q 624 585 560 642 q 688 416 688 528 l 688 37 q 677 3 688 14 q 641 -7 667 -7 l 640 -7 q 603 3 613 -7 q 593 37 593 14 l 593 83 q 474 11 538 37 q 338 -15 410 -15 q 218 8 271 -15 q 137 77 166 32 q 108 183 108 121 q 183 342 108 291 q 380 393 259 393 q 586 358 488 393 l 586 416 q 549 512 586 481 q 430 543 512 543 q 324 529 379 543 q 220 490 269 515 q 199 484 209 484 q 161 516 177 484 q 154 543 154 532 q 179 580 154 567 q 301 626 236 610 q 433 642 367 642 m 342 81 q 586 193 477 81 l 586 267 q 487 289 540 281 q 380 297 434 297 q 257 270 302 297 q 212 185 212 243 q 247 108 212 136 q 342 81 281 81 z "},"ã":{"ha":833,"x_min":108,"x_max":688,"o":"m 256 745 q 236 736 248 736 q 204 753 219 736 q 190 784 190 768 q 199 808 190 797 q 269 871 232 850 q 342 892 306 892 q 385 885 366 892 q 431 867 404 879 q 471 850 455 855 q 505 844 488 844 q 548 856 527 844 q 591 890 568 867 q 610 899 599 899 q 642 882 627 899 q 656 851 656 867 q 647 827 656 838 q 577 764 614 785 q 505 743 541 743 q 461 750 481 743 q 415 768 442 756 q 375 785 391 780 q 341 791 359 791 q 299 779 319 791 q 256 745 278 768 m 433 642 q 624 585 560 642 q 688 416 688 528 l 688 37 q 677 3 688 14 q 641 -7 667 -7 l 640 -7 q 603 3 613 -7 q 593 37 593 14 l 593 83 q 474 11 538 37 q 338 -15 410 -15 q 218 8 271 -15 q 137 77 166 32 q 108 183 108 121 q 183 342 108 291 q 380 393 259 393 q 586 358 488 393 l 586 416 q 549 512 586 481 q 430 543 512 543 q 324 529 379 543 q 220 490 269 515 q 199 484 209 484 q 161 516 177 484 q 154 543 154 532 q 179 580 154 567 q 301 626 236 610 q 433 642 367 642 m 342 81 q 586 193 477 81 l 586 267 q 487 289 540 281 q 380 297 434 297 q 257 270 302 297 q 212 185 212 243 q 247 108 212 136 q 342 81 281 81 z "},"æ":{"ha":833,"x_min":51,"x_max":781,"o":"m 578 642 q 729 563 682 642 q 781 340 777 484 q 771 308 781 318 q 738 298 761 298 l 467 298 q 578 83 471 83 q 638 96 611 83 q 694 136 665 109 q 720 148 705 148 q 758 127 741 148 q 772 93 772 110 q 754 57 772 74 q 672 3 717 22 q 578 -15 627 -15 q 413 83 468 -15 q 331 11 380 37 q 227 -15 282 -15 q 134 7 174 -15 q 73 68 94 28 q 51 163 51 109 q 135 335 51 276 q 366 393 220 393 l 366 408 q 347 510 366 477 q 277 543 328 543 q 217 532 246 543 q 157 496 188 520 q 128 486 144 486 q 93 503 109 486 q 79 537 79 519 q 94 570 79 556 q 277 642 178 642 q 427 563 380 642 q 492 622 454 602 q 578 642 530 642 m 580 543 q 505 508 532 543 q 471 393 479 473 l 674 393 q 647 505 669 467 q 580 543 625 543 m 366 298 q 206 264 257 298 q 155 163 155 231 q 175 102 155 124 q 230 81 195 81 q 299 100 268 81 q 348 154 330 119 q 366 231 366 188 l 366 298 z "},"b":{"ha":833,"x_min":130,"x_max":739,"o":"m 182 897 q 221 886 210 897 q 232 852 232 876 l 232 530 q 447 642 319 642 q 597 602 531 642 q 701 488 663 562 q 739 313 739 414 q 701 139 739 213 q 597 25 663 64 q 447 -15 531 -15 q 324 15 380 -15 q 225 100 268 45 l 225 37 q 215 3 225 14 q 178 -7 205 -7 l 177 -7 q 140 3 151 -7 q 130 37 130 14 l 130 852 q 141 886 130 876 q 180 897 153 897 l 182 897 m 440 541 q 333 514 380 541 q 259 435 286 487 q 232 313 232 384 q 259 191 232 243 q 333 113 286 140 q 440 85 380 85 q 544 114 500 85 q 611 195 588 143 q 634 313 634 247 q 611 432 634 380 q 544 512 588 484 q 440 541 500 541 z "},"c":{"ha":833,"x_min":100,"x_max":728,"o":"m 427 642 q 566 623 499 642 q 690 567 633 604 q 713 528 713 552 q 703 494 713 513 q 668 467 690 467 q 643 475 655 467 q 427 541 547 541 q 312 512 361 541 q 234 431 262 483 q 207 313 207 379 q 234 196 207 248 q 312 115 262 144 q 427 85 361 85 q 548 105 489 85 q 654 161 606 124 q 680 171 668 171 q 716 145 701 171 q 728 110 728 125 q 706 72 728 87 q 577 8 650 31 q 427 -15 503 -15 q 255 28 330 -15 q 140 145 181 71 q 100 313 100 220 q 140 481 100 407 q 255 599 181 556 q 427 642 330 642 z "},"ć":{"ha":833,"x_min":100,"x_max":728,"o":"m 528 951 q 553 960 540 960 q 598 932 576 960 q 618 886 618 905 q 604 859 618 868 l 350 711 q 328 704 338 704 q 297 721 312 704 q 281 756 281 739 q 292 777 281 769 l 528 951 m 427 642 q 566 623 499 642 q 690 567 633 604 q 713 528 713 552 q 703 494 713 513 q 668 467 690 467 q 643 475 655 467 q 427 541 547 541 q 312 512 361 541 q 234 431 262 483 q 207 313 207 379 q 234 196 207 248 q 312 115 262 144 q 427 85 361 85 q 548 105 489 85 q 654 161 606 124 q 680 171 668 171 q 716 145 701 171 q 728 110 728 125 q 706 72 728 87 q 577 8 650 31 q 427 -15 503 -15 q 255 28 330 -15 q 140 145 181 71 q 100 313 100 220 q 140 481 100 407 q 255 599 181 556 q 427 642 330 642 z "},"č":{"ha":833,"x_min":100,"x_max":728,"o":"m 437 706 q 397 720 412 706 l 231 878 q 220 900 220 888 q 236 932 220 914 q 266 948 250 948 q 287 940 277 948 l 437 823 l 587 940 q 608 948 597 948 q 637 932 623 948 q 653 900 653 914 q 642 878 653 888 l 476 720 q 437 706 461 706 m 427 642 q 566 623 499 642 q 690 567 633 604 q 713 528 713 552 q 703 494 713 513 q 668 467 690 467 q 643 475 655 467 q 427 541 547 541 q 312 512 361 541 q 234 431 262 483 q 207 313 207 379 q 234 196 207 248 q 312 115 262 144 q 427 85 361 85 q 548 105 489 85 q 654 161 606 124 q 680 171 668 171 q 716 145 701 171 q 728 110 728 125 q 706 72 728 87 q 577 8 650 31 q 427 -15 503 -15 q 255 28 330 -15 q 140 145 181 71 q 100 313 100 220 q 140 481 100 407 q 255 599 181 556 q 427 642 330 642 z "},"ç":{"ha":833,"x_min":100,"x_max":728,"o":"m 716 145 q 728 110 728 125 q 706 72 728 87 q 597 15 659 37 q 470 -13 536 -7 l 470 -77 q 573 -108 538 -76 q 608 -191 608 -140 q 566 -285 608 -250 q 441 -320 524 -320 q 352 -312 395 -320 q 274 -288 309 -304 q 258 -264 258 -281 q 264 -240 258 -254 q 295 -210 275 -210 q 304 -211 300 -210 q 368 -229 333 -222 q 435 -237 403 -237 q 489 -225 469 -237 q 509 -193 509 -214 q 490 -160 509 -171 q 430 -149 472 -149 l 404 -150 q 387 -143 393 -150 q 380 -120 380 -136 l 380 -12 q 232 42 296 -2 q 134 157 169 87 q 100 313 100 227 q 140 481 100 407 q 255 599 181 556 q 427 642 330 642 q 566 623 499 642 q 690 567 633 604 q 713 528 713 552 q 703 494 713 513 q 668 467 690 467 q 643 475 655 467 q 427 541 547 541 q 312 512 361 541 q 234 431 262 483 q 207 313 207 379 q 234 196 207 248 q 312 115 262 144 q 427 85 361 85 q 548 105 489 85 q 654 161 606 124 q 680 171 668 171 q 716 145 701 171 z "},"ĉ":{"ha":833,"x_min":100,"x_max":728,"o":"m 437 947 q 476 933 461 947 l 642 775 q 653 753 653 765 q 637 721 653 739 q 608 705 623 705 q 587 713 597 705 l 437 830 l 287 713 q 266 705 277 705 q 236 721 250 705 q 220 753 220 739 q 231 775 220 765 l 397 933 q 437 947 412 947 m 427 642 q 566 623 499 642 q 690 567 633 604 q 713 528 713 552 q 703 494 713 513 q 668 467 690 467 q 643 475 655 467 q 427 541 547 541 q 312 512 361 541 q 234 431 262 483 q 207 313 207 379 q 234 196 207 248 q 312 115 262 144 q 427 85 361 85 q 548 105 489 85 q 654 161 606 124 q 680 171 668 171 q 716 145 701 171 q 728 110 728 125 q 706 72 728 87 q 577 8 650 31 q 427 -15 503 -15 q 255 28 330 -15 q 140 145 181 71 q 100 313 100 220 q 140 481 100 407 q 255 599 181 556 q 427 642 330 642 z "},"ċ":{"ha":833,"x_min":100,"x_max":728,"o":"m 437 924 q 488 915 474 924 q 501 880 501 905 l 501 792 q 488 758 501 768 q 437 748 474 748 q 386 758 399 748 q 372 792 372 768 l 372 880 q 386 915 372 905 q 437 924 399 924 m 427 642 q 566 623 499 642 q 690 567 633 604 q 713 528 713 552 q 703 494 713 513 q 668 467 690 467 q 643 475 655 467 q 427 541 547 541 q 312 512 361 541 q 234 431 262 483 q 207 313 207 379 q 234 196 207 248 q 312 115 262 144 q 427 85 361 85 q 548 105 489 85 q 654 161 606 124 q 680 171 668 171 q 716 145 701 171 q 728 110 728 125 q 706 72 728 87 q 577 8 650 31 q 427 -15 503 -15 q 255 28 330 -15 q 140 145 181 71 q 100 313 100 220 q 140 481 100 407 q 255 599 181 556 q 427 642 330 642 z "},"d":{"ha":833,"x_min":94,"x_max":703,"o":"m 652 897 q 691 886 680 897 q 703 852 703 876 l 703 37 q 692 3 703 14 q 656 -7 682 -7 l 654 -7 q 618 3 628 -7 q 608 37 608 14 l 608 100 q 509 15 565 45 q 386 -15 452 -15 q 236 25 302 -15 q 132 139 170 64 q 94 313 94 213 q 132 488 94 414 q 236 602 170 562 q 386 642 302 642 q 601 530 513 642 l 601 852 q 612 886 601 876 q 651 897 623 897 l 652 897 m 393 541 q 289 512 332 541 q 222 432 245 484 q 199 313 199 380 q 222 195 199 247 q 289 114 245 143 q 393 85 332 85 q 500 113 453 85 q 574 191 547 140 q 601 313 601 243 q 574 435 601 384 q 500 514 547 487 q 393 541 453 541 z "},"ð":{"ha":833,"x_min":95,"x_max":738,"o":"m 541 742 q 738 293 738 561 q 696 132 738 202 q 581 24 654 62 q 416 -15 508 -15 q 252 24 325 -15 q 137 132 178 62 q 95 293 95 202 q 137 454 95 384 q 252 562 178 524 q 416 601 325 601 q 578 549 498 601 q 437 703 529 630 l 274 642 q 253 637 262 637 q 233 645 241 637 q 218 670 224 652 q 212 695 212 683 q 241 728 212 718 l 342 766 q 260 810 312 784 q 235 842 235 823 q 244 873 235 855 q 283 903 260 903 q 307 897 295 903 q 457 809 392 856 l 618 869 q 639 874 629 874 q 659 866 651 874 q 674 841 667 859 q 680 816 680 828 q 650 783 680 793 l 541 742 m 416 85 q 529 111 480 85 q 604 184 577 137 q 631 293 631 231 q 604 402 631 355 q 529 475 577 449 q 416 500 480 500 q 304 475 353 500 q 229 402 256 449 q 202 293 202 355 q 229 184 202 231 q 304 111 256 137 q 416 85 353 85 z "},"ď":{"ha":833,"x_min":93,"x_max":896,"o":"m 583 897 q 622 886 611 897 q 633 852 633 876 l 633 37 q 623 3 633 14 q 587 -7 613 -7 l 585 -7 q 549 3 559 -7 q 538 37 538 14 l 538 94 q 456 12 501 39 q 351 -15 411 -15 q 216 25 274 -15 q 125 138 157 64 q 93 313 93 212 q 125 488 93 414 q 216 602 157 562 q 351 642 274 642 q 453 615 410 642 q 532 536 495 589 l 532 852 q 543 886 532 876 q 582 897 554 897 l 583 897 m 878 890 q 891 885 886 890 q 896 871 896 880 q 892 855 896 865 l 802 609 q 751 585 793 585 q 722 592 732 585 q 712 613 712 600 q 713 623 712 616 l 769 868 q 798 890 774 890 l 878 890 m 357 541 q 238 479 278 541 q 197 313 197 417 q 238 148 197 210 q 357 85 278 85 q 450 113 410 85 q 510 191 489 140 q 532 313 532 242 q 510 436 532 385 q 450 514 489 487 q 357 541 410 541 z "},"đ":{"ha":833,"x_min":108,"x_max":826,"o":"m 783 780 q 816 769 806 780 q 826 731 826 758 q 816 693 826 705 q 783 682 806 682 l 689 682 l 689 37 q 679 3 689 14 q 642 -7 669 -7 l 641 -7 q 604 3 614 -7 q 594 37 594 14 l 594 94 q 501 13 553 41 q 386 -15 448 -15 q 243 22 306 -15 q 144 129 180 59 q 108 293 108 199 q 144 457 108 387 q 243 564 180 527 q 386 601 306 601 q 587 501 505 601 l 587 682 l 416 682 q 383 693 393 682 q 373 731 373 705 q 383 769 373 758 q 416 780 393 780 l 587 780 l 587 852 q 598 886 587 876 q 637 897 610 897 l 639 897 q 678 886 667 897 q 689 852 689 876 l 689 780 l 783 780 m 393 85 q 493 110 449 85 q 562 182 537 135 q 587 293 587 229 q 562 404 587 357 q 493 476 537 451 q 393 500 449 500 q 296 474 336 500 q 234 400 255 448 q 212 293 212 353 q 234 185 212 233 q 296 112 255 138 q 393 85 336 85 z "},"e":{"ha":833,"x_min":100,"x_max":740,"o":"m 422 642 q 590 602 521 642 q 696 492 659 562 q 739 330 733 422 q 729 298 740 308 q 696 288 719 288 l 205 288 q 262 135 210 187 q 409 83 314 83 q 542 99 477 83 q 653 142 606 115 q 674 148 665 148 q 697 138 687 148 q 714 110 708 128 q 719 85 719 98 q 689 44 719 58 q 559 1 634 18 q 409 -15 485 -15 q 241 24 311 -15 q 136 138 172 64 q 100 313 100 212 q 141 485 100 410 q 256 601 182 559 q 422 642 329 642 m 422 543 q 283 501 338 543 q 212 383 229 458 l 629 383 q 563 502 614 460 q 422 543 511 543 z "},"é":{"ha":833,"x_min":100,"x_max":740,"o":"m 530 951 q 555 960 542 960 q 600 932 578 960 q 621 886 621 905 q 606 859 621 868 l 352 711 q 330 704 340 704 q 299 721 314 704 q 283 756 283 739 q 294 777 283 769 l 530 951 m 422 642 q 590 602 521 642 q 696 492 659 562 q 739 330 733 422 q 729 298 740 308 q 696 288 719 288 l 205 288 q 262 135 210 187 q 409 83 314 83 q 542 99 477 83 q 653 142 606 115 q 674 148 665 148 q 697 138 687 148 q 714 110 708 128 q 719 85 719 98 q 689 44 719 58 q 559 1 634 18 q 409 -15 485 -15 q 241 24 311 -15 q 136 138 172 64 q 100 313 100 212 q 141 485 100 410 q 256 601 182 559 q 422 642 329 642 m 422 543 q 283 501 338 543 q 212 383 229 458 l 629 383 q 563 502 614 460 q 422 543 511 543 z "},"ĕ":{"ha":833,"x_min":100,"x_max":740,"o":"m 616 928 q 644 917 635 924 q 652 896 652 909 q 652 887 652 890 q 579 768 636 810 q 430 726 523 726 q 280 768 337 726 q 208 887 224 810 q 208 896 208 890 q 216 917 208 909 q 244 928 225 924 q 263 930 254 930 q 292 914 286 930 q 342 843 308 866 q 430 820 376 820 q 519 843 485 820 q 568 914 553 866 q 597 930 574 930 q 616 928 606 930 m 422 642 q 590 602 521 642 q 696 492 659 562 q 739 330 733 422 q 729 298 740 308 q 696 288 719 288 l 205 288 q 262 135 210 187 q 409 83 314 83 q 542 99 477 83 q 653 142 606 115 q 674 148 665 148 q 697 138 687 148 q 714 110 708 128 q 719 85 719 98 q 689 44 719 58 q 559 1 634 18 q 409 -15 485 -15 q 241 24 311 -15 q 136 138 172 64 q 100 313 100 212 q 141 485 100 410 q 256 601 182 559 q 422 642 329 642 m 422 543 q 283 501 338 543 q 212 383 229 458 l 629 383 q 563 502 614 460 q 422 543 511 543 z "},"ě":{"ha":833,"x_min":100,"x_max":740,"o":"m 427 706 q 388 720 403 706 l 222 878 q 211 900 211 888 q 227 932 211 914 q 256 948 241 948 q 277 940 267 948 l 427 823 l 577 940 q 598 948 587 948 q 628 932 614 948 q 644 900 644 914 q 633 878 644 888 l 467 720 q 427 706 452 706 m 422 642 q 590 602 521 642 q 696 492 659 562 q 739 330 733 422 q 729 298 740 308 q 696 288 719 288 l 205 288 q 262 135 210 187 q 409 83 314 83 q 542 99 477 83 q 653 142 606 115 q 674 148 665 148 q 697 138 687 148 q 714 110 708 128 q 719 85 719 98 q 689 44 719 58 q 559 1 634 18 q 409 -15 485 -15 q 241 24 311 -15 q 136 138 172 64 q 100 313 100 212 q 141 485 100 410 q 256 601 182 559 q 422 642 329 642 m 422 543 q 283 501 338 543 q 212 383 229 458 l 629 383 q 563 502 614 460 q 422 543 511 543 z "},"ê":{"ha":833,"x_min":100,"x_max":740,"o":"m 430 947 q 469 933 454 947 l 635 775 q 646 753 646 765 q 631 721 646 739 q 601 705 616 705 q 580 713 590 705 l 430 830 l 280 713 q 259 705 270 705 q 229 721 243 705 q 214 753 214 739 q 224 775 214 765 l 391 933 q 430 947 406 947 m 422 642 q 590 602 521 642 q 696 492 659 562 q 739 330 733 422 q 729 298 740 308 q 696 288 719 288 l 205 288 q 262 135 210 187 q 409 83 314 83 q 542 99 477 83 q 653 142 606 115 q 674 148 665 148 q 697 138 687 148 q 714 110 708 128 q 719 85 719 98 q 689 44 719 58 q 559 1 634 18 q 409 -15 485 -15 q 241 24 311 -15 q 136 138 172 64 q 100 313 100 212 q 141 485 100 410 q 256 601 182 559 q 422 642 329 642 m 422 543 q 283 501 338 543 q 212 383 229 458 l 629 383 q 563 502 614 460 q 422 543 511 543 z "},"ë":{"ha":833,"x_min":100,"x_max":740,"o":"m 281 924 q 332 915 318 924 q 345 880 345 905 l 345 792 q 332 758 345 768 q 281 748 318 748 q 230 758 243 748 q 216 792 216 768 l 216 880 q 230 915 216 905 q 281 924 243 924 m 566 924 q 616 915 603 924 q 630 880 630 905 l 630 792 q 616 758 630 768 q 566 748 603 748 q 515 758 528 748 q 501 792 501 768 l 501 880 q 515 915 501 905 q 566 924 528 924 m 422 642 q 590 602 521 642 q 696 492 659 562 q 739 330 733 422 q 729 298 740 308 q 696 288 719 288 l 205 288 q 262 135 210 187 q 409 83 314 83 q 542 99 477 83 q 653 142 606 115 q 674 148 665 148 q 697 138 687 148 q 714 110 708 128 q 719 85 719 98 q 689 44 719 58 q 559 1 634 18 q 409 -15 485 -15 q 241 24 311 -15 q 136 138 172 64 q 100 313 100 212 q 141 485 100 410 q 256 601 182 559 q 422 642 329 642 m 422 543 q 283 501 338 543 q 212 383 229 458 l 629 383 q 563 502 614 460 q 422 543 511 543 z "},"ė":{"ha":833,"x_min":100,"x_max":740,"o":"m 430 924 q 481 915 467 924 q 494 880 494 905 l 494 792 q 481 758 494 768 q 430 748 467 748 q 379 758 393 748 q 366 792 366 768 l 366 880 q 379 915 366 905 q 430 924 393 924 m 422 642 q 590 602 521 642 q 696 492 659 562 q 739 330 733 422 q 729 298 740 308 q 696 288 719 288 l 205 288 q 262 135 210 187 q 409 83 314 83 q 542 99 477 83 q 653 142 606 115 q 674 148 665 148 q 697 138 687 148 q 714 110 708 128 q 719 85 719 98 q 689 44 719 58 q 559 1 634 18 q 409 -15 485 -15 q 241 24 311 -15 q 136 138 172 64 q 100 313 100 212 q 141 485 100 410 q 256 601 182 559 q 422 642 329 642 m 422 543 q 283 501 338 543 q 212 383 229 458 l 629 383 q 563 502 614 460 q 422 543 511 543 z "},"è":{"ha":833,"x_min":100,"x_max":740,"o":"m 566 777 q 577 756 577 769 q 561 721 577 739 q 530 704 546 704 q 508 711 520 704 l 254 859 q 239 886 239 868 q 260 932 239 905 q 305 960 282 960 q 330 951 318 960 l 566 777 m 422 642 q 590 602 521 642 q 696 492 659 562 q 739 330 733 422 q 729 298 740 308 q 696 288 719 288 l 205 288 q 262 135 210 187 q 409 83 314 83 q 542 99 477 83 q 653 142 606 115 q 674 148 665 148 q 697 138 687 148 q 714 110 708 128 q 719 85 719 98 q 689 44 719 58 q 559 1 634 18 q 409 -15 485 -15 q 241 24 311 -15 q 136 138 172 64 q 100 313 100 212 q 141 485 100 410 q 256 601 182 559 q 422 642 329 642 m 422 543 q 283 501 338 543 q 212 383 229 458 l 629 383 q 563 502 614 460 q 422 543 511 543 z "},"ē":{"ha":833,"x_min":100,"x_max":740,"o":"m 600 848 q 633 837 623 848 q 643 799 643 825 q 633 761 643 772 q 600 750 623 750 l 246 750 q 213 761 223 750 q 203 799 203 772 q 213 837 203 825 q 246 848 223 848 l 600 848 m 422 642 q 590 602 521 642 q 696 492 659 562 q 739 330 733 422 q 729 298 740 308 q 696 288 719 288 l 205 288 q 262 135 210 187 q 409 83 314 83 q 542 99 477 83 q 653 142 606 115 q 674 148 665 148 q 697 138 687 148 q 714 110 708 128 q 719 85 719 98 q 689 44 719 58 q 559 1 634 18 q 409 -15 485 -15 q 241 24 311 -15 q 136 138 172 64 q 100 313 100 212 q 141 485 100 410 q 256 601 182 559 q 422 642 329 642 m 422 543 q 283 501 338 543 q 212 383 229 458 l 629 383 q 563 502 614 460 q 422 543 511 543 z "},"ę":{"ha":833,"x_min":100,"x_max":740,"o":"m 422 642 q 590 602 521 642 q 696 492 659 562 q 739 330 733 422 q 729 298 740 308 q 696 288 719 288 l 205 288 q 262 135 210 187 q 409 83 314 83 q 542 99 477 83 q 653 142 606 115 q 674 148 665 148 q 697 138 687 148 q 714 110 708 128 q 719 85 719 98 q 689 44 719 58 q 654 19 673 37 q 551 -90 582 -45 q 520 -176 520 -136 q 534 -213 520 -200 q 572 -226 549 -226 q 649 -214 608 -226 q 656 -213 654 -213 q 683 -250 677 -213 q 684 -267 684 -262 q 679 -290 684 -281 q 661 -302 673 -298 q 550 -320 610 -320 q 451 -285 487 -320 q 414 -191 414 -250 q 440 -97 414 -142 q 513 -7 465 -52 q 409 -15 459 -15 q 241 24 311 -15 q 136 138 172 64 q 100 313 100 212 q 141 485 100 410 q 256 601 182 559 q 422 642 329 642 m 422 543 q 283 501 338 543 q 212 383 229 458 l 629 383 q 563 502 614 460 q 422 543 511 543 z "},"f":{"ha":833,"x_min":127,"x_max":756,"o":"m 723 859 q 756 814 756 846 q 753 795 756 809 q 718 758 744 758 q 703 761 712 758 q 543 794 617 794 q 406 647 406 794 l 406 572 l 640 572 q 673 561 663 572 q 683 524 683 550 q 673 486 683 497 q 640 475 663 475 l 406 475 l 406 37 q 394 3 406 14 q 355 -7 383 -7 l 354 -7 q 315 3 326 -7 q 304 37 304 14 l 304 475 l 170 475 q 137 486 146 475 q 127 524 127 497 q 137 561 127 550 q 170 572 146 572 l 304 572 l 304 656 q 367 830 304 768 q 543 893 429 893 q 723 859 633 893 z "},"g":{"ha":833,"x_min":94,"x_max":703,"o":"m 386 642 q 509 612 452 642 q 608 526 565 582 l 608 589 q 618 623 608 613 q 654 633 628 633 l 656 633 q 692 623 682 633 q 703 589 703 613 l 703 -20 q 668 -159 703 -101 q 569 -248 634 -217 q 412 -278 504 -278 q 281 -267 347 -278 q 157 -235 214 -256 q 130 -199 130 -225 q 136 -172 130 -188 q 174 -134 148 -134 q 189 -137 182 -134 q 300 -167 242 -156 q 412 -178 359 -178 q 553 -133 506 -178 q 601 -12 601 -89 l 601 125 q 386 19 517 19 q 236 57 302 19 q 132 165 170 94 q 94 330 94 235 q 132 496 94 425 q 236 604 170 566 q 386 642 302 642 m 393 541 q 289 514 332 541 q 222 440 245 488 q 199 330 199 392 q 222 221 199 269 q 289 146 245 173 q 393 119 332 119 q 500 144 453 119 q 574 217 547 170 q 601 330 601 265 q 574 443 601 395 q 500 516 547 491 q 393 541 453 541 z "},"ğ":{"ha":833,"x_min":94,"x_max":703,"o":"m 609 928 q 637 917 628 924 q 646 896 646 909 q 645 887 646 890 q 573 768 629 810 q 423 726 516 726 q 274 768 330 726 q 201 887 217 810 q 201 896 201 890 q 210 917 201 909 q 237 928 218 924 q 256 930 248 930 q 286 914 279 930 q 335 843 301 866 q 423 820 369 820 q 512 843 478 820 q 561 914 546 866 q 590 930 567 930 q 609 928 599 930 m 386 642 q 509 612 452 642 q 608 526 565 582 l 608 589 q 618 623 608 613 q 654 633 628 633 l 656 633 q 692 623 682 633 q 703 589 703 613 l 703 -20 q 668 -159 703 -101 q 569 -248 634 -217 q 412 -278 504 -278 q 281 -267 347 -278 q 157 -235 214 -256 q 130 -199 130 -225 q 136 -172 130 -188 q 174 -134 148 -134 q 189 -137 182 -134 q 300 -167 242 -156 q 412 -178 359 -178 q 553 -133 506 -178 q 601 -12 601 -89 l 601 125 q 386 19 517 19 q 236 57 302 19 q 132 165 170 94 q 94 330 94 235 q 132 496 94 425 q 236 604 170 566 q 386 642 302 642 m 393 541 q 289 514 332 541 q 222 440 245 488 q 199 330 199 392 q 222 221 199 269 q 289 146 245 173 q 393 119 332 119 q 500 144 453 119 q 574 217 547 170 q 601 330 601 265 q 574 443 601 395 q 500 516 547 491 q 393 541 453 541 z "},"ĝ":{"ha":833,"x_min":94,"x_max":703,"o":"m 423 947 q 463 933 448 947 l 629 775 q 640 753 640 765 q 624 721 640 739 q 594 705 610 705 q 573 713 583 705 l 423 830 l 273 713 q 252 705 263 705 q 222 721 237 705 q 207 753 207 739 q 218 775 207 765 l 384 933 q 423 947 399 947 m 386 642 q 509 612 452 642 q 608 526 565 582 l 608 589 q 618 623 608 613 q 654 633 628 633 l 656 633 q 692 623 682 633 q 703 589 703 613 l 703 -20 q 668 -159 703 -101 q 569 -248 634 -217 q 412 -278 504 -278 q 281 -267 347 -278 q 157 -235 214 -256 q 130 -199 130 -225 q 136 -172 130 -188 q 174 -134 148 -134 q 189 -137 182 -134 q 300 -167 242 -156 q 412 -178 359 -178 q 553 -133 506 -178 q 601 -12 601 -89 l 601 125 q 386 19 517 19 q 236 57 302 19 q 132 165 170 94 q 94 330 94 235 q 132 496 94 425 q 236 604 170 566 q 386 642 302 642 m 393 541 q 289 514 332 541 q 222 440 245 488 q 199 330 199 392 q 222 221 199 269 q 289 146 245 173 q 393 119 332 119 q 500 144 453 119 q 574 217 547 170 q 601 330 601 265 q 574 443 601 395 q 500 516 547 491 q 393 541 453 541 z "},"ģ":{"ha":833,"x_min":94,"x_max":703,"o":"m 376 722 q 357 739 357 722 q 361 756 357 747 l 441 954 q 481 979 451 979 q 492 979 488 979 q 528 949 528 974 q 526 938 528 946 l 484 743 q 455 722 478 722 l 376 722 m 386 642 q 509 612 452 642 q 608 526 565 582 l 608 589 q 618 623 608 613 q 654 633 628 633 l 656 633 q 692 623 682 633 q 703 589 703 613 l 703 -20 q 668 -159 703 -101 q 569 -248 634 -217 q 412 -278 504 -278 q 281 -267 347 -278 q 157 -235 214 -256 q 130 -199 130 -225 q 136 -172 130 -188 q 174 -134 148 -134 q 189 -137 182 -134 q 300 -167 242 -156 q 412 -178 359 -178 q 553 -133 506 -178 q 601 -12 601 -89 l 601 125 q 386 19 517 19 q 236 57 302 19 q 132 165 170 94 q 94 330 94 235 q 132 496 94 425 q 236 604 170 566 q 386 642 302 642 m 393 541 q 289 514 332 541 q 222 440 245 488 q 199 330 199 392 q 222 221 199 269 q 289 146 245 173 q 393 119 332 119 q 500 144 453 119 q 574 217 547 170 q 601 330 601 265 q 574 443 601 395 q 500 516 547 491 q 393 541 453 541 z "},"ġ":{"ha":833,"x_min":94,"x_max":703,"o":"m 423 924 q 474 915 460 924 q 488 880 488 905 l 488 792 q 474 758 488 768 q 423 748 460 748 q 372 758 386 748 q 359 792 359 768 l 359 880 q 372 915 359 905 q 423 924 386 924 m 386 642 q 509 612 452 642 q 608 526 565 582 l 608 589 q 618 623 608 613 q 654 633 628 633 l 656 633 q 692 623 682 633 q 703 589 703 613 l 703 -20 q 668 -159 703 -101 q 569 -248 634 -217 q 412 -278 504 -278 q 281 -267 347 -278 q 157 -235 214 -256 q 130 -199 130 -225 q 136 -172 130 -188 q 174 -134 148 -134 q 189 -137 182 -134 q 300 -167 242 -156 q 412 -178 359 -178 q 553 -133 506 -178 q 601 -12 601 -89 l 601 125 q 386 19 517 19 q 236 57 302 19 q 132 165 170 94 q 94 330 94 235 q 132 496 94 425 q 236 604 170 566 q 386 642 302 642 m 393 541 q 289 514 332 541 q 222 440 245 488 q 199 330 199 392 q 222 221 199 269 q 289 146 245 173 q 393 119 332 119 q 500 144 453 119 q 574 217 547 170 q 601 330 601 265 q 574 443 601 395 q 500 516 547 491 q 393 541 453 541 z "},"h":{"ha":833,"x_min":137,"x_max":708,"o":"m 189 897 q 228 886 216 897 q 239 852 239 876 l 239 488 q 355 600 286 557 q 493 642 425 642 q 652 583 595 642 q 708 420 708 524 l 708 37 q 697 3 708 14 q 658 -7 686 -7 l 656 -7 q 617 3 629 -7 q 606 37 606 14 l 606 410 q 576 506 606 471 q 483 541 546 541 q 368 504 425 541 q 275 404 311 467 q 239 266 239 340 l 239 37 q 228 3 239 14 q 189 -7 216 -7 l 187 -7 q 148 3 159 -7 q 137 37 137 14 l 137 852 q 148 886 137 876 q 187 897 159 897 l 189 897 z "},"ħ":{"ha":833,"x_min":14,"x_max":694,"o":"m 486 601 q 640 542 586 601 q 694 380 694 483 l 694 37 q 683 3 694 14 q 644 -7 672 -7 l 643 -7 q 604 3 615 -7 q 593 37 593 14 l 593 370 q 564 466 593 431 q 476 500 536 500 q 371 465 423 500 q 286 370 319 430 q 252 239 252 309 l 252 37 q 241 3 252 14 q 202 -7 230 -7 l 201 -7 q 162 3 173 -7 q 151 37 151 14 l 151 682 l 56 682 q 23 693 33 682 q 14 731 14 705 q 23 769 14 758 q 56 780 33 780 l 151 780 l 151 852 q 162 886 151 876 q 201 897 173 897 l 202 897 q 241 886 230 897 q 252 852 252 876 l 252 780 l 424 780 q 457 769 447 780 q 467 731 467 758 q 457 693 467 705 q 424 682 447 682 l 252 682 l 252 461 q 360 563 297 525 q 486 601 422 601 z "},"ĥ":{"ha":833,"x_min":137,"x_max":708,"o":"m 410 1198 q 449 1184 434 1198 l 615 1026 q 626 1004 626 1016 q 610 972 626 989 q 581 956 596 956 q 559 964 570 956 l 410 1081 l 260 964 q 239 956 250 956 q 209 972 223 956 q 193 1004 193 989 q 204 1026 193 1016 l 370 1184 q 410 1198 385 1198 m 189 897 q 228 886 216 897 q 239 852 239 876 l 239 488 q 355 600 286 557 q 493 642 425 642 q 652 583 595 642 q 708 420 708 524 l 708 37 q 697 3 708 14 q 658 -7 686 -7 l 656 -7 q 617 3 629 -7 q 606 37 606 14 l 606 410 q 576 506 606 471 q 483 541 546 541 q 368 504 425 541 q 275 404 311 467 q 239 266 239 340 l 239 37 q 228 3 239 14 q 189 -7 216 -7 l 187 -7 q 148 3 159 -7 q 137 37 137 14 l 137 852 q 148 886 137 876 q 187 897 159 897 l 189 897 z "},"i":{"ha":833,"x_min":127,"x_max":744,"o":"m 419 924 q 470 915 456 924 q 484 880 484 905 l 484 792 q 470 758 484 768 q 419 748 456 748 q 368 758 382 748 q 355 792 355 768 l 355 880 q 368 915 355 905 q 419 924 382 924 m 441 627 q 474 616 464 627 q 484 581 484 606 l 484 98 l 701 98 q 734 86 724 98 q 744 49 744 75 q 734 11 744 22 q 701 0 724 0 l 170 0 q 137 11 146 0 q 127 49 127 22 q 137 86 127 75 q 170 98 146 98 l 382 98 l 382 529 l 210 529 q 177 540 187 529 q 168 578 168 551 q 177 615 168 604 q 210 627 187 627 l 441 627 z "},"ı":{"ha":833,"x_min":127,"x_max":744,"o":"m 441 627 q 474 616 464 627 q 484 581 484 606 l 484 98 l 701 98 q 734 86 724 98 q 744 49 744 75 q 734 11 744 22 q 701 0 724 0 l 170 0 q 137 11 146 0 q 127 49 127 22 q 137 86 127 75 q 170 98 146 98 l 382 98 l 382 529 l 210 529 q 177 540 187 529 q 168 578 168 551 q 177 615 168 604 q 210 627 187 627 l 441 627 z "},"í":{"ha":833,"x_min":127,"x_max":744,"o":"m 530 951 q 555 960 542 960 q 600 932 578 960 q 621 886 621 905 q 606 859 621 868 l 352 711 q 330 704 340 704 q 299 721 314 704 q 283 756 283 739 q 294 777 283 769 l 530 951 m 441 627 q 474 616 464 627 q 484 581 484 606 l 484 98 l 701 98 q 734 86 724 98 q 744 49 744 75 q 734 11 744 22 q 701 0 724 0 l 170 0 q 137 11 146 0 q 127 49 127 22 q 137 86 127 75 q 170 98 146 98 l 382 98 l 382 529 l 210 529 q 177 540 187 529 q 168 578 168 551 q 177 615 168 604 q 210 627 187 627 l 441 627 z "},"ĭ":{"ha":833,"x_min":127,"x_max":744,"o":"m 595 928 q 623 917 614 924 q 632 896 632 909 q 631 887 632 890 q 559 768 616 810 q 410 726 503 726 q 260 768 317 726 q 188 887 203 810 q 187 896 187 890 q 196 917 187 909 q 224 928 205 924 q 243 930 234 930 q 272 914 266 930 q 321 843 288 866 q 410 820 355 820 q 498 843 465 820 q 547 914 532 866 q 576 930 553 930 q 595 928 585 930 m 441 627 q 474 616 464 627 q 484 581 484 606 l 484 98 l 701 98 q 734 86 724 98 q 744 49 744 75 q 734 11 744 22 q 701 0 724 0 l 170 0 q 137 11 146 0 q 127 49 127 22 q 137 86 127 75 q 170 98 146 98 l 382 98 l 382 529 l 210 529 q 177 540 187 529 q 168 578 168 551 q 177 615 168 604 q 210 627 187 627 l 441 627 z "},"î":{"ha":833,"x_min":127,"x_max":744,"o":"m 416 947 q 456 933 441 947 l 622 775 q 633 753 633 765 q 617 721 633 739 q 587 705 603 705 q 566 713 576 705 l 416 830 l 267 713 q 245 705 256 705 q 216 721 230 705 q 200 753 200 739 q 211 775 200 765 l 377 933 q 416 947 392 947 m 441 627 q 474 616 464 627 q 484 581 484 606 l 484 98 l 701 98 q 734 86 724 98 q 744 49 744 75 q 734 11 744 22 q 701 0 724 0 l 170 0 q 137 11 146 0 q 127 49 127 22 q 137 86 127 75 q 170 98 146 98 l 382 98 l 382 529 l 210 529 q 177 540 187 529 q 168 578 168 551 q 177 615 168 604 q 210 627 187 627 l 441 627 z "},"ï":{"ha":833,"x_min":127,"x_max":744,"o":"m 274 924 q 325 915 311 924 q 338 880 338 905 l 338 792 q 325 758 338 768 q 274 748 311 748 q 223 758 237 748 q 210 792 210 768 l 210 880 q 223 915 210 905 q 274 924 237 924 m 559 924 q 610 915 596 924 q 623 880 623 905 l 623 792 q 610 758 623 768 q 559 748 596 748 q 508 758 522 748 q 494 792 494 768 l 494 880 q 508 915 494 905 q 559 924 522 924 m 441 627 q 474 616 464 627 q 484 581 484 606 l 484 98 l 701 98 q 734 86 724 98 q 744 49 744 75 q 734 11 744 22 q 701 0 724 0 l 170 0 q 137 11 146 0 q 127 49 127 22 q 137 86 127 75 q 170 98 146 98 l 382 98 l 382 529 l 210 529 q 177 540 187 529 q 168 578 168 551 q 177 615 168 604 q 210 627 187 627 l 441 627 z "},"ì":{"ha":833,"x_min":127,"x_max":744,"o":"m 513 777 q 524 756 524 769 q 508 721 524 739 q 477 704 493 704 q 455 711 467 704 l 201 859 q 186 886 186 868 q 207 932 186 905 q 252 960 229 960 q 277 951 265 960 l 513 777 m 441 627 q 474 616 464 627 q 484 581 484 606 l 484 98 l 701 98 q 734 86 724 98 q 744 49 744 75 q 734 11 744 22 q 701 0 724 0 l 170 0 q 137 11 146 0 q 127 49 127 22 q 137 86 127 75 q 170 98 146 98 l 382 98 l 382 529 l 210 529 q 177 540 187 529 q 168 578 168 551 q 177 615 168 604 q 210 627 187 627 l 441 627 z "},"ĳ":{"ha":833,"x_min":151,"x_max":682,"o":"m 215 924 q 266 915 252 924 q 279 880 279 905 l 279 792 q 266 758 279 768 q 215 748 252 748 q 164 758 178 748 q 151 792 151 768 l 151 880 q 164 915 151 905 q 215 924 178 924 m 618 924 q 669 915 655 924 q 682 880 682 905 l 682 792 q 669 758 682 768 q 618 748 655 748 q 567 758 581 748 q 553 792 553 768 l 553 880 q 567 915 553 905 q 618 924 581 924 m 216 633 q 255 623 243 633 q 266 589 266 613 l 266 37 q 255 3 266 14 q 216 -7 243 -7 l 214 -7 q 175 3 186 -7 q 164 37 164 14 l 164 589 q 175 623 164 613 q 214 633 186 633 l 216 633 m 618 633 q 657 623 646 633 q 669 589 669 613 l 669 -92 q 621 -230 669 -182 q 484 -278 573 -278 q 403 -269 446 -278 q 327 -244 359 -260 q 300 -208 300 -231 q 308 -178 300 -197 q 347 -145 322 -145 q 366 -150 355 -145 q 423 -170 392 -163 q 484 -178 454 -178 q 547 -153 527 -178 q 567 -71 567 -127 l 567 589 q 578 623 567 613 q 617 633 589 633 l 618 633 z "},"ī":{"ha":833,"x_min":127,"x_max":744,"o":"m 587 848 q 620 837 610 848 q 629 799 629 825 q 620 761 629 772 q 587 750 610 750 l 233 750 q 200 761 210 750 q 190 799 190 772 q 200 837 190 825 q 233 848 210 848 l 587 848 m 441 627 q 474 616 464 627 q 484 581 484 606 l 484 98 l 701 98 q 734 86 724 98 q 744 49 744 75 q 734 11 744 22 q 701 0 724 0 l 170 0 q 137 11 146 0 q 127 49 127 22 q 137 86 127 75 q 170 98 146 98 l 382 98 l 382 529 l 210 529 q 177 540 187 529 q 168 578 168 551 q 177 615 168 604 q 210 627 187 627 l 441 627 z "},"į":{"ha":833,"x_min":127,"x_max":744,"o":"m 419 748 q 368 758 382 748 q 355 792 355 768 l 355 880 q 368 915 355 905 q 419 924 382 924 q 470 915 456 924 q 484 880 484 905 l 484 792 q 470 758 484 768 q 419 748 456 748 m 701 98 q 734 86 724 98 q 744 49 744 75 q 734 11 744 22 q 701 0 724 0 l 484 0 q 397 -98 423 -56 q 371 -176 371 -139 q 385 -213 371 -200 q 423 -226 399 -226 q 500 -214 458 -226 q 507 -213 505 -213 q 534 -250 528 -213 q 535 -267 535 -262 q 529 -290 535 -281 q 512 -302 524 -298 q 401 -320 461 -320 q 301 -285 338 -320 q 265 -191 265 -250 q 292 -94 265 -141 q 371 0 319 -47 l 170 0 q 137 11 146 0 q 127 49 127 22 q 137 86 127 75 q 170 98 146 98 l 382 98 l 382 529 l 210 529 q 177 540 187 529 q 168 578 168 551 q 177 615 168 604 q 210 627 187 627 l 441 627 q 474 616 464 627 q 484 581 484 606 l 484 98 l 701 98 z "},"ĩ":{"ha":833,"x_min":127,"x_max":744,"o":"m 321 892 q 365 885 345 892 q 411 867 384 879 q 451 850 435 855 q 485 844 467 844 q 527 856 507 844 q 570 890 548 867 q 590 899 578 899 q 622 882 607 899 q 636 851 636 867 q 627 827 636 838 q 557 764 594 785 q 484 743 520 743 q 441 750 460 743 q 395 768 422 756 q 355 785 371 780 q 321 791 338 791 q 278 779 299 791 q 235 745 258 768 q 216 736 227 736 q 184 753 199 736 q 170 784 170 768 q 179 808 170 797 q 249 871 212 850 q 321 892 286 892 m 441 627 q 474 616 464 627 q 484 581 484 606 l 484 98 l 701 98 q 734 86 724 98 q 744 49 744 75 q 734 11 744 22 q 701 0 724 0 l 170 0 q 137 11 146 0 q 127 49 127 22 q 137 86 127 75 q 170 98 146 98 l 382 98 l 382 529 l 210 529 q 177 540 187 529 q 168 578 168 551 q 177 615 168 604 q 210 627 187 627 l 441 627 z "},"j":{"ha":833,"x_min":129,"x_max":612,"o":"m 548 924 q 599 915 585 924 q 612 880 612 905 l 612 792 q 599 758 612 768 q 548 748 585 748 q 497 758 511 748 q 484 792 484 768 l 484 880 q 497 915 484 905 q 548 924 511 924 m 570 627 q 603 616 593 627 q 612 581 612 606 l 612 -39 q 559 -218 612 -158 q 391 -278 506 -278 q 269 -257 334 -278 q 151 -202 204 -235 q 129 -167 129 -189 q 138 -136 129 -154 q 177 -105 154 -105 q 198 -112 189 -105 q 295 -161 245 -142 q 391 -179 345 -179 q 484 -143 457 -179 q 511 -30 511 -107 l 511 529 l 224 529 q 191 540 201 529 q 181 578 181 551 q 191 615 181 604 q 224 627 201 627 l 570 627 z "},"ȷ":{"ha":833,"x_min":129,"x_max":612,"o":"m 570 627 q 603 616 593 627 q 612 581 612 606 l 612 -39 q 559 -218 612 -158 q 391 -278 506 -278 q 269 -257 334 -278 q 151 -202 204 -235 q 129 -167 129 -189 q 138 -136 129 -154 q 177 -105 154 -105 q 198 -112 189 -105 q 295 -161 245 -142 q 391 -179 345 -179 q 484 -143 457 -179 q 511 -30 511 -107 l 511 529 l 224 529 q 191 540 201 529 q 181 578 181 551 q 191 615 181 604 q 224 627 201 627 l 570 627 z "},"ĵ":{"ha":833,"x_min":129,"x_max":707,"o":"m 696 775 q 707 753 707 765 q 692 721 707 739 q 662 705 677 705 q 641 713 651 705 l 491 830 l 341 713 q 320 705 331 705 q 290 721 304 705 q 275 753 275 739 q 286 775 275 765 l 452 933 q 491 947 467 947 q 530 933 515 947 l 696 775 m 570 627 q 603 616 593 627 q 612 581 612 606 l 612 -39 q 559 -218 612 -158 q 391 -278 506 -278 q 269 -257 334 -278 q 151 -202 204 -235 q 129 -167 129 -189 q 138 -136 129 -154 q 177 -105 154 -105 q 198 -112 189 -105 q 295 -161 245 -142 q 391 -179 345 -179 q 484 -143 457 -179 q 511 -30 511 -107 l 511 529 l 224 529 q 191 540 201 529 q 181 578 181 551 q 191 615 181 604 q 224 627 201 627 l 570 627 z "},"k":{"ha":833,"x_min":157,"x_max":732,"o":"m 719 64 q 732 37 732 50 q 704 3 732 19 q 663 -11 680 -11 q 636 2 648 -11 l 381 283 l 259 176 l 259 37 q 248 3 259 14 q 209 -7 237 -7 l 208 -7 q 169 3 180 -7 q 157 37 157 14 l 157 852 q 169 886 157 876 q 208 897 180 897 l 209 897 q 248 886 237 897 q 259 852 259 876 l 259 307 l 618 627 q 650 639 632 639 q 688 627 667 639 q 716 591 716 610 q 702 565 716 577 l 458 350 l 719 64 z "},"ķ":{"ha":833,"x_min":157,"x_max":732,"o":"m 719 64 q 732 37 732 50 q 704 3 732 19 q 663 -11 680 -11 q 636 2 648 -11 l 381 283 l 259 176 l 259 37 q 248 3 259 14 q 209 -7 237 -7 l 208 -7 q 169 3 180 -7 q 157 37 157 14 l 157 852 q 169 886 157 876 q 208 897 180 897 l 209 897 q 248 886 237 897 q 259 852 259 876 l 259 307 l 618 627 q 650 639 632 639 q 688 627 667 639 q 716 591 716 610 q 702 565 716 577 l 458 350 l 719 64 m 473 -99 q 492 -117 492 -99 q 488 -134 492 -125 l 409 -331 q 369 -357 399 -357 q 357 -356 361 -357 q 322 -326 322 -351 q 323 -315 322 -323 l 366 -121 q 395 -99 372 -99 l 473 -99 z "},"l":{"ha":833,"x_min":120,"x_max":737,"o":"m 694 98 q 727 86 718 98 q 737 49 737 75 q 727 11 737 22 q 694 0 718 0 l 163 0 q 130 11 140 0 q 120 49 120 22 q 130 86 120 75 q 163 98 140 98 l 375 98 l 375 792 l 190 792 q 157 803 167 792 q 147 841 147 814 q 157 879 147 867 q 190 890 167 890 l 434 890 q 467 879 457 890 q 477 844 477 869 l 477 98 l 694 98 z "},"ĺ":{"ha":833,"x_min":120,"x_max":737,"o":"m 330 962 q 309 955 318 955 q 277 972 292 955 q 261 1007 261 990 q 272 1028 261 1020 l 508 1202 q 533 1211 520 1211 q 578 1183 556 1211 q 599 1137 599 1156 q 584 1110 599 1119 l 330 962 m 694 98 q 727 86 718 98 q 737 49 737 75 q 727 11 737 22 q 694 0 718 0 l 163 0 q 130 11 140 0 q 120 49 120 22 q 130 86 120 75 q 163 98 140 98 l 375 98 l 375 792 l 190 792 q 157 803 167 792 q 147 841 147 814 q 157 879 147 867 q 190 890 167 890 l 434 890 q 467 879 457 890 q 477 844 477 869 l 477 98 l 694 98 z "},"ľ":{"ha":833,"x_min":100,"x_max":765,"o":"m 674 98 q 707 86 697 98 q 717 49 717 75 q 707 11 717 22 q 674 0 697 0 l 142 0 q 110 11 119 0 q 100 49 100 22 q 110 86 100 75 q 142 98 119 98 l 355 98 l 355 792 l 170 792 q 137 803 146 792 q 127 841 127 814 q 137 879 127 867 q 170 890 146 890 l 414 890 q 447 879 437 890 q 456 844 456 869 l 456 98 l 674 98 m 747 890 q 760 885 755 890 q 765 871 765 880 q 762 855 765 865 l 671 609 q 621 585 662 585 q 591 592 602 585 q 581 613 581 600 q 583 623 581 616 l 638 868 q 667 890 644 890 l 747 890 z "},"ļ":{"ha":833,"x_min":120,"x_max":737,"o":"m 694 98 q 727 86 718 98 q 737 49 737 75 q 727 11 737 22 q 694 0 718 0 l 163 0 q 130 11 140 0 q 120 49 120 22 q 130 86 120 75 q 163 98 140 98 l 375 98 l 375 792 l 190 792 q 157 803 167 792 q 147 841 147 814 q 157 879 147 867 q 190 890 167 890 l 434 890 q 467 879 457 890 q 477 844 477 869 l 477 98 l 694 98 m 469 -99 q 488 -117 488 -99 q 484 -134 488 -125 l 405 -331 q 365 -357 395 -357 q 353 -356 357 -357 q 318 -326 318 -351 q 319 -315 318 -323 l 362 -121 q 391 -99 368 -99 l 469 -99 z "},"ŀ":{"ha":833,"x_min":100,"x_max":725,"o":"m 674 98 q 707 86 697 98 q 717 49 717 75 q 707 11 717 22 q 674 0 697 0 l 142 0 q 110 11 119 0 q 100 49 100 22 q 110 86 100 75 q 142 98 119 98 l 355 98 l 355 792 l 170 792 q 137 803 146 792 q 127 841 127 814 q 137 879 127 867 q 170 890 146 890 l 414 890 q 447 879 437 890 q 456 844 456 869 l 456 98 l 674 98 m 661 585 q 711 575 698 585 q 725 541 725 566 l 725 453 q 711 419 725 429 q 661 409 698 409 q 610 419 623 409 q 596 453 596 429 l 596 541 q 610 575 596 566 q 661 585 623 585 z "},"ł":{"ha":833,"x_min":120,"x_max":737,"o":"m 694 98 q 727 86 718 98 q 737 49 737 75 q 727 11 737 22 q 694 0 718 0 l 163 0 q 130 11 140 0 q 120 49 120 22 q 130 86 120 75 q 163 98 140 98 l 375 98 l 375 378 l 256 297 q 229 286 240 286 q 195 311 212 286 q 182 342 182 330 q 204 373 182 359 l 375 489 l 375 792 l 190 792 q 157 803 167 792 q 147 841 147 814 q 157 879 147 867 q 190 890 167 890 l 434 890 q 467 879 457 890 q 477 844 477 869 l 477 558 l 590 635 q 617 646 606 646 q 652 621 635 646 q 664 591 664 603 q 642 559 664 574 l 477 447 l 477 98 l 694 98 z "},"m":{"ha":833,"x_min":82,"x_max":752,"o":"m 612 642 q 683 622 652 642 q 733 561 715 602 q 752 460 752 519 l 752 37 q 741 3 752 14 q 702 -7 730 -7 l 701 -7 q 662 3 673 -7 q 650 37 650 14 l 650 448 q 635 518 650 494 q 586 541 620 541 q 527 512 554 541 q 484 430 500 482 q 468 310 468 377 l 468 37 q 457 3 468 14 q 418 -7 446 -7 l 416 -7 q 377 3 389 -7 q 366 37 366 14 l 366 448 q 351 518 366 494 q 302 541 336 541 q 243 512 270 541 q 200 430 216 482 q 184 310 184 377 l 184 37 q 173 3 184 14 q 134 -7 161 -7 l 132 -7 q 93 3 104 -7 q 82 37 82 14 l 82 589 q 91 623 82 613 q 125 633 100 633 l 127 633 q 161 623 152 633 q 170 589 170 613 l 170 513 q 240 609 199 577 q 328 642 281 642 q 409 610 374 642 q 456 519 444 579 q 612 642 516 642 z "},"n":{"ha":833,"x_min":137,"x_max":708,"o":"m 493 642 q 652 583 595 642 q 708 420 708 524 l 708 37 q 697 3 708 14 q 658 -7 686 -7 l 656 -7 q 617 3 629 -7 q 606 37 606 14 l 606 410 q 576 506 606 471 q 483 541 546 541 q 368 504 425 541 q 275 404 311 467 q 239 266 239 340 l 239 37 q 228 3 239 14 q 189 -7 216 -7 l 187 -7 q 148 3 159 -7 q 137 37 137 14 l 137 589 q 147 623 137 613 q 184 633 157 633 l 185 633 q 222 623 212 633 q 232 589 232 613 l 232 479 q 349 596 278 550 q 493 642 420 642 z "},"ń":{"ha":833,"x_min":137,"x_max":708,"o":"m 528 951 q 553 960 541 960 q 599 932 576 960 q 619 886 619 905 q 604 859 619 868 l 351 711 q 329 704 338 704 q 298 721 313 704 q 281 756 281 739 q 292 777 281 769 l 528 951 m 493 642 q 652 583 595 642 q 708 420 708 524 l 708 37 q 697 3 708 14 q 658 -7 686 -7 l 656 -7 q 617 3 629 -7 q 606 37 606 14 l 606 410 q 576 506 606 471 q 483 541 546 541 q 368 504 425 541 q 275 404 311 467 q 239 266 239 340 l 239 37 q 228 3 239 14 q 189 -7 216 -7 l 187 -7 q 148 3 159 -7 q 137 37 137 14 l 137 589 q 147 623 137 613 q 184 633 157 633 l 185 633 q 222 623 212 633 q 232 589 232 613 l 232 479 q 349 596 278 550 q 493 642 420 642 z "},"ň":{"ha":833,"x_min":137,"x_max":708,"o":"m 423 706 q 384 720 399 706 l 218 878 q 207 900 207 888 q 222 932 207 914 q 252 948 237 948 q 273 940 263 948 l 423 823 l 573 940 q 594 948 583 948 q 624 932 610 948 q 640 900 640 914 q 629 878 640 888 l 463 720 q 423 706 448 706 m 493 642 q 652 583 595 642 q 708 420 708 524 l 708 37 q 697 3 708 14 q 658 -7 686 -7 l 656 -7 q 617 3 629 -7 q 606 37 606 14 l 606 410 q 576 506 606 471 q 483 541 546 541 q 368 504 425 541 q 275 404 311 467 q 239 266 239 340 l 239 37 q 228 3 239 14 q 189 -7 216 -7 l 187 -7 q 148 3 159 -7 q 137 37 137 14 l 137 589 q 147 623 137 613 q 184 633 157 633 l 185 633 q 222 623 212 633 q 232 589 232 613 l 232 479 q 349 596 278 550 q 493 642 420 642 z "},"ņ":{"ha":833,"x_min":137,"x_max":708,"o":"m 493 642 q 652 583 595 642 q 708 420 708 524 l 708 37 q 697 3 708 14 q 658 -7 686 -7 l 656 -7 q 617 3 629 -7 q 606 37 606 14 l 606 410 q 576 506 606 471 q 483 541 546 541 q 368 504 425 541 q 275 404 311 467 q 239 266 239 340 l 239 37 q 228 3 239 14 q 189 -7 216 -7 l 187 -7 q 148 3 159 -7 q 137 37 137 14 l 137 589 q 147 623 137 613 q 184 633 157 633 l 185 633 q 222 623 212 633 q 232 589 232 613 l 232 479 q 349 596 278 550 q 493 642 420 642 m 467 -99 q 486 -117 486 -99 q 481 -134 486 -125 l 402 -331 q 362 -357 392 -357 q 351 -356 355 -357 q 315 -326 315 -351 q 317 -315 315 -323 l 359 -121 q 388 -99 365 -99 l 467 -99 z "},"ŋ":{"ha":833,"x_min":137,"x_max":708,"o":"m 493 642 q 652 583 595 642 q 708 420 708 524 l 708 -92 q 660 -230 708 -182 q 523 -278 612 -278 q 443 -269 484 -278 q 366 -244 402 -260 q 340 -209 340 -233 q 347 -180 340 -198 q 385 -148 361 -148 q 404 -152 395 -148 q 524 -179 469 -179 q 586 -154 566 -179 q 606 -73 606 -129 l 606 410 q 576 506 606 471 q 483 541 546 541 q 368 504 425 541 q 275 404 311 467 q 239 266 239 340 l 239 37 q 228 3 239 14 q 189 -7 216 -7 l 187 -7 q 148 3 159 -7 q 137 37 137 14 l 137 589 q 147 623 137 613 q 184 633 157 633 l 185 633 q 222 623 212 633 q 232 589 232 613 l 232 479 q 349 596 278 550 q 493 642 420 642 z "},"ñ":{"ha":833,"x_min":137,"x_max":708,"o":"m 342 892 q 385 885 366 892 q 431 867 404 879 q 471 850 455 855 q 505 844 488 844 q 548 856 527 844 q 591 890 568 867 q 610 899 599 899 q 642 882 627 899 q 656 851 656 867 q 647 827 656 838 q 577 764 614 785 q 505 743 541 743 q 461 750 481 743 q 415 768 442 756 q 375 785 391 780 q 341 791 359 791 q 299 779 319 791 q 256 745 278 768 q 236 736 248 736 q 204 753 219 736 q 190 784 190 768 q 199 808 190 797 q 269 871 232 850 q 342 892 306 892 m 493 642 q 652 583 595 642 q 708 420 708 524 l 708 37 q 697 3 708 14 q 658 -7 686 -7 l 656 -7 q 617 3 629 -7 q 606 37 606 14 l 606 410 q 576 506 606 471 q 483 541 546 541 q 368 504 425 541 q 275 404 311 467 q 239 266 239 340 l 239 37 q 228 3 239 14 q 189 -7 216 -7 l 187 -7 q 148 3 159 -7 q 137 37 137 14 l 137 589 q 147 623 137 613 q 184 633 157 633 l 185 633 q 222 623 212 633 q 232 589 232 613 l 232 479 q 349 596 278 550 q 493 642 420 642 z "},"o":{"ha":833,"x_min":91,"x_max":742,"o":"m 416 642 q 583 600 509 642 q 700 483 657 557 q 742 313 742 408 q 700 144 742 219 q 583 27 657 69 q 416 -15 509 -15 q 250 27 324 -15 q 133 144 176 69 q 91 313 91 219 q 133 483 91 408 q 250 600 176 557 q 416 642 324 642 m 416 541 q 300 512 351 541 q 223 432 250 484 q 195 313 195 380 q 223 195 195 247 q 300 114 250 143 q 416 85 351 85 q 532 114 482 85 q 610 195 583 143 q 637 313 637 247 q 610 432 637 380 q 532 512 583 484 q 416 541 482 541 z "},"ó":{"ha":833,"x_min":91,"x_max":742,"o":"m 515 951 q 540 960 527 960 q 585 932 563 960 q 606 886 606 905 q 591 859 606 868 l 337 711 q 315 704 325 704 q 284 721 299 704 q 268 756 268 739 q 279 777 268 769 l 515 951 m 416 642 q 583 600 509 642 q 700 483 657 557 q 742 313 742 408 q 700 144 742 219 q 583 27 657 69 q 416 -15 509 -15 q 250 27 324 -15 q 133 144 176 69 q 91 313 91 219 q 133 483 91 408 q 250 600 176 557 q 416 642 324 642 m 416 541 q 300 512 351 541 q 223 432 250 484 q 195 313 195 380 q 223 195 195 247 q 300 114 250 143 q 416 85 351 85 q 532 114 482 85 q 610 195 583 143 q 637 313 637 247 q 610 432 637 380 q 532 512 583 484 q 416 541 482 541 z "},"ŏ":{"ha":833,"x_min":91,"x_max":742,"o":"m 602 928 q 630 917 621 924 q 639 896 639 909 q 638 887 639 890 q 566 768 623 810 q 416 726 509 726 q 267 768 323 726 q 195 887 210 810 q 194 896 194 890 q 203 917 194 909 q 231 928 212 924 q 250 930 241 930 q 279 914 273 930 q 328 843 294 866 q 416 820 362 820 q 505 843 471 820 q 554 914 539 866 q 583 930 560 930 q 602 928 592 930 m 416 642 q 583 600 509 642 q 700 483 657 557 q 742 313 742 408 q 700 144 742 219 q 583 27 657 69 q 416 -15 509 -15 q 250 27 324 -15 q 133 144 176 69 q 91 313 91 219 q 133 483 91 408 q 250 600 176 557 q 416 642 324 642 m 416 541 q 300 512 351 541 q 223 432 250 484 q 195 313 195 380 q 223 195 195 247 q 300 114 250 143 q 416 85 351 85 q 532 114 482 85 q 610 195 583 143 q 637 313 637 247 q 610 432 637 380 q 532 512 583 484 q 416 541 482 541 z "},"ô":{"ha":833,"x_min":91,"x_max":742,"o":"m 416 947 q 456 933 441 947 l 622 775 q 633 753 633 765 q 617 721 633 739 q 587 705 603 705 q 566 713 576 705 l 416 830 l 267 713 q 245 705 256 705 q 216 721 230 705 q 200 753 200 739 q 211 775 200 765 l 377 933 q 416 947 392 947 m 416 642 q 583 600 509 642 q 700 483 657 557 q 742 313 742 408 q 700 144 742 219 q 583 27 657 69 q 416 -15 509 -15 q 250 27 324 -15 q 133 144 176 69 q 91 313 91 219 q 133 483 91 408 q 250 600 176 557 q 416 642 324 642 m 416 541 q 300 512 351 541 q 223 432 250 484 q 195 313 195 380 q 223 195 195 247 q 300 114 250 143 q 416 85 351 85 q 532 114 482 85 q 610 195 583 143 q 637 313 637 247 q 610 432 637 380 q 532 512 583 484 q 416 541 482 541 z "},"ö":{"ha":833,"x_min":91,"x_max":742,"o":"m 274 924 q 325 915 311 924 q 338 880 338 905 l 338 792 q 325 758 338 768 q 274 748 311 748 q 223 758 237 748 q 210 792 210 768 l 210 880 q 223 915 210 905 q 274 924 237 924 m 559 924 q 610 915 596 924 q 623 880 623 905 l 623 792 q 610 758 623 768 q 559 748 596 748 q 508 758 522 748 q 494 792 494 768 l 494 880 q 508 915 494 905 q 559 924 522 924 m 416 642 q 583 600 509 642 q 700 483 657 557 q 742 313 742 408 q 700 144 742 219 q 583 27 657 69 q 416 -15 509 -15 q 250 27 324 -15 q 133 144 176 69 q 91 313 91 219 q 133 483 91 408 q 250 600 176 557 q 416 642 324 642 m 416 541 q 300 512 351 541 q 223 432 250 484 q 195 313 195 380 q 223 195 195 247 q 300 114 250 143 q 416 85 351 85 q 532 114 482 85 q 610 195 583 143 q 637 313 637 247 q 610 432 637 380 q 532 512 583 484 q 416 541 482 541 z "},"ò":{"ha":833,"x_min":91,"x_max":742,"o":"m 554 777 q 565 756 565 769 q 549 721 565 739 q 517 704 534 704 q 496 711 508 704 l 242 859 q 227 886 227 868 q 248 932 227 905 q 293 960 270 960 q 318 951 306 960 l 554 777 m 416 642 q 583 600 509 642 q 700 483 657 557 q 742 313 742 408 q 700 144 742 219 q 583 27 657 69 q 416 -15 509 -15 q 250 27 324 -15 q 133 144 176 69 q 91 313 91 219 q 133 483 91 408 q 250 600 176 557 q 416 642 324 642 m 416 541 q 300 512 351 541 q 223 432 250 484 q 195 313 195 380 q 223 195 195 247 q 300 114 250 143 q 416 85 351 85 q 532 114 482 85 q 610 195 583 143 q 637 313 637 247 q 610 432 637 380 q 532 512 583 484 q 416 541 482 541 z "},"ő":{"ha":833,"x_min":91,"x_max":748,"o":"m 460 935 q 490 897 490 916 q 477 872 490 884 l 294 714 q 269 705 283 705 q 235 716 254 705 q 215 744 215 729 q 222 760 215 753 l 382 931 q 420 948 398 948 q 460 935 439 948 m 718 935 q 748 897 748 916 q 735 872 748 884 l 552 714 q 527 705 541 705 q 493 716 512 705 q 473 744 473 729 q 479 760 473 753 l 640 931 q 677 948 656 948 q 718 935 696 948 m 416 642 q 583 600 509 642 q 700 483 657 557 q 742 313 742 408 q 700 144 742 219 q 583 27 657 69 q 416 -15 509 -15 q 250 27 324 -15 q 133 144 176 69 q 91 313 91 219 q 133 483 91 408 q 250 600 176 557 q 416 642 324 642 m 416 541 q 300 512 351 541 q 223 432 250 484 q 195 313 195 380 q 223 195 195 247 q 300 114 250 143 q 416 85 351 85 q 532 114 482 85 q 610 195 583 143 q 637 313 637 247 q 610 432 637 380 q 532 512 583 484 q 416 541 482 541 z "},"ō":{"ha":833,"x_min":91,"x_max":742,"o":"m 593 848 q 626 837 616 848 q 636 799 636 825 q 626 761 636 772 q 593 750 616 750 l 239 750 q 207 761 216 750 q 197 799 197 772 q 207 837 197 825 q 239 848 216 848 l 593 848 m 416 642 q 583 600 509 642 q 700 483 657 557 q 742 313 742 408 q 700 144 742 219 q 583 27 657 69 q 416 -15 509 -15 q 250 27 324 -15 q 133 144 176 69 q 91 313 91 219 q 133 483 91 408 q 250 600 176 557 q 416 642 324 642 m 416 541 q 300 512 351 541 q 223 432 250 484 q 195 313 195 380 q 223 195 195 247 q 300 114 250 143 q 416 85 351 85 q 532 114 482 85 q 610 195 583 143 q 637 313 637 247 q 610 432 637 380 q 532 512 583 484 q 416 541 482 541 z "},"ø":{"ha":833,"x_min":57,"x_max":776,"o":"m 758 643 q 776 609 776 624 q 759 578 776 594 l 685 507 q 727 417 712 466 q 742 313 742 368 q 700 144 742 219 q 583 27 657 69 q 416 -15 509 -15 q 307 2 358 -15 q 213 52 255 20 l 139 -20 q 109 -35 122 -35 q 75 -16 94 -35 q 57 18 57 3 q 73 48 57 32 l 148 120 q 106 210 121 161 q 91 313 91 259 q 133 483 91 408 q 250 600 176 557 q 416 642 324 642 q 526 624 475 642 q 620 575 578 607 l 693 646 q 724 662 710 662 q 758 643 739 662 m 195 313 q 224 193 195 246 l 545 504 q 416 541 491 541 q 300 512 351 541 q 223 432 250 484 q 195 313 195 380 m 637 313 q 609 433 637 380 l 287 123 q 416 85 342 85 q 532 114 482 85 q 610 195 583 143 q 637 313 637 247 z "},"õ":{"ha":833,"x_min":91,"x_max":742,"o":"m 335 892 q 378 885 359 892 q 425 867 397 879 q 465 850 448 855 q 498 844 481 844 q 541 856 520 844 q 584 890 562 867 q 604 899 592 899 q 635 882 621 899 q 650 851 650 867 q 640 827 650 838 q 571 764 608 785 q 498 743 534 743 q 455 750 474 743 q 408 768 435 756 q 368 785 385 780 q 334 791 352 791 q 292 779 313 791 q 249 745 271 768 q 229 736 241 736 q 197 753 212 736 q 183 784 183 768 q 193 808 183 797 q 262 871 225 850 q 335 892 299 892 m 416 642 q 583 600 509 642 q 700 483 657 557 q 742 313 742 408 q 700 144 742 219 q 583 27 657 69 q 416 -15 509 -15 q 250 27 324 -15 q 133 144 176 69 q 91 313 91 219 q 133 483 91 408 q 250 600 176 557 q 416 642 324 642 m 416 541 q 300 512 351 541 q 223 432 250 484 q 195 313 195 380 q 223 195 195 247 q 300 114 250 143 q 416 85 351 85 q 532 114 482 85 q 610 195 583 143 q 637 313 637 247 q 610 432 637 380 q 532 512 583 484 q 416 541 482 541 z "},"œ":{"ha":833,"x_min":47,"x_max":781,"o":"m 578 642 q 729 563 682 642 q 781 340 777 484 q 771 308 781 318 q 738 298 761 298 l 467 298 q 578 83 471 83 q 638 96 611 83 q 694 136 665 109 q 720 148 705 148 q 758 127 741 148 q 772 93 772 110 q 754 57 772 74 q 672 3 717 22 q 578 -15 627 -15 q 484 8 526 -15 q 416 79 443 32 q 259 -15 365 -15 q 101 70 155 -15 q 47 313 47 155 q 101 556 47 471 q 259 642 155 642 q 416 547 365 642 q 484 618 443 594 q 578 642 526 642 m 580 543 q 505 508 532 543 q 471 393 479 473 l 674 393 q 647 505 669 467 q 580 543 625 543 m 259 541 q 180 487 205 541 q 155 313 155 432 q 180 140 155 195 q 259 85 205 85 q 338 140 313 85 q 363 313 363 195 q 338 487 363 432 q 259 541 313 541 z "},"p":{"ha":833,"x_min":130,"x_max":739,"o":"m 447 642 q 597 602 531 642 q 701 488 663 562 q 739 313 739 414 q 701 139 739 213 q 597 25 663 64 q 447 -15 531 -15 q 232 97 319 -15 l 232 -226 q 221 -260 232 -250 q 182 -270 210 -270 l 180 -270 q 141 -260 153 -270 q 130 -226 130 -250 l 130 589 q 140 623 130 613 q 177 633 151 633 l 178 633 q 215 623 205 633 q 225 589 225 613 l 225 526 q 324 612 268 582 q 447 642 380 642 m 440 541 q 333 514 380 541 q 259 435 286 487 q 232 313 232 384 q 259 191 232 243 q 333 113 286 140 q 440 85 380 85 q 544 114 500 85 q 611 195 588 143 q 634 313 634 247 q 611 432 634 380 q 544 512 588 484 q 440 541 500 541 z "},"þ":{"ha":833,"x_min":130,"x_max":739,"o":"m 182 897 q 221 886 210 897 q 232 852 232 876 l 232 534 q 329 613 274 585 q 447 642 383 642 q 597 602 531 642 q 701 488 663 562 q 739 313 739 414 q 701 139 739 213 q 597 25 663 64 q 447 -15 531 -15 q 232 97 319 -15 l 232 -226 q 221 -260 232 -250 q 182 -270 210 -270 l 180 -270 q 141 -260 153 -270 q 130 -226 130 -250 l 130 852 q 141 886 130 876 q 180 897 153 897 l 182 897 m 440 541 q 333 514 380 541 q 259 435 286 487 q 232 313 232 384 q 259 191 232 243 q 333 113 286 140 q 440 85 380 85 q 544 114 500 85 q 611 195 588 143 q 634 313 634 247 q 611 432 634 380 q 544 512 588 484 q 440 541 500 541 z "},"q":{"ha":833,"x_min":94,"x_max":703,"o":"m 386 642 q 509 612 452 642 q 608 526 565 582 l 608 589 q 618 623 608 613 q 654 633 628 633 l 656 633 q 692 623 682 633 q 703 589 703 613 l 703 -226 q 691 -260 703 -250 q 652 -270 680 -270 l 651 -270 q 612 -260 623 -270 q 601 -226 601 -250 l 601 97 q 386 -15 513 -15 q 236 25 302 -15 q 132 139 170 64 q 94 313 94 213 q 132 488 94 414 q 236 602 170 562 q 386 642 302 642 m 393 541 q 289 512 332 541 q 222 432 245 484 q 199 313 199 380 q 222 195 199 247 q 289 114 245 143 q 393 85 332 85 q 500 113 453 85 q 574 191 547 140 q 601 313 601 243 q 574 435 601 384 q 500 514 547 487 q 393 541 453 541 z "},"r":{"ha":833,"x_min":208,"x_max":736,"o":"m 614 642 q 703 627 658 642 q 736 584 736 616 q 733 563 736 573 q 719 529 727 541 q 697 518 710 518 q 682 521 690 518 q 608 533 644 533 q 461 486 530 533 q 351 358 393 438 q 310 183 310 277 l 310 37 q 299 3 310 14 q 260 -7 288 -7 l 258 -7 q 219 3 231 -7 q 208 37 208 14 l 208 589 q 218 623 208 613 q 255 633 229 633 l 256 633 q 293 623 283 633 q 303 589 303 613 l 303 430 q 443 586 362 530 q 614 642 524 642 z "},"ŕ":{"ha":833,"x_min":208,"x_max":736,"o":"m 584 951 q 609 960 596 960 q 654 932 632 960 q 675 886 675 905 q 660 859 675 868 l 406 711 q 385 704 394 704 q 353 721 368 704 q 337 756 337 739 q 348 777 337 769 l 584 951 m 614 642 q 703 627 658 642 q 736 584 736 616 q 733 563 736 573 q 719 529 727 541 q 697 518 710 518 q 682 521 690 518 q 608 533 644 533 q 461 486 530 533 q 351 358 393 438 q 310 183 310 277 l 310 37 q 299 3 310 14 q 260 -7 288 -7 l 258 -7 q 219 3 231 -7 q 208 37 208 14 l 208 589 q 218 623 208 613 q 255 633 229 633 l 256 633 q 293 623 283 633 q 303 589 303 613 l 303 430 q 443 586 362 530 q 614 642 524 642 z "},"ř":{"ha":833,"x_min":208,"x_max":736,"o":"m 464 706 q 425 720 439 706 l 258 878 q 248 900 248 888 q 263 932 248 914 q 293 948 277 948 q 314 940 304 948 l 464 823 l 614 940 q 635 948 624 948 q 665 932 650 948 q 680 900 680 914 q 669 878 680 888 l 503 720 q 464 706 488 706 m 614 642 q 703 627 658 642 q 736 584 736 616 q 733 563 736 573 q 719 529 727 541 q 697 518 710 518 q 682 521 690 518 q 608 533 644 533 q 461 486 530 533 q 351 358 393 438 q 310 183 310 277 l 310 37 q 299 3 310 14 q 260 -7 288 -7 l 258 -7 q 219 3 231 -7 q 208 37 208 14 l 208 589 q 218 623 208 613 q 255 633 229 633 l 256 633 q 293 623 283 633 q 303 589 303 613 l 303 430 q 443 586 362 530 q 614 642 524 642 z "},"ŗ":{"ha":833,"x_min":208,"x_max":736,"o":"m 614 642 q 703 627 658 642 q 736 584 736 616 q 733 563 736 573 q 719 529 727 541 q 697 518 710 518 q 682 521 690 518 q 608 533 644 533 q 461 486 530 533 q 351 358 393 438 q 310 183 310 277 l 310 37 q 299 3 310 14 q 260 -7 288 -7 l 258 -7 q 219 3 231 -7 q 208 37 208 14 l 208 589 q 218 623 208 613 q 255 633 229 633 l 256 633 q 293 623 283 633 q 303 589 303 613 l 303 430 q 443 586 362 530 q 614 642 524 642 m 399 -99 q 418 -117 418 -99 q 414 -134 418 -125 l 334 -331 q 294 -357 324 -357 q 283 -356 287 -357 q 248 -326 248 -351 q 249 -315 248 -323 l 292 -121 q 320 -99 297 -99 l 399 -99 z "},"s":{"ha":833,"x_min":121,"x_max":711,"o":"m 444 -15 q 147 53 271 -15 q 121 92 121 68 q 129 121 121 104 q 165 153 145 153 q 186 147 176 153 q 306 100 242 116 q 437 83 370 83 q 563 112 520 83 q 606 188 606 140 q 592 225 606 211 q 551 249 578 240 q 497 261 528 256 q 417 270 466 265 q 309 283 351 276 q 231 304 267 290 q 156 357 182 323 q 129 448 129 392 q 162 554 129 510 q 252 620 195 597 q 382 642 309 642 q 655 583 538 642 q 682 544 682 569 q 675 515 682 530 q 639 481 660 481 q 618 487 632 481 q 387 543 508 543 q 274 519 315 543 q 233 448 233 494 q 247 413 233 427 q 286 392 260 400 q 336 381 308 385 q 414 372 363 377 q 520 360 477 367 q 600 340 563 354 q 681 284 652 321 q 711 188 711 248 q 680 81 711 127 q 590 10 650 35 q 444 -15 530 -15 z "},"ś":{"ha":833,"x_min":121,"x_max":711,"o":"m 515 951 q 540 960 527 960 q 585 932 563 960 q 606 886 606 905 q 591 859 606 868 l 337 711 q 315 704 325 704 q 284 721 299 704 q 268 756 268 739 q 279 777 268 769 l 515 951 m 444 -15 q 147 53 271 -15 q 121 92 121 68 q 129 121 121 104 q 165 153 145 153 q 186 147 176 153 q 306 100 242 116 q 437 83 370 83 q 563 112 520 83 q 606 188 606 140 q 592 225 606 211 q 551 249 578 240 q 497 261 528 256 q 417 270 466 265 q 309 283 351 276 q 231 304 267 290 q 156 357 182 323 q 129 448 129 392 q 162 554 129 510 q 252 620 195 597 q 382 642 309 642 q 655 583 538 642 q 682 544 682 569 q 675 515 682 530 q 639 481 660 481 q 618 487 632 481 q 387 543 508 543 q 274 519 315 543 q 233 448 233 494 q 247 413 233 427 q 286 392 260 400 q 336 381 308 385 q 414 372 363 377 q 520 360 477 367 q 600 340 563 354 q 681 284 652 321 q 711 188 711 248 q 680 81 711 127 q 590 10 650 35 q 444 -15 530 -15 z "},"š":{"ha":833,"x_min":121,"x_max":711,"o":"m 416 706 q 377 720 392 706 l 211 878 q 200 900 200 888 q 216 932 200 914 q 245 948 230 948 q 267 940 256 948 l 416 823 l 566 940 q 587 948 576 948 q 617 932 603 948 q 633 900 633 914 q 622 878 633 888 l 456 720 q 416 706 441 706 m 444 -15 q 147 53 271 -15 q 121 92 121 68 q 129 121 121 104 q 165 153 145 153 q 186 147 176 153 q 306 100 242 116 q 437 83 370 83 q 563 112 520 83 q 606 188 606 140 q 592 225 606 211 q 551 249 578 240 q 497 261 528 256 q 417 270 466 265 q 309 283 351 276 q 231 304 267 290 q 156 357 182 323 q 129 448 129 392 q 162 554 129 510 q 252 620 195 597 q 382 642 309 642 q 655 583 538 642 q 682 544 682 569 q 675 515 682 530 q 639 481 660 481 q 618 487 632 481 q 387 543 508 543 q 274 519 315 543 q 233 448 233 494 q 247 413 233 427 q 286 392 260 400 q 336 381 308 385 q 414 372 363 377 q 520 360 477 367 q 600 340 563 354 q 681 284 652 321 q 711 188 711 248 q 680 81 711 127 q 590 10 650 35 q 444 -15 530 -15 z "},"ş":{"ha":833,"x_min":121,"x_max":711,"o":"m 711 188 q 683 84 711 129 q 599 14 654 40 q 463 -14 543 -12 l 463 -77 q 566 -108 532 -76 q 601 -191 601 -140 q 559 -285 601 -250 q 435 -320 517 -320 q 345 -312 389 -320 q 267 -288 302 -304 q 252 -264 252 -281 q 257 -240 252 -254 q 288 -210 269 -210 q 297 -211 294 -210 q 361 -229 326 -222 q 428 -237 396 -237 q 482 -225 463 -237 q 502 -193 502 -214 q 484 -160 502 -171 q 423 -149 465 -149 l 397 -150 q 380 -143 387 -150 q 374 -120 374 -136 l 374 -12 q 147 53 244 -1 q 121 92 121 68 q 129 121 121 104 q 165 153 145 153 q 186 147 176 153 q 306 100 242 116 q 437 83 370 83 q 563 112 520 83 q 606 188 606 140 q 592 225 606 211 q 551 249 578 240 q 497 261 528 256 q 417 270 466 265 q 309 283 351 276 q 231 304 267 290 q 156 357 182 323 q 129 448 129 392 q 162 554 129 510 q 252 620 195 597 q 382 642 309 642 q 655 583 538 642 q 682 544 682 569 q 675 515 682 530 q 639 481 660 481 q 618 487 632 481 q 387 543 508 543 q 274 519 315 543 q 233 448 233 494 q 247 413 233 427 q 286 392 260 400 q 336 381 308 385 q 414 372 363 377 q 520 360 477 367 q 600 340 563 354 q 681 284 652 321 q 711 188 711 248 z "},"ŝ":{"ha":833,"x_min":121,"x_max":711,"o":"m 416 947 q 456 933 441 947 l 622 775 q 633 753 633 765 q 617 721 633 739 q 587 705 603 705 q 566 713 576 705 l 416 830 l 267 713 q 245 705 256 705 q 216 721 230 705 q 200 753 200 739 q 211 775 200 765 l 377 933 q 416 947 392 947 m 444 -15 q 147 53 271 -15 q 121 92 121 68 q 129 121 121 104 q 165 153 145 153 q 186 147 176 153 q 306 100 242 116 q 437 83 370 83 q 563 112 520 83 q 606 188 606 140 q 592 225 606 211 q 551 249 578 240 q 497 261 528 256 q 417 270 466 265 q 309 283 351 276 q 231 304 267 290 q 156 357 182 323 q 129 448 129 392 q 162 554 129 510 q 252 620 195 597 q 382 642 309 642 q 655 583 538 642 q 682 544 682 569 q 675 515 682 530 q 639 481 660 481 q 618 487 632 481 q 387 543 508 543 q 274 519 315 543 q 233 448 233 494 q 247 413 233 427 q 286 392 260 400 q 336 381 308 385 q 414 372 363 377 q 520 360 477 367 q 600 340 563 354 q 681 284 652 321 q 711 188 711 248 q 680 81 711 127 q 590 10 650 35 q 444 -15 530 -15 z "},"ș":{"ha":833,"x_min":121,"x_max":711,"o":"m 444 -15 q 147 53 271 -15 q 121 92 121 68 q 129 121 121 104 q 165 153 145 153 q 186 147 176 153 q 306 100 242 116 q 437 83 370 83 q 563 112 520 83 q 606 188 606 140 q 592 225 606 211 q 551 249 578 240 q 497 261 528 256 q 417 270 466 265 q 309 283 351 276 q 231 304 267 290 q 156 357 182 323 q 129 448 129 392 q 162 554 129 510 q 252 620 195 597 q 382 642 309 642 q 655 583 538 642 q 682 544 682 569 q 675 515 682 530 q 639 481 660 481 q 618 487 632 481 q 387 543 508 543 q 274 519 315 543 q 233 448 233 494 q 247 413 233 427 q 286 392 260 400 q 336 381 308 385 q 414 372 363 377 q 520 360 477 367 q 600 340 563 354 q 681 284 652 321 q 711 188 711 248 q 680 81 711 127 q 590 10 650 35 q 444 -15 530 -15 m 460 -99 q 479 -117 479 -99 q 475 -134 479 -125 l 395 -331 q 355 -357 385 -357 q 344 -356 348 -357 q 309 -326 309 -351 q 310 -315 309 -323 l 353 -121 q 381 -99 358 -99 l 460 -99 z "},"ß":{"ha":833,"x_min":159,"x_max":703,"o":"m 411 893 q 551 862 493 893 q 637 779 608 831 q 666 659 666 726 q 635 551 666 597 q 549 476 605 505 q 663 388 622 448 q 703 244 703 328 q 669 105 703 164 q 574 16 635 47 q 430 -15 512 -15 q 385 -4 396 -15 q 374 37 374 7 q 384 74 374 62 q 417 85 394 85 q 551 127 503 85 q 599 245 599 168 q 552 374 599 328 q 425 420 505 420 q 392 431 402 420 q 382 467 382 442 q 392 502 382 491 q 425 515 402 513 q 527 559 492 522 q 562 659 562 597 q 522 757 562 722 q 408 793 482 793 q 300 750 338 793 q 261 632 261 707 l 261 37 q 250 3 261 14 q 211 -7 239 -7 l 210 -7 q 171 3 182 -7 q 159 37 159 14 l 159 640 q 190 771 159 714 q 277 861 220 829 q 411 893 334 893 z "},"t":{"ha":833,"x_min":79,"x_max":743,"o":"m 734 127 q 743 96 743 109 q 721 61 743 75 q 603 6 668 28 q 481 -15 538 -15 q 313 45 366 -15 q 260 224 260 105 l 260 475 l 122 475 q 89 486 99 475 q 79 524 79 497 q 89 561 79 550 q 122 572 99 572 l 260 572 l 260 776 q 271 810 260 800 q 311 820 283 820 q 350 810 338 820 q 361 776 361 800 l 361 572 l 640 572 q 673 561 663 572 q 683 524 683 550 q 673 486 683 497 q 640 475 663 475 l 361 475 l 361 233 q 389 120 361 156 q 481 84 416 84 q 577 102 527 84 q 674 151 627 121 q 695 158 684 158 q 734 127 718 158 z "},"ŧ":{"ha":833,"x_min":79,"x_max":743,"o":"m 734 127 q 743 96 743 109 q 721 61 743 75 q 603 6 668 28 q 481 -15 538 -15 q 313 45 366 -15 q 260 224 260 105 l 260 275 l 178 275 q 145 287 155 275 q 136 324 136 298 q 145 362 136 351 q 178 373 155 373 l 260 373 l 260 475 l 122 475 q 89 486 99 475 q 79 524 79 497 q 89 561 79 550 q 122 572 99 572 l 260 572 l 260 776 q 271 810 260 800 q 311 820 283 820 q 350 810 338 820 q 361 776 361 800 l 361 572 l 640 572 q 673 561 663 572 q 683 524 683 550 q 673 486 683 497 q 640 475 663 475 l 361 475 l 361 373 l 532 373 q 565 362 555 373 q 575 324 575 351 q 565 287 575 298 q 532 275 555 275 l 361 275 l 361 233 q 389 120 361 156 q 481 84 416 84 q 577 102 527 84 q 674 151 627 121 q 695 158 684 158 q 734 127 718 158 z "},"ť":{"ha":833,"x_min":79,"x_max":743,"o":"m 555 692 q 519 700 531 692 q 508 722 508 708 q 509 733 508 725 l 552 928 q 581 949 557 949 l 659 949 q 678 932 678 949 q 674 915 678 924 l 595 718 q 555 692 585 692 m 734 127 q 743 96 743 109 q 721 61 743 75 q 603 6 668 28 q 481 -15 538 -15 q 313 45 366 -15 q 260 224 260 105 l 260 475 l 122 475 q 89 486 99 475 q 79 524 79 497 q 89 561 79 550 q 122 572 99 572 l 260 572 l 260 776 q 271 810 260 800 q 311 820 283 820 q 350 810 338 820 q 361 776 361 800 l 361 572 l 640 572 q 673 561 663 572 q 683 524 683 550 q 673 486 683 497 q 640 475 663 475 l 361 475 l 361 233 q 389 120 361 156 q 481 84 416 84 q 577 102 527 84 q 674 151 627 121 q 695 158 684 158 q 734 127 718 158 z "},"ţ":{"ha":833,"x_min":79,"x_max":743,"o":"m 734 127 q 743 96 743 109 q 721 61 743 75 q 603 6 668 28 q 481 -15 538 -15 l 477 -15 l 477 -77 q 580 -108 545 -76 q 614 -191 614 -140 q 572 -285 614 -250 q 448 -320 530 -320 q 359 -312 402 -320 q 281 -288 315 -304 q 265 -264 265 -281 q 271 -240 265 -254 q 302 -210 282 -210 q 311 -211 307 -210 q 375 -229 340 -222 q 441 -237 410 -237 q 496 -225 476 -237 q 515 -193 515 -214 q 497 -160 515 -171 q 437 -149 479 -149 l 410 -150 q 394 -143 400 -150 q 387 -120 387 -136 l 387 -2 q 291 76 321 20 q 260 224 260 133 l 260 475 l 122 475 q 89 486 99 475 q 79 524 79 497 q 89 561 79 550 q 122 572 99 572 l 260 572 l 260 776 q 271 810 260 800 q 311 820 283 820 q 350 810 338 820 q 361 776 361 800 l 361 572 l 640 572 q 673 561 663 572 q 683 524 683 550 q 673 486 683 497 q 640 475 663 475 l 361 475 l 361 233 q 389 120 361 156 q 481 84 416 84 q 577 102 527 84 q 674 151 627 121 q 695 158 684 158 q 734 127 718 158 z "},"ț":{"ha":833,"x_min":79,"x_max":743,"o":"m 734 127 q 743 96 743 109 q 721 61 743 75 q 603 6 668 28 q 481 -15 538 -15 q 313 45 366 -15 q 260 224 260 105 l 260 475 l 122 475 q 89 486 99 475 q 79 524 79 497 q 89 561 79 550 q 122 572 99 572 l 260 572 l 260 776 q 271 810 260 800 q 311 820 283 820 q 350 810 338 820 q 361 776 361 800 l 361 572 l 640 572 q 673 561 663 572 q 683 524 683 550 q 673 486 683 497 q 640 475 663 475 l 361 475 l 361 233 q 389 120 361 156 q 481 84 416 84 q 577 102 527 84 q 674 151 627 121 q 695 158 684 158 q 734 127 718 158 m 503 -99 q 522 -117 522 -99 q 518 -134 522 -125 l 439 -331 q 399 -357 429 -357 q 387 -356 391 -357 q 352 -326 352 -351 q 353 -315 352 -323 l 396 -121 q 425 -99 401 -99 l 503 -99 z "},"u":{"ha":833,"x_min":125,"x_max":696,"o":"m 646 633 q 685 623 673 633 q 696 589 696 613 l 696 37 q 686 3 696 14 q 649 -7 675 -7 l 648 -7 q 611 3 621 -7 q 601 37 601 14 l 601 148 q 484 31 555 77 q 340 -15 412 -15 q 181 44 237 -15 q 125 206 125 103 l 125 589 q 136 623 125 613 q 175 633 147 633 l 176 633 q 215 623 204 633 q 227 589 227 613 l 227 216 q 257 120 227 155 q 350 85 287 85 q 465 122 408 85 q 558 223 522 159 q 594 361 594 286 l 594 589 q 605 623 594 613 q 644 633 616 633 l 646 633 z "},"ú":{"ha":833,"x_min":125,"x_max":696,"o":"m 528 951 q 553 960 541 960 q 599 932 576 960 q 619 886 619 905 q 604 859 619 868 l 351 711 q 329 704 338 704 q 298 721 313 704 q 281 756 281 739 q 292 777 281 769 l 528 951 m 646 633 q 685 623 673 633 q 696 589 696 613 l 696 37 q 686 3 696 14 q 649 -7 675 -7 l 648 -7 q 611 3 621 -7 q 601 37 601 14 l 601 148 q 484 31 555 77 q 340 -15 412 -15 q 181 44 237 -15 q 125 206 125 103 l 125 589 q 136 623 125 613 q 175 633 147 633 l 176 633 q 215 623 204 633 q 227 589 227 613 l 227 216 q 257 120 227 155 q 350 85 287 85 q 465 122 408 85 q 558 223 522 159 q 594 361 594 286 l 594 589 q 605 623 594 613 q 644 633 616 633 l 646 633 z "},"ŭ":{"ha":833,"x_min":125,"x_max":696,"o":"m 602 928 q 629 917 621 924 q 638 896 638 909 q 637 887 638 890 q 565 768 622 810 q 416 726 509 726 q 266 768 323 726 q 194 887 210 810 q 193 896 193 890 q 202 917 193 909 q 230 928 211 924 q 249 930 240 930 q 278 914 272 930 q 328 843 294 866 q 416 820 361 820 q 505 843 471 820 q 553 914 538 866 q 583 930 559 930 q 602 928 591 930 m 646 633 q 685 623 673 633 q 696 589 696 613 l 696 37 q 686 3 696 14 q 649 -7 675 -7 l 648 -7 q 611 3 621 -7 q 601 37 601 14 l 601 148 q 484 31 555 77 q 340 -15 412 -15 q 181 44 237 -15 q 125 206 125 103 l 125 589 q 136 623 125 613 q 175 633 147 633 l 176 633 q 215 623 204 633 q 227 589 227 613 l 227 216 q 257 120 227 155 q 350 85 287 85 q 465 122 408 85 q 558 223 522 159 q 594 361 594 286 l 594 589 q 605 623 594 613 q 644 633 616 633 l 646 633 z "},"û":{"ha":833,"x_min":125,"x_max":696,"o":"m 416 947 q 456 933 441 947 l 622 775 q 633 753 633 765 q 617 721 633 739 q 587 705 603 705 q 566 713 576 705 l 416 830 l 267 713 q 245 705 256 705 q 216 721 230 705 q 200 753 200 739 q 211 775 200 765 l 377 933 q 416 947 392 947 m 646 633 q 685 623 673 633 q 696 589 696 613 l 696 37 q 686 3 696 14 q 649 -7 675 -7 l 648 -7 q 611 3 621 -7 q 601 37 601 14 l 601 148 q 484 31 555 77 q 340 -15 412 -15 q 181 44 237 -15 q 125 206 125 103 l 125 589 q 136 623 125 613 q 175 633 147 633 l 176 633 q 215 623 204 633 q 227 589 227 613 l 227 216 q 257 120 227 155 q 350 85 287 85 q 465 122 408 85 q 558 223 522 159 q 594 361 594 286 l 594 589 q 605 623 594 613 q 644 633 616 633 l 646 633 z "},"ü":{"ha":833,"x_min":125,"x_max":696,"o":"m 274 924 q 325 915 311 924 q 338 880 338 905 l 338 792 q 325 758 338 768 q 274 748 311 748 q 223 758 237 748 q 210 792 210 768 l 210 880 q 223 915 210 905 q 274 924 237 924 m 559 924 q 610 915 596 924 q 623 880 623 905 l 623 792 q 610 758 623 768 q 559 748 596 748 q 508 758 522 748 q 494 792 494 768 l 494 880 q 508 915 494 905 q 559 924 522 924 m 646 633 q 685 623 673 633 q 696 589 696 613 l 696 37 q 686 3 696 14 q 649 -7 675 -7 l 648 -7 q 611 3 621 -7 q 601 37 601 14 l 601 148 q 484 31 555 77 q 340 -15 412 -15 q 181 44 237 -15 q 125 206 125 103 l 125 589 q 136 623 125 613 q 175 633 147 633 l 176 633 q 215 623 204 633 q 227 589 227 613 l 227 216 q 257 120 227 155 q 350 85 287 85 q 465 122 408 85 q 558 223 522 159 q 594 361 594 286 l 594 589 q 605 623 594 613 q 644 633 616 633 l 646 633 z "},"ù":{"ha":833,"x_min":125,"x_max":696,"o":"m 534 777 q 545 756 545 769 q 528 721 545 739 q 497 704 513 704 q 475 711 488 704 l 222 859 q 207 886 207 868 q 227 932 207 905 q 273 960 250 960 q 298 951 286 960 l 534 777 m 646 633 q 685 623 673 633 q 696 589 696 613 l 696 37 q 686 3 696 14 q 649 -7 675 -7 l 648 -7 q 611 3 621 -7 q 601 37 601 14 l 601 148 q 484 31 555 77 q 340 -15 412 -15 q 181 44 237 -15 q 125 206 125 103 l 125 589 q 136 623 125 613 q 175 633 147 633 l 176 633 q 215 623 204 633 q 227 589 227 613 l 227 216 q 257 120 227 155 q 350 85 287 85 q 465 122 408 85 q 558 223 522 159 q 594 361 594 286 l 594 589 q 605 623 594 613 q 644 633 616 633 l 646 633 z "},"ű":{"ha":833,"x_min":125,"x_max":734,"o":"m 446 935 q 477 897 477 916 q 464 872 477 884 l 281 714 q 256 705 269 705 q 222 716 241 705 q 201 744 201 729 q 208 760 201 753 l 369 931 q 406 948 385 948 q 446 935 425 948 m 704 935 q 734 897 734 916 q 722 872 734 884 l 538 714 q 513 705 527 705 q 479 716 498 705 q 459 744 459 729 q 466 760 459 753 l 627 931 q 664 948 642 948 q 704 935 683 948 m 646 633 q 685 623 673 633 q 696 589 696 613 l 696 37 q 686 3 696 14 q 649 -7 675 -7 l 648 -7 q 611 3 621 -7 q 601 37 601 14 l 601 148 q 484 31 555 77 q 340 -15 412 -15 q 181 44 237 -15 q 125 206 125 103 l 125 589 q 136 623 125 613 q 175 633 147 633 l 176 633 q 215 623 204 633 q 227 589 227 613 l 227 216 q 257 120 227 155 q 350 85 287 85 q 465 122 408 85 q 558 223 522 159 q 594 361 594 286 l 594 589 q 605 623 594 613 q 644 633 616 633 l 646 633 z "},"ū":{"ha":833,"x_min":127,"x_max":698,"o":"m 593 848 q 626 837 616 848 q 636 799 636 825 q 626 761 636 772 q 593 750 616 750 l 239 750 q 207 761 216 750 q 197 799 197 772 q 207 837 197 825 q 239 848 216 848 l 593 848 m 648 633 q 687 623 675 633 q 698 589 698 613 l 698 37 q 688 3 698 14 q 651 -7 677 -7 l 650 -7 q 613 3 623 -7 q 603 37 603 14 l 603 148 q 486 31 557 77 q 342 -15 414 -15 q 183 44 239 -15 q 127 206 127 103 l 127 589 q 138 623 127 613 q 177 633 149 633 l 178 633 q 217 623 206 633 q 229 589 229 613 l 229 216 q 259 120 229 155 q 352 85 289 85 q 467 122 410 85 q 560 223 524 159 q 596 361 596 286 l 596 589 q 607 623 596 613 q 646 633 618 633 l 648 633 z "},"ų":{"ha":833,"x_min":125,"x_max":733,"o":"m 646 633 q 685 623 673 633 q 696 589 696 613 l 696 37 q 684 2 696 13 q 596 -96 623 -54 q 569 -176 569 -139 q 583 -213 569 -200 q 621 -226 597 -226 q 698 -214 656 -226 q 705 -213 703 -213 q 732 -250 726 -213 q 733 -267 733 -262 q 727 -290 733 -281 q 710 -302 722 -298 q 599 -320 659 -320 q 499 -285 536 -320 q 463 -191 463 -250 q 601 26 463 -84 l 601 148 q 484 31 555 77 q 340 -15 412 -15 q 181 44 237 -15 q 125 206 125 103 l 125 589 q 136 623 125 613 q 175 633 147 633 l 176 633 q 215 623 204 633 q 227 589 227 613 l 227 216 q 257 120 227 155 q 350 85 287 85 q 465 122 408 85 q 558 223 522 159 q 594 361 594 286 l 594 589 q 605 623 594 613 q 644 633 616 633 l 646 633 z "},"ů":{"ha":833,"x_min":125,"x_max":696,"o":"m 414 1056 q 499 1034 461 1056 q 559 974 538 1013 q 581 889 581 936 q 559 804 581 842 q 499 744 538 766 q 414 722 461 722 q 329 744 368 722 q 269 804 291 766 q 248 889 248 842 q 269 974 248 936 q 329 1034 291 1013 q 414 1056 368 1056 m 414 966 q 358 945 379 966 q 337 889 337 924 q 358 833 337 854 q 414 812 379 812 q 471 833 450 812 q 492 889 492 854 q 471 945 492 924 q 414 966 450 966 m 646 633 q 685 623 673 633 q 696 589 696 613 l 696 37 q 686 3 696 14 q 649 -7 675 -7 l 648 -7 q 611 3 621 -7 q 601 37 601 14 l 601 148 q 484 31 555 77 q 340 -15 412 -15 q 181 44 237 -15 q 125 206 125 103 l 125 589 q 136 623 125 613 q 175 633 147 633 l 176 633 q 215 623 204 633 q 227 589 227 613 l 227 216 q 257 120 227 155 q 350 85 287 85 q 465 122 408 85 q 558 223 522 159 q 594 361 594 286 l 594 589 q 605 623 594 613 q 644 633 616 633 l 646 633 z "},"ũ":{"ha":833,"x_min":125,"x_max":696,"o":"m 335 892 q 378 885 359 892 q 425 867 397 879 q 465 850 448 855 q 498 844 481 844 q 541 856 520 844 q 584 890 562 867 q 604 899 592 899 q 635 882 621 899 q 650 851 650 867 q 640 827 650 838 q 571 764 608 785 q 498 743 534 743 q 455 750 474 743 q 408 768 435 756 q 368 785 385 780 q 334 791 352 791 q 292 779 313 791 q 249 745 271 768 q 229 736 241 736 q 197 753 212 736 q 183 784 183 768 q 193 808 183 797 q 262 871 225 850 q 335 892 299 892 m 646 633 q 685 623 673 633 q 696 589 696 613 l 696 37 q 686 3 696 14 q 649 -7 675 -7 l 648 -7 q 611 3 621 -7 q 601 37 601 14 l 601 148 q 484 31 555 77 q 340 -15 412 -15 q 181 44 237 -15 q 125 206 125 103 l 125 589 q 136 623 125 613 q 175 633 147 633 l 176 633 q 215 623 204 633 q 227 589 227 613 l 227 216 q 257 120 227 155 q 350 85 287 85 q 465 122 408 85 q 558 223 522 159 q 594 361 594 286 l 594 589 q 605 623 594 613 q 644 633 616 633 l 646 633 z "},"v":{"ha":833,"x_min":84,"x_max":749,"o":"m 713 627 q 740 610 731 619 q 749 589 749 601 q 743 565 749 578 l 496 27 q 468 -5 486 5 q 416 -15 450 -15 q 365 -5 383 -15 q 336 27 347 5 l 90 565 q 84 589 84 578 q 93 610 84 601 q 120 627 102 619 q 151 635 138 635 q 171 628 163 635 q 186 606 179 621 l 416 97 l 647 606 q 662 628 654 621 q 682 635 670 635 q 713 627 694 635 z "},"w":{"ha":833,"x_min":39,"x_max":793,"o":"m 753 631 q 784 618 774 627 q 793 595 793 610 q 791 576 793 586 l 656 29 q 638 -5 650 5 q 600 -15 626 -15 q 555 -4 571 -15 q 531 29 538 6 l 416 376 l 302 29 q 278 -4 294 6 q 233 -15 262 -15 q 195 -5 207 -15 q 177 29 183 5 l 42 576 q 39 595 39 586 q 49 618 39 610 q 80 631 58 627 q 102 633 92 633 q 126 625 118 633 q 139 599 135 617 l 247 142 l 366 504 q 416 536 376 536 q 467 504 456 536 l 586 142 l 694 599 q 706 625 698 617 q 730 633 715 633 q 753 631 741 633 z "},"ẃ":{"ha":833,"x_min":39,"x_max":793,"o":"m 543 951 q 568 960 555 960 q 614 932 591 960 q 634 886 634 905 q 619 859 634 868 l 366 711 q 344 704 353 704 q 313 721 328 704 q 296 756 296 739 q 307 777 296 769 l 543 951 m 753 631 q 784 618 774 627 q 793 595 793 610 q 791 576 793 586 l 656 29 q 638 -5 650 5 q 600 -15 626 -15 q 555 -4 571 -15 q 531 29 538 6 l 416 376 l 302 29 q 278 -4 294 6 q 233 -15 262 -15 q 195 -5 207 -15 q 177 29 183 5 l 42 576 q 39 595 39 586 q 49 618 39 610 q 80 631 58 627 q 102 633 92 633 q 126 625 118 633 q 139 599 135 617 l 247 142 l 366 504 q 416 536 376 536 q 467 504 456 536 l 586 142 l 694 599 q 706 625 698 617 q 730 633 715 633 q 753 631 741 633 z "},"ŵ":{"ha":833,"x_min":39,"x_max":793,"o":"m 416 947 q 456 933 441 947 l 622 775 q 633 753 633 765 q 617 721 633 739 q 587 705 603 705 q 566 713 576 705 l 416 830 l 267 713 q 245 705 256 705 q 216 721 230 705 q 200 753 200 739 q 211 775 200 765 l 377 933 q 416 947 392 947 m 753 631 q 784 618 774 627 q 793 595 793 610 q 791 576 793 586 l 656 29 q 638 -5 650 5 q 600 -15 626 -15 q 555 -4 571 -15 q 531 29 538 6 l 416 376 l 302 29 q 278 -4 294 6 q 233 -15 262 -15 q 195 -5 207 -15 q 177 29 183 5 l 42 576 q 39 595 39 586 q 49 618 39 610 q 80 631 58 627 q 102 633 92 633 q 126 625 118 633 q 139 599 135 617 l 247 142 l 366 504 q 416 536 376 536 q 467 504 456 536 l 586 142 l 694 599 q 706 625 698 617 q 730 633 715 633 q 753 631 741 633 z "},"ẅ":{"ha":833,"x_min":39,"x_max":793,"o":"m 274 924 q 325 915 311 924 q 338 880 338 905 l 338 792 q 325 758 338 768 q 274 748 311 748 q 223 758 237 748 q 210 792 210 768 l 210 880 q 223 915 210 905 q 274 924 237 924 m 559 924 q 610 915 596 924 q 623 880 623 905 l 623 792 q 610 758 623 768 q 559 748 596 748 q 508 758 522 748 q 494 792 494 768 l 494 880 q 508 915 494 905 q 559 924 522 924 m 753 631 q 784 618 774 627 q 793 595 793 610 q 791 576 793 586 l 656 29 q 638 -5 650 5 q 600 -15 626 -15 q 555 -4 571 -15 q 531 29 538 6 l 416 376 l 302 29 q 278 -4 294 6 q 233 -15 262 -15 q 195 -5 207 -15 q 177 29 183 5 l 42 576 q 39 595 39 586 q 49 618 39 610 q 80 631 58 627 q 102 633 92 633 q 126 625 118 633 q 139 599 135 617 l 247 142 l 366 504 q 416 536 376 536 q 467 504 456 536 l 586 142 l 694 599 q 706 625 698 617 q 730 633 715 633 q 753 631 741 633 z "},"ẁ":{"ha":833,"x_min":39,"x_max":793,"o":"m 526 777 q 536 756 536 769 q 520 721 536 739 q 489 704 505 704 q 467 711 479 704 l 214 859 q 199 886 199 868 q 219 932 199 905 q 264 960 241 960 q 290 951 277 960 l 526 777 m 753 631 q 784 618 774 627 q 793 595 793 610 q 791 576 793 586 l 656 29 q 638 -5 650 5 q 600 -15 626 -15 q 555 -4 571 -15 q 531 29 538 6 l 416 376 l 302 29 q 278 -4 294 6 q 233 -15 262 -15 q 195 -5 207 -15 q 177 29 183 5 l 42 576 q 39 595 39 586 q 49 618 39 610 q 80 631 58 627 q 102 633 92 633 q 126 625 118 633 q 139 599 135 617 l 247 142 l 366 504 q 416 536 376 536 q 467 504 456 536 l 586 142 l 694 599 q 706 625 698 617 q 730 633 715 633 q 753 631 741 633 z "},"x":{"ha":833,"x_min":113,"x_max":728,"o":"m 716 60 q 728 34 728 47 q 698 0 728 14 q 661 -10 675 -10 q 623 10 641 -10 l 420 249 l 218 10 q 180 -10 200 -10 q 143 0 165 -10 q 113 34 113 14 q 125 60 113 47 l 347 319 l 134 566 q 121 593 121 581 q 152 627 121 613 q 189 637 174 637 q 227 616 209 637 l 420 391 l 614 616 q 652 637 632 637 q 689 627 667 637 q 720 593 720 613 q 707 566 720 581 l 494 319 l 716 60 z "},"y":{"ha":833,"x_min":83,"x_max":749,"o":"m 713 627 q 740 610 731 619 q 749 589 749 601 q 742 565 749 578 l 337 -243 q 321 -264 330 -258 q 302 -271 313 -271 q 272 -263 290 -271 q 245 -247 254 -256 q 237 -226 237 -237 q 243 -201 237 -215 l 359 29 l 90 565 q 83 589 83 578 q 120 627 83 612 q 151 635 138 635 q 170 628 162 635 q 186 606 178 621 l 417 143 l 647 606 q 663 628 654 621 q 682 635 671 635 q 713 627 694 635 z "},"ý":{"ha":833,"x_min":83,"x_max":749,"o":"m 352 711 q 330 704 340 704 q 299 721 314 704 q 283 756 283 739 q 294 777 283 769 l 530 951 q 555 960 542 960 q 600 932 578 960 q 621 886 621 905 q 606 859 621 868 l 352 711 m 713 627 q 740 610 731 619 q 749 589 749 601 q 742 565 749 578 l 337 -243 q 321 -264 330 -258 q 302 -271 313 -271 q 272 -263 290 -271 q 245 -247 254 -256 q 237 -226 237 -237 q 243 -201 237 -215 l 359 29 l 90 565 q 83 589 83 578 q 120 627 83 612 q 151 635 138 635 q 170 628 162 635 q 186 606 178 621 l 417 143 l 647 606 q 663 628 654 621 q 682 635 671 635 q 713 627 694 635 z "},"ŷ":{"ha":833,"x_min":83,"x_max":749,"o":"m 277 713 q 256 705 267 705 q 227 721 241 705 q 211 753 211 739 q 222 775 211 765 l 388 933 q 427 947 403 947 q 467 933 452 947 l 633 775 q 644 753 644 765 q 628 721 644 739 q 598 705 614 705 q 577 713 587 705 l 427 830 l 277 713 m 713 627 q 740 610 731 619 q 749 589 749 601 q 742 565 749 578 l 337 -243 q 321 -264 330 -258 q 302 -271 313 -271 q 272 -263 290 -271 q 245 -247 254 -256 q 237 -226 237 -237 q 243 -201 237 -215 l 359 29 l 90 565 q 83 589 83 578 q 120 627 83 612 q 151 635 138 635 q 170 628 162 635 q 186 606 178 621 l 417 143 l 647 606 q 663 628 654 621 q 682 635 671 635 q 713 627 694 635 z "},"ÿ":{"ha":833,"x_min":83,"x_max":749,"o":"m 275 748 q 224 758 238 748 q 211 792 211 768 l 211 880 q 224 915 211 905 q 275 924 238 924 q 326 915 313 924 q 340 880 340 905 l 340 792 q 326 758 340 768 q 275 748 313 748 m 560 748 q 509 758 523 748 q 496 792 496 768 l 496 880 q 509 915 496 905 q 560 924 523 924 q 611 915 597 924 q 625 880 625 905 l 625 792 q 611 758 625 768 q 560 748 597 748 m 713 627 q 740 610 731 619 q 749 589 749 601 q 742 565 749 578 l 337 -243 q 321 -264 330 -258 q 302 -271 313 -271 q 272 -263 290 -271 q 245 -247 254 -256 q 237 -226 237 -237 q 243 -201 237 -215 l 359 29 l 90 565 q 83 589 83 578 q 120 627 83 612 q 151 635 138 635 q 170 628 162 635 q 186 606 178 621 l 417 143 l 647 606 q 663 628 654 621 q 682 635 671 635 q 713 627 694 635 z "},"ỳ":{"ha":833,"x_min":83,"x_max":749,"o":"m 227 859 q 212 886 212 868 q 233 932 212 905 q 278 960 255 960 q 303 951 291 960 l 539 777 q 550 756 550 769 q 534 721 550 739 q 503 704 519 704 q 481 711 493 704 l 227 859 m 713 627 q 740 610 731 619 q 749 589 749 601 q 742 565 749 578 l 337 -243 q 321 -264 330 -258 q 302 -271 313 -271 q 272 -263 290 -271 q 245 -247 254 -256 q 237 -226 237 -237 q 243 -201 237 -215 l 359 29 l 90 565 q 83 589 83 578 q 120 627 83 612 q 151 635 138 635 q 170 628 162 635 q 186 606 178 621 l 417 143 l 647 606 q 663 628 654 621 q 682 635 671 635 q 713 627 694 635 z "},"z":{"ha":833,"x_min":121,"x_max":712,"o":"m 669 98 q 702 86 692 98 q 712 49 712 75 q 702 11 712 22 q 669 0 692 0 l 163 0 q 131 11 140 0 q 121 46 121 21 q 130 77 121 66 l 540 529 l 177 529 q 144 540 154 529 q 134 578 134 551 q 144 615 134 604 q 177 627 154 627 l 663 627 q 695 616 686 627 q 705 581 705 606 q 695 549 705 561 l 286 98 l 669 98 z "},"ź":{"ha":833,"x_min":121,"x_max":712,"o":"m 344 711 q 322 704 332 704 q 291 721 306 704 q 275 756 275 739 q 286 777 275 769 l 522 951 q 547 960 534 960 q 592 932 570 960 q 612 886 612 905 q 597 859 612 868 l 344 711 m 669 98 q 702 86 692 98 q 712 49 712 75 q 702 11 712 22 q 669 0 692 0 l 163 0 q 131 11 140 0 q 121 46 121 21 q 130 77 121 66 l 540 529 l 177 529 q 144 540 154 529 q 134 578 134 551 q 144 615 134 604 q 177 627 154 627 l 663 627 q 695 616 686 627 q 705 581 705 606 q 695 549 705 561 l 286 98 l 669 98 z "},"ž":{"ha":833,"x_min":121,"x_max":712,"o":"m 218 878 q 207 900 207 888 q 222 932 207 914 q 252 948 237 948 q 273 940 263 948 l 423 823 l 573 940 q 594 948 583 948 q 624 932 610 948 q 640 900 640 914 q 629 878 640 888 l 463 720 q 423 706 448 706 q 384 720 399 706 l 218 878 m 669 98 q 702 86 692 98 q 712 49 712 75 q 702 11 712 22 q 669 0 692 0 l 163 0 q 131 11 140 0 q 121 46 121 21 q 130 77 121 66 l 540 529 l 177 529 q 144 540 154 529 q 134 578 134 551 q 144 615 134 604 q 177 627 154 627 l 663 627 q 695 616 686 627 q 705 581 705 606 q 695 549 705 561 l 286 98 l 669 98 z "},"ż":{"ha":833,"x_min":121,"x_max":712,"o":"m 423 748 q 372 758 386 748 q 359 792 359 768 l 359 880 q 372 915 359 905 q 423 924 386 924 q 474 915 460 924 q 488 880 488 905 l 488 792 q 474 758 488 768 q 423 748 460 748 m 669 98 q 702 86 692 98 q 712 49 712 75 q 702 11 712 22 q 669 0 692 0 l 163 0 q 131 11 140 0 q 121 46 121 21 q 130 77 121 66 l 540 529 l 177 529 q 144 540 154 529 q 134 578 134 551 q 144 615 134 604 q 177 627 154 627 l 663 627 q 695 616 686 627 q 705 581 705 606 q 695 549 705 561 l 286 98 l 669 98 z "},"ﬁ":{"ha":1666,"x_min":127,"x_max":1577,"o":"m 1252 748 q 1201 758 1215 748 q 1187 792 1187 768 l 1187 880 q 1201 915 1187 905 q 1252 924 1215 924 q 1303 915 1289 924 q 1316 880 1316 905 l 1316 792 q 1303 758 1316 768 q 1252 748 1289 748 m 723 859 q 756 814 756 846 q 753 795 756 809 q 718 758 744 758 q 703 761 712 758 q 543 794 617 794 q 406 647 406 794 l 406 572 l 640 572 q 673 561 663 572 q 683 524 683 550 q 673 486 683 497 q 640 475 663 475 l 406 475 l 406 37 q 394 3 406 14 q 355 -7 383 -7 l 354 -7 q 315 3 326 -7 q 304 37 304 14 l 304 475 l 170 475 q 137 486 146 475 q 127 524 127 497 q 137 561 127 550 q 170 572 146 572 l 304 572 l 304 656 q 367 830 304 768 q 543 893 429 893 q 723 859 633 893 m 1534 98 q 1567 86 1557 98 q 1577 49 1577 75 q 1567 11 1577 22 q 1534 0 1557 0 l 1002 0 q 969 11 979 0 q 960 49 960 22 q 969 86 960 75 q 1002 98 979 98 l 1215 98 l 1215 529 l 1043 529 q 1010 540 1020 529 q 1000 578 1000 551 q 1010 615 1000 604 q 1043 627 1020 627 l 1274 627 q 1306 616 1297 627 q 1316 581 1316 606 l 1316 98 l 1534 98 z "},"ﬂ":{"ha":1666,"x_min":127,"x_max":1570,"o":"m 723 859 q 756 814 756 846 q 753 795 756 809 q 718 758 744 758 q 703 761 712 758 q 543 794 617 794 q 406 647 406 794 l 406 572 l 640 572 q 673 561 663 572 q 683 524 683 550 q 673 486 683 497 q 640 475 663 475 l 406 475 l 406 37 q 394 3 406 14 q 355 -7 383 -7 l 354 -7 q 315 3 326 -7 q 304 37 304 14 l 304 475 l 170 475 q 137 486 146 475 q 127 524 127 497 q 137 561 127 550 q 170 572 146 572 l 304 572 l 304 656 q 367 830 304 768 q 543 893 429 893 q 723 859 633 893 m 1527 98 q 1560 86 1550 98 q 1570 49 1570 75 q 1560 11 1570 22 q 1527 0 1550 0 l 996 0 q 963 11 972 0 q 953 49 953 22 q 963 86 953 75 q 996 98 972 98 l 1208 98 l 1208 792 l 1023 792 q 990 803 1000 792 q 980 841 980 814 q 990 879 980 867 q 1023 890 1000 890 l 1267 890 q 1300 879 1290 890 q 1310 844 1310 869 l 1310 98 l 1527 98 z "},"ª":{"ha":833,"x_min":171,"x_max":629,"o":"m 437 820 q 580 775 531 820 q 629 647 629 730 l 629 355 q 619 330 629 338 q 589 321 610 321 l 587 321 q 557 330 566 321 q 547 355 547 338 l 547 392 q 354 315 457 315 q 260 333 301 315 q 195 384 218 350 q 171 466 171 418 q 229 589 171 549 q 378 629 286 629 q 537 610 468 629 l 537 644 q 437 732 537 732 q 279 688 355 732 q 262 683 270 683 q 229 707 243 683 q 218 739 218 726 q 234 765 218 755 q 329 805 275 791 q 437 820 383 820 m 386 543 q 267 468 267 543 q 291 418 267 435 q 357 400 315 400 q 537 479 456 400 l 537 526 q 386 543 463 543 z "},"º":{"ha":833,"x_min":159,"x_max":673,"o":"m 416 820 q 548 787 489 820 q 640 697 606 755 q 673 568 673 640 q 640 438 673 495 q 548 348 606 380 q 416 315 489 315 q 285 348 344 315 q 193 438 227 380 q 159 568 159 495 q 193 697 159 640 q 285 787 227 755 q 416 820 344 820 m 416 730 q 332 709 369 730 q 275 651 295 688 q 254 568 254 614 q 275 484 254 521 q 332 426 295 446 q 416 405 369 405 q 501 426 465 405 q 558 483 538 446 q 578 568 578 520 q 558 651 578 614 q 501 709 538 688 q 416 730 465 730 z "},"Δ":{"ha":833,"x_min":100,"x_max":732,"o":"m 418 820 q 462 809 446 820 q 487 776 479 799 l 729 72 q 732 46 732 62 q 723 11 732 21 q 690 0 713 0 l 142 0 q 110 11 119 0 q 100 46 100 21 q 104 72 100 60 l 349 776 q 374 809 357 799 q 418 820 391 820 m 417 693 l 218 92 l 615 92 l 418 693 l 417 693 z "},"Ω":{"ha":833,"x_min":55,"x_max":778,"o":"m 416 820 q 603 770 522 820 q 729 631 684 721 q 773 422 773 541 q 729 237 773 322 q 615 98 685 152 l 735 98 q 768 86 758 98 q 778 49 778 75 q 768 11 778 22 q 735 0 758 0 l 509 0 q 476 12 486 0 q 466 53 466 24 q 477 96 466 88 q 617 236 569 155 q 666 422 666 318 q 635 580 666 513 q 548 683 604 647 q 416 720 491 720 q 285 683 342 720 q 198 580 229 647 q 167 422 167 513 q 215 236 167 318 q 355 96 264 155 q 367 53 367 88 q 357 12 367 24 q 324 0 347 0 l 98 0 q 65 11 75 0 q 55 49 55 22 q 65 86 55 75 q 98 98 75 98 l 218 98 q 104 237 148 152 q 60 422 60 322 q 104 631 60 541 q 230 770 149 721 q 416 820 311 820 z "},"μ":{"ha":833,"x_min":148,"x_max":692,"o":"m 642 633 q 681 623 669 633 q 692 589 692 613 l 692 37 q 682 3 692 14 q 645 -7 671 -7 l 644 -7 q 607 3 617 -7 q 597 37 597 14 l 597 134 q 493 26 554 68 q 363 -15 431 -15 q 250 17 295 -15 l 250 -226 q 238 -260 250 -250 q 199 -270 227 -270 l 198 -270 q 159 -260 170 -270 q 148 -226 148 -250 l 148 589 q 159 623 148 613 q 198 633 170 633 l 199 633 q 238 623 227 633 q 250 589 250 613 l 250 216 q 280 120 250 155 q 373 85 310 85 q 475 120 425 85 q 558 213 526 155 q 590 340 590 272 l 590 589 q 601 623 590 613 q 640 633 612 633 l 642 633 z "},"π":{"ha":833,"x_min":66,"x_max":766,"o":"m 724 627 q 756 615 747 627 q 766 578 766 604 q 756 540 766 551 q 724 529 747 529 l 665 529 l 665 37 q 653 3 665 14 q 614 -7 642 -7 l 613 -7 q 574 3 585 -7 q 563 37 563 14 l 563 529 l 270 529 l 270 37 q 259 3 270 14 q 220 -7 248 -7 l 218 -7 q 179 3 191 -7 q 168 37 168 14 l 168 529 l 109 529 q 76 540 86 529 q 66 578 66 551 q 76 615 66 604 q 109 627 86 627 l 724 627 z "},"⁄":{"ha":833,"x_min":75,"x_max":758,"o":"m 707 576 q 718 579 712 579 q 748 560 734 579 q 758 534 758 548 q 748 516 758 522 l 125 136 q 115 133 121 133 q 85 152 99 133 q 75 178 75 165 q 85 196 75 190 l 707 576 z "},"½":{"ha":833,"x_min":-3,"x_max":821,"o":"m 359 499 q 352 472 359 481 q 331 464 345 464 l 29 464 q 1 499 1 464 q 8 526 1 518 q 29 534 15 534 l 144 534 l 144 846 l 49 796 q 31 791 39 791 q 5 810 16 791 q -3 835 -3 825 q 12 856 -3 848 l 182 942 q 197 945 191 945 q 214 939 208 945 q 221 922 221 933 l 221 534 l 331 534 q 352 526 345 534 q 359 499 359 518 m 748 587 q 758 562 758 575 q 748 543 758 549 l 125 163 q 115 160 121 160 q 85 179 99 160 q 75 205 75 193 q 85 223 75 217 l 707 604 q 718 606 712 606 q 748 587 734 606 m 793 -76 q 814 -84 807 -76 q 821 -111 821 -92 q 814 -138 821 -130 q 793 -146 807 -146 l 481 -146 q 454 -106 454 -146 q 471 -69 454 -83 l 660 90 q 707 139 692 117 q 722 190 722 162 q 699 242 722 222 q 635 262 677 262 q 572 252 606 262 q 509 227 539 243 q 499 224 505 224 q 471 250 482 224 q 467 272 467 262 q 479 295 467 288 q 557 325 514 314 q 640 335 600 335 q 758 296 715 335 q 801 190 801 256 q 779 111 801 146 q 709 36 756 75 l 574 -76 l 793 -76 z "},"¼":{"ha":833,"x_min":-3,"x_max":836,"o":"m 359 499 q 352 472 359 481 q 331 464 345 464 l 29 464 q 1 499 1 464 q 8 526 1 518 q 29 534 15 534 l 144 534 l 144 846 l 49 796 q 31 791 39 791 q 5 810 16 791 q -3 835 -3 825 q 12 856 -3 848 l 182 942 q 197 945 191 945 q 214 939 208 945 q 221 922 221 933 l 221 534 l 331 534 q 352 526 345 534 q 359 499 359 518 m 748 553 q 758 528 758 541 q 748 509 758 515 l 125 129 q 115 126 121 126 q 85 145 99 126 q 75 171 75 159 q 85 189 75 183 l 707 570 q 718 572 712 572 q 748 553 734 572 m 809 52 q 829 43 823 52 q 836 16 836 35 q 829 -11 836 -3 q 809 -20 823 -20 l 747 -20 l 747 -123 q 739 -144 747 -137 q 709 -151 730 -151 q 680 -144 689 -151 q 671 -123 671 -137 l 671 -20 l 458 -20 q 436 -8 444 -20 q 427 24 427 3 q 429 41 427 35 q 437 55 431 47 l 652 311 q 672 330 662 323 q 697 336 683 336 q 732 327 717 336 q 747 304 747 317 l 747 52 l 809 52 m 671 52 l 674 232 l 524 52 l 671 52 z "},"¾":{"ha":833,"x_min":14,"x_max":836,"o":"m 368 597 q 321 492 368 530 q 186 454 275 454 q 102 463 144 454 q 27 490 60 472 q 14 513 14 497 q 19 534 14 522 q 47 561 29 561 q 58 558 52 561 q 119 535 87 544 q 182 526 151 526 q 260 545 233 526 q 288 597 288 564 q 261 650 288 635 q 184 666 235 666 l 155 666 q 130 701 130 666 q 136 727 130 717 q 155 736 142 736 l 177 736 q 249 753 224 736 q 273 805 273 769 q 248 855 273 838 q 179 872 223 872 q 62 841 123 872 q 52 838 58 838 q 24 865 35 838 q 20 886 20 876 q 32 909 20 902 q 105 936 64 926 q 185 945 145 945 q 274 928 237 945 q 332 881 312 911 q 353 810 353 850 q 289 708 353 743 q 347 668 326 696 q 368 597 368 640 m 748 560 q 758 534 758 548 q 748 516 758 522 l 125 136 q 115 133 121 133 q 85 152 99 133 q 75 178 75 165 q 85 196 75 190 l 707 576 q 718 579 712 579 q 748 560 734 579 m 809 52 q 829 43 823 52 q 836 16 836 35 q 829 -11 836 -3 q 809 -20 823 -20 l 747 -20 l 747 -123 q 739 -144 747 -137 q 709 -151 730 -151 q 680 -144 689 -151 q 671 -123 671 -137 l 671 -20 l 458 -20 q 436 -8 444 -20 q 427 24 427 3 q 429 41 427 35 q 437 55 431 47 l 652 311 q 672 330 662 323 q 697 336 683 336 q 732 327 717 336 q 747 304 747 317 l 747 52 l 809 52 m 671 52 l 674 232 l 524 52 l 671 52 z "},"¹":{"ha":833,"x_min":209,"x_max":642,"o":"m 609 412 q 634 402 626 412 q 642 370 642 393 q 634 338 642 348 q 609 328 626 328 l 248 328 q 214 370 214 328 q 222 402 214 393 q 248 412 231 412 l 386 412 l 386 786 l 271 726 q 250 720 259 720 q 219 743 233 720 q 209 772 209 762 q 227 798 209 789 l 431 901 q 449 905 442 905 q 469 898 461 905 q 477 876 477 890 l 477 412 l 609 412 z "},"²":{"ha":833,"x_min":195,"x_max":634,"o":"m 418 905 q 521 883 477 905 q 588 823 565 862 q 611 731 611 783 q 584 636 611 679 q 500 547 557 594 l 338 412 l 601 412 q 626 402 618 412 q 634 370 634 393 q 626 338 634 348 q 601 328 618 328 l 227 328 q 195 376 195 328 q 216 420 195 403 l 441 610 q 498 671 480 644 q 516 731 516 698 q 489 794 516 770 q 412 817 462 817 q 337 806 377 817 q 262 776 298 794 q 249 772 254 772 q 230 781 239 772 q 216 803 222 789 q 210 830 210 820 q 225 857 210 849 q 318 892 267 880 q 418 905 369 905 z "},"³":{"ha":833,"x_min":205,"x_max":628,"o":"m 410 905 q 516 884 471 905 q 586 827 562 864 q 610 743 610 791 q 534 621 610 661 q 603 572 578 606 q 628 488 628 538 q 573 361 628 407 q 410 315 517 315 q 310 327 360 315 q 220 359 260 338 q 205 386 205 368 q 210 412 205 397 q 225 436 216 427 q 243 444 233 444 q 256 441 250 444 q 330 413 291 423 q 406 403 369 403 q 500 425 467 403 q 533 488 533 447 q 501 551 533 533 q 408 570 469 570 l 373 570 q 343 612 343 570 q 350 643 343 631 q 373 654 357 654 l 399 654 q 486 674 456 654 q 515 736 515 694 q 485 797 515 776 q 402 817 455 817 q 262 780 336 817 q 250 777 256 777 q 216 808 229 777 q 211 833 211 823 q 226 861 211 854 q 313 893 265 882 q 410 905 361 905 z "},"⁴":{"ha":833,"x_min":164,"x_max":654,"o":"m 621 564 q 646 554 637 564 q 654 522 654 545 q 646 490 654 500 q 621 479 637 479 l 547 479 l 547 355 q 537 330 547 338 q 502 322 526 322 q 467 330 477 322 q 456 355 456 338 l 456 479 l 201 479 q 174 493 184 479 q 164 532 164 506 q 167 552 164 544 q 176 568 170 560 l 433 875 q 458 898 446 890 q 488 905 470 905 q 529 894 511 905 q 547 867 547 883 l 547 564 l 621 564 m 456 564 l 460 781 l 280 564 l 456 564 z "},"*":{"ha":833,"x_min":130,"x_max":703,"o":"m 699 614 q 703 589 703 602 q 692 558 703 570 q 659 541 680 545 l 471 505 l 603 363 q 620 326 620 345 q 591 281 620 302 q 554 267 571 267 q 529 275 541 267 q 508 298 517 283 l 416 465 l 325 298 q 279 268 307 268 q 241 281 261 268 q 213 326 213 303 q 230 363 213 345 l 362 505 l 174 541 q 141 558 153 545 q 130 589 130 570 q 134 614 130 602 q 153 647 140 635 q 182 658 165 658 q 209 651 193 658 l 382 569 l 358 759 q 357 768 357 762 q 373 806 357 792 q 416 820 388 820 q 460 806 445 820 q 475 768 475 792 q 475 759 475 762 l 450 569 l 624 651 q 651 658 640 658 q 680 647 667 658 q 699 614 692 635 z "},"\\":{"ha":833,"x_min":134,"x_max":699,"o":"m 197 945 q 224 939 212 945 q 241 921 236 932 l 696 -193 q 699 -205 699 -199 q 681 -231 699 -220 q 636 -241 663 -241 q 609 -234 621 -241 q 592 -216 597 -227 l 136 898 q 134 909 134 904 q 152 935 134 925 q 197 945 170 945 z "},"·":{"ha":833,"x_min":325,"x_max":508,"o":"m 416 498 q 487 489 465 498 q 508 456 508 479 l 508 331 q 487 298 508 308 q 416 288 465 288 q 346 298 368 288 q 325 331 325 308 l 325 456 q 346 489 325 479 q 416 498 368 498 z "},"•":{"ha":833,"x_min":259,"x_max":574,"o":"m 416 578 q 537 563 500 578 q 574 512 574 547 l 574 307 q 537 256 574 272 q 416 241 500 241 q 296 256 333 241 q 259 307 259 272 l 259 512 q 296 563 259 547 q 416 578 333 578 z "},":":{"ha":833,"x_min":325,"x_max":508,"o":"m 416 633 q 487 624 465 633 q 508 591 508 614 l 508 466 q 487 433 508 443 q 416 423 465 423 q 346 433 368 423 q 325 466 325 443 l 325 591 q 346 624 325 614 q 416 633 368 633 m 416 203 q 487 194 465 203 q 508 161 508 184 l 508 36 q 487 3 508 13 q 416 -7 465 -7 q 346 3 368 -7 q 325 36 325 13 l 325 161 q 346 194 325 184 q 416 203 368 203 z "},",":{"ha":833,"x_min":252,"x_max":508,"o":"m 484 199 q 502 193 496 199 q 508 176 508 186 q 503 157 508 167 l 359 -172 q 301 -199 347 -199 q 252 -165 252 -199 q 254 -155 252 -163 l 317 172 q 329 192 320 185 q 353 199 338 199 l 484 199 z "},"…":{"ha":833,"x_min":74,"x_max":759,"o":"m 145 156 q 200 148 183 156 q 216 120 216 139 l 216 29 q 200 2 216 10 q 145 -7 183 -7 q 91 2 107 -7 q 74 29 74 10 l 74 120 q 91 148 74 139 q 145 156 107 156 m 416 156 q 471 148 454 156 q 488 120 488 139 l 488 29 q 471 2 488 10 q 416 -7 454 -7 q 362 2 378 -7 q 345 29 345 10 l 345 120 q 362 148 345 139 q 416 156 378 156 m 688 156 q 742 148 726 156 q 759 120 759 139 l 759 29 q 742 2 759 10 q 688 -7 726 -7 q 633 2 650 -7 q 616 29 616 10 l 616 120 q 633 148 616 139 q 688 156 650 156 z "},"!":{"ha":833,"x_min":332,"x_max":501,"o":"m 460 861 q 483 852 476 861 q 488 827 490 844 l 455 347 q 444 323 454 332 q 416 315 434 315 q 388 323 399 315 q 377 347 378 332 l 345 827 q 350 852 343 844 q 372 861 357 861 l 460 861 m 416 183 q 481 173 461 183 q 501 140 501 163 l 501 36 q 481 3 501 13 q 416 -7 461 -7 q 352 3 372 -7 q 332 36 332 13 l 332 140 q 352 173 332 163 q 416 183 372 183 z "},"¡":{"ha":833,"x_min":332,"x_max":501,"o":"m 416 444 q 352 453 372 444 q 332 486 332 463 l 332 591 q 352 624 332 614 q 416 633 372 633 q 481 624 461 633 q 501 591 501 614 l 501 486 q 481 453 501 463 q 416 444 461 444 m 372 -234 q 350 -226 357 -234 q 345 -200 343 -218 l 378 279 q 389 303 379 295 q 416 312 399 312 q 445 303 434 312 q 456 279 455 295 l 488 -200 q 483 -226 490 -218 q 460 -234 476 -234 l 372 -234 z "},"#":{"ha":833,"x_min":41,"x_max":792,"o":"m 749 587 q 782 575 772 587 q 792 538 792 564 q 782 500 792 511 q 749 489 772 489 l 618 489 l 574 323 l 702 323 q 735 312 725 323 q 745 274 745 300 q 735 236 745 248 q 702 225 725 225 l 549 225 l 492 7 q 479 -9 490 -3 q 456 -15 469 -15 q 422 -5 437 -15 q 407 22 407 5 q 408 31 407 24 l 459 225 l 281 225 l 225 7 q 212 -9 222 -3 q 189 -15 201 -15 q 155 -5 170 -15 q 140 22 140 5 q 141 31 140 24 l 192 225 l 83 225 q 51 236 60 225 q 41 274 41 248 q 51 312 41 300 q 83 323 60 323 l 217 323 l 260 489 l 131 489 q 98 500 108 489 q 88 538 88 511 q 98 575 88 564 q 131 587 108 587 l 286 587 l 340 798 q 354 814 343 808 q 377 820 364 820 q 411 810 396 820 q 426 783 426 800 q 425 774 426 781 l 376 587 l 553 587 l 608 798 q 621 814 610 808 q 644 820 631 820 q 678 810 663 820 q 693 783 693 800 q 692 774 693 781 l 643 587 l 749 587 m 528 489 l 351 489 l 307 323 l 484 323 l 528 489 z "},".":{"ha":833,"x_min":325,"x_max":508,"o":"m 416 203 q 487 194 465 203 q 508 161 508 184 l 508 36 q 487 3 508 13 q 416 -7 465 -7 q 346 3 368 -7 q 325 36 325 13 l 325 161 q 346 194 325 184 q 416 203 368 203 z "},"?":{"ha":833,"x_min":178,"x_max":655,"o":"m 419 861 q 546 834 492 861 q 627 759 599 807 q 655 648 655 711 q 632 548 655 590 q 563 476 608 507 q 443 414 517 445 l 434 317 q 389 284 431 284 q 345 317 347 284 l 336 451 q 339 473 334 465 q 356 486 345 481 l 403 505 q 489 547 457 527 q 535 591 520 566 q 551 648 551 615 q 516 730 551 699 q 420 760 482 760 q 243 715 330 760 q 222 709 233 709 q 186 740 199 709 q 178 771 178 758 q 203 808 178 793 q 419 861 301 861 m 389 156 q 449 146 431 156 q 467 113 467 136 l 467 36 q 449 3 467 13 q 389 -7 431 -7 q 330 3 348 -7 q 311 36 311 13 l 311 113 q 330 146 311 136 q 389 156 348 156 z "},"¿":{"ha":833,"x_min":178,"x_max":655,"o":"m 444 471 q 384 480 402 471 q 366 513 366 490 l 366 591 q 384 624 366 614 q 444 633 402 633 q 503 624 485 633 q 522 591 522 614 l 522 513 q 503 480 522 490 q 444 471 485 471 m 414 -234 q 287 -207 340 -234 q 206 -133 234 -180 q 178 -22 178 -85 q 201 78 178 37 q 270 151 224 120 q 390 212 316 182 l 399 310 q 444 342 402 342 q 488 310 486 342 l 497 176 q 493 154 498 162 q 477 141 488 146 l 430 122 q 344 80 376 100 q 297 36 313 60 q 282 -22 282 12 q 316 -103 282 -73 q 413 -134 351 -134 q 590 -88 503 -134 q 611 -82 600 -82 q 647 -113 633 -82 q 655 -144 655 -132 q 629 -181 655 -167 q 414 -234 532 -234 z "},"\"":{"ha":833,"x_min":173,"x_max":656,"o":"m 316 861 q 345 834 345 861 l 344 827 l 307 522 q 293 494 304 504 q 260 485 281 485 q 229 494 241 485 q 214 522 216 504 l 177 827 q 205 861 173 861 l 316 861 m 628 861 q 656 834 656 861 l 656 827 l 618 522 q 605 494 616 504 q 572 485 593 485 q 541 494 553 485 q 526 522 528 504 l 489 827 q 517 861 485 861 l 628 861 z "},"'":{"ha":833,"x_min":329,"x_max":500,"o":"m 472 861 q 500 834 500 861 l 500 827 l 463 522 q 449 494 460 504 q 416 485 437 485 q 385 494 397 485 q 370 522 372 504 l 333 827 q 361 861 329 861 l 472 861 z "},";":{"ha":833,"x_min":266,"x_max":522,"o":"m 416 633 q 487 624 465 633 q 508 591 508 614 l 508 466 q 487 433 508 443 q 416 423 465 423 q 346 433 368 423 q 325 466 325 443 l 325 591 q 346 624 325 614 q 416 633 368 633 m 498 199 q 515 193 509 199 q 522 176 522 186 q 517 157 522 167 l 373 -172 q 315 -199 361 -199 q 266 -165 266 -199 q 267 -155 266 -163 l 331 172 q 343 192 334 185 q 366 199 352 199 l 498 199 z "},"/":{"ha":833,"x_min":134,"x_max":699,"o":"m 636 945 q 681 935 663 945 q 699 909 699 925 q 696 898 699 904 l 241 -216 q 224 -234 236 -227 q 197 -241 212 -241 q 152 -231 170 -241 q 134 -205 134 -220 q 136 -193 134 -199 l 592 921 q 609 939 597 932 q 636 945 621 945 z "},"_":{"ha":833,"x_min":-19,"x_max":852,"o":"m -3 -267 q -15 -257 -12 -267 q -19 -218 -19 -247 q -15 -179 -19 -189 q -3 -169 -12 -169 l 836 -169 q 848 -179 844 -169 q 852 -218 852 -189 q 848 -257 852 -247 q 836 -267 844 -267 l -3 -267 z "},"{":{"ha":833,"x_min":120,"x_max":671,"o":"m 629 930 q 662 919 652 930 q 671 882 671 908 q 662 844 671 855 q 629 833 652 833 q 520 815 561 833 q 461 760 479 798 q 444 662 444 723 l 444 642 l 446 593 q 412 459 450 512 q 288 370 374 406 l 288 363 q 412 290 374 338 q 450 167 450 241 q 450 144 450 152 l 444 62 q 444 37 444 54 q 488 -89 444 -50 q 629 -128 532 -128 q 662 -139 652 -128 q 671 -177 671 -151 q 662 -215 671 -203 q 629 -226 652 -226 q 417 -165 492 -226 q 341 18 341 -104 q 342 54 341 42 l 350 138 q 351 165 351 157 q 306 280 351 241 q 163 318 260 318 q 130 329 140 318 q 120 367 120 340 q 130 405 120 393 q 163 416 140 416 q 302 458 257 416 q 347 580 347 501 q 346 600 347 593 l 342 650 q 341 680 341 671 q 416 868 341 805 q 629 930 491 930 z "},"}":{"ha":833,"x_min":161,"x_max":713,"o":"m 204 930 q 417 868 342 930 q 492 680 492 805 q 490 650 492 671 l 487 600 q 486 580 486 593 q 531 458 486 501 q 670 416 576 416 q 703 405 693 416 q 713 367 713 393 q 703 329 713 340 q 670 318 693 318 q 527 280 572 318 q 481 165 481 241 q 483 138 481 157 l 490 54 q 492 18 492 42 q 416 -165 492 -104 q 204 -226 340 -226 q 171 -215 181 -226 q 161 -177 161 -203 q 171 -139 161 -151 q 204 -128 181 -128 q 345 -89 300 -128 q 389 37 389 -50 q 389 62 389 54 l 383 144 q 382 167 382 152 q 421 290 382 241 q 545 363 459 338 l 545 370 q 421 459 458 406 q 387 593 383 512 l 389 642 q 375 752 391 710 q 317 813 358 793 q 204 833 276 833 q 171 844 181 833 q 161 882 161 855 q 171 919 161 908 q 204 930 181 930 z "},"[":{"ha":833,"x_min":224,"x_max":590,"o":"m 547 -128 q 580 -139 570 -128 q 590 -177 590 -151 q 580 -215 590 -203 q 547 -226 570 -226 l 267 -226 q 234 -215 243 -226 q 224 -180 224 -205 l 224 884 q 234 920 224 909 q 267 930 243 930 l 547 930 q 580 919 570 930 q 590 882 590 908 q 580 844 590 855 q 547 833 570 833 l 326 833 l 326 -128 l 547 -128 z "},"]":{"ha":833,"x_min":243,"x_max":609,"o":"m 566 930 q 599 920 589 930 q 609 884 609 909 l 609 -180 q 599 -215 609 -205 q 566 -226 589 -226 l 286 -226 q 253 -215 262 -226 q 243 -177 243 -203 q 253 -139 243 -151 q 286 -128 262 -128 l 507 -128 l 507 833 l 286 833 q 253 844 262 833 q 243 882 243 855 q 253 919 243 908 q 286 930 262 930 l 566 930 z "},"(":{"ha":833,"x_min":201,"x_max":587,"o":"m 523 932 q 537 937 530 937 q 558 929 548 937 q 575 909 568 922 q 587 873 587 890 q 578 853 587 859 q 381 650 460 776 q 302 351 302 524 q 381 53 302 178 q 578 -149 460 -72 q 587 -169 587 -155 q 575 -205 587 -186 q 558 -225 568 -218 q 537 -233 548 -233 q 523 -229 530 -233 q 367 -97 440 -179 q 248 100 294 -14 q 201 351 201 215 q 248 602 201 486 q 368 800 294 717 q 523 932 441 883 z "},")":{"ha":833,"x_min":246,"x_max":631,"o":"m 310 932 q 465 800 392 883 q 585 602 538 717 q 631 351 631 486 q 585 100 631 215 q 466 -97 538 -14 q 310 -229 393 -179 q 296 -233 302 -233 q 275 -225 285 -233 q 258 -205 265 -218 q 246 -169 246 -186 q 255 -149 246 -155 q 452 53 373 -72 q 531 351 531 178 q 452 650 531 524 q 255 853 372 776 q 246 873 246 859 q 258 909 246 890 q 275 929 265 922 q 296 937 285 937 q 310 932 302 937 z "},"—":{"ha":833,"x_min":-20,"x_max":853,"o":"m 810 444 q 843 432 833 444 q 853 395 853 421 q 843 357 853 368 q 810 346 833 346 l 22 346 q -11 357 -1 346 q -20 395 -20 368 q -11 432 -20 421 q 22 444 -1 444 l 810 444 z "},"–":{"ha":833,"x_min":115,"x_max":718,"o":"m 675 444 q 708 432 698 444 q 718 395 718 421 q 708 357 718 368 q 675 346 698 346 l 158 346 q 125 357 135 346 q 115 395 115 368 q 125 432 115 421 q 158 444 135 444 l 675 444 z "},"-":{"ha":833,"x_min":115,"x_max":718,"o":"m 675 444 q 708 432 698 444 q 718 395 718 421 q 708 357 718 368 q 675 346 698 346 l 158 346 q 125 357 135 346 q 115 395 115 368 q 125 432 115 421 q 158 444 135 444 l 675 444 z "},"‑":{"ha":833,"x_min":115,"x_max":718,"o":"m 675 444 q 708 432 698 444 q 718 395 718 421 q 708 357 718 368 q 675 346 698 346 l 158 346 q 125 357 135 346 q 115 395 115 368 q 125 432 115 421 q 158 444 135 444 l 675 444 z "},"­":{"ha":0,"x_min":0,"x_max":0,"o":""},"«":{"ha":833,"x_min":104,"x_max":726,"o":"m 380 623 q 401 588 401 604 q 391 566 401 577 l 224 382 l 391 199 q 401 177 401 188 q 380 142 401 161 q 339 123 358 123 q 317 134 326 123 l 110 366 q 104 382 104 374 q 110 399 104 393 l 317 631 q 339 642 326 642 q 380 623 358 642 m 705 623 q 726 588 726 604 q 717 566 726 577 l 550 382 l 717 199 q 726 177 726 188 q 705 142 726 161 q 665 123 684 123 q 643 134 651 123 l 435 366 q 429 382 429 374 q 435 399 429 393 l 643 631 q 665 642 651 642 q 705 623 684 642 z "},"»":{"ha":833,"x_min":106,"x_max":729,"o":"m 127 623 q 168 642 149 642 q 190 631 182 642 l 397 399 q 404 382 404 393 q 397 366 404 374 l 190 134 q 168 123 182 123 q 127 142 149 123 q 106 177 106 161 q 116 199 106 188 l 283 382 l 116 566 q 106 588 106 577 q 127 623 106 604 m 453 623 q 494 642 475 642 q 515 631 507 642 l 723 399 q 729 382 729 393 q 723 366 729 374 l 515 134 q 494 123 507 123 q 453 142 475 123 q 432 177 432 161 q 441 199 432 188 l 608 382 l 441 566 q 432 588 432 577 q 453 623 432 604 z "},"‹":{"ha":833,"x_min":267,"x_max":564,"o":"m 543 623 q 564 588 564 604 q 554 566 564 577 l 387 382 l 554 199 q 564 177 564 188 q 543 142 564 161 q 502 123 521 123 q 480 134 488 123 l 273 366 q 267 382 267 374 q 273 399 267 393 l 480 631 q 502 642 488 642 q 543 623 521 642 z "},"›":{"ha":833,"x_min":269,"x_max":566,"o":"m 290 623 q 331 642 312 642 q 353 631 345 642 l 560 399 q 566 382 566 393 q 560 366 566 374 l 353 134 q 331 123 345 123 q 290 142 312 123 q 269 177 269 161 q 279 199 269 188 l 446 382 l 279 566 q 269 588 269 577 q 290 623 269 604 z "}}}
